<?xml version="1.0" encoding="UTF-8" standalone="no"?>
<svg width="20px" height="15px" viewBox="0 0 20 15" version="1.1" xmlns="http://www.w3.org/2000/svg" xmlns:xlink="http://www.w3.org/1999/xlink">
    <!-- Generator: Sketch 3.7.2 (28276) - http://www.bohemiancoding.com/sketch -->
    <title>icon-weather-dust</title>
    <desc>Created with Sketch.</desc>
    <defs></defs>
    <g id="weather-icons" stroke="none" stroke-width="1" fill="none" fill-rule="evenodd">
        <g id="Dust_Fog_Haze_Smoke" fill="#B9B9B9">
            <g id="Shape">
                <path d="M19.9403599,0.755006912 C19.8494458,0.562578934 19.6777191,0.530507604 19.5666019,0.674828588 L19.1019298,1.25211252 L19.1019298,1.25211252 C19.0009141,1.42850484 18.3342107,2.10200276 17.5664916,2.11803843 C17.0311086,2.13407409 16.5664365,1.82939646 16.1724754,1.22004119 C14.9097796,-0.800452584 13.4551539,0.306008295 12.869263,1.1719342 L12.869263,1.1719342 L12.869263,1.1719342 C12.7682474,1.34832651 12.0813408,2.05389577 11.3136217,2.0859671 C10.7782387,2.10200276 10.3135666,1.79732513 9.91960552,1.1719342 C8.65690966,-0.832523914 7.20228403,0.2579013 6.61639315,1.12382721 L6.61639315,1.12382721 C6.51537748,1.30021952 5.82847094,2.02182444 5.06075185,2.05389577 C4.52536881,2.06993144 4.06069673,1.7652538 3.66673562,1.13986287 C2.43434447,-0.832523914 1.0201251,0.177722976 0.403929526,1.02761322 L0.100882519,1.38039784 C-0.0203362831,1.52471883 -0.0304378499,1.8133608 0.0604762519,2.00578878 C0.151390354,2.19821675 0.323116991,2.23028808 0.444335793,2.0859671 L0.737281232,1.71714681 L0.737281232,1.71714681 L0.737281232,1.71714681 L0.919109436,1.50868316 L0.919109436,1.50868316 C1.32317211,1.05968455 2.3333288,0.22582997 3.29297765,1.74921814 C3.84856383,2.63117971 4.46475941,2.91982168 5.01024402,2.91982168 C5.48501766,2.91982168 5.90928347,2.71135803 6.20222891,2.51893005 C6.36385398,2.4066804 6.78811979,2.11803843 6.99015113,1.7652538 C7.06086209,1.66903981 8.33365952,-0.126954658 9.54584754,1.79732513 C10.1014337,2.6792867 10.7176293,2.96792867 11.2631139,2.96792867 C11.7378876,2.96792867 12.1621534,2.75946503 12.4550988,2.56703705 C12.6066223,2.45478739 13.0308881,2.16614542 13.2329195,1.8133608 L13.2329195,1.8133608 C13.2935289,1.73318247 14.5764278,-0.0948833278 15.7886159,1.82939646 C16.344202,2.71135803 16.9603976,3 17.5058822,3 C17.9806559,3 18.4049217,2.79153636 18.6978671,2.59910838 C18.8291875,2.50289439 19.1726408,2.27839508 19.3847737,1.97371745 L19.889852,1.39643351 C20.0211724,1.23607686 20.031274,0.931399226 19.9403599,0.755006912 L19.9403599,0.755006912 Z"></path>
                <path d="M19.9403599,12.7631655 C19.8494458,12.5686581 19.6777191,12.5362402 19.5666019,12.6821208 L19.1019298,13.2656428 L19.1019298,13.2656428 C19.0009141,13.4439412 18.3342107,14.1247169 17.5664916,14.1409259 C17.0311086,14.1571348 16.5664365,13.8491649 16.1724754,13.2332249 C14.9097796,11.1908978 13.4551539,12.309315 12.869263,13.1845981 L12.869263,13.1845981 L12.869263,13.1845981 C12.7682474,13.3628965 12.0813408,14.0760901 11.3136217,14.108508 C10.7782387,14.1247169 10.3135666,13.816747 9.91960552,13.1845981 C8.65690966,11.1584799 7.20228403,12.2606882 6.61639315,13.1359712 L6.61639315,13.1359712 C6.51537748,13.3142696 5.82847094,14.0436722 5.06075185,14.0760901 C4.52536881,14.092299 4.06069673,13.7843291 3.66673562,13.1521802 C2.43434447,11.1584799 1.0201251,12.1796434 0.403929526,13.0387176 L0.100882519,13.3953144 C-0.0203362831,13.5411949 -0.0304378499,13.8329559 0.0604762519,14.0274633 C0.151390354,14.2219706 0.323116991,14.2543885 0.444335793,14.108508 L0.737281232,13.7357022 L0.737281232,13.7357022 L0.737281232,13.7357022 L0.919109436,13.508777 L0.919109436,13.508777 C1.32317211,13.0549265 2.3333288,12.2120613 3.29297765,13.7519112 C3.84856383,14.6596121 4.46475941,14.9351642 5.01024402,14.9351642 C5.48501766,14.9351642 5.90928347,14.7244479 6.20222891,14.5299406 C6.36385398,14.416478 6.78811979,14.1247169 6.99015113,13.7681201 C7.06086209,13.6708665 8.33365952,11.8554645 9.54584754,13.800538 C10.1014337,14.69203 10.7176293,14.9837911 11.2631139,14.9837911 C11.7378876,14.9837911 12.1621534,14.7730748 12.4550988,14.5785674 C12.6066223,14.4813137 13.0308881,14.1733438 13.2329195,13.816747 L13.2329195,13.816747 C13.2935289,13.7357022 14.5764278,11.8878824 15.7886159,13.8329559 C16.344202,14.7244479 16.9603976,15 17.5058822,15 C17.9806559,15 18.4049217,14.7892837 18.6978671,14.5947764 C18.8291875,14.4975227 19.1726408,14.2705974 19.3847737,13.9626275 L19.889852,13.3791054 C20.0211724,13.2656428 20.031274,12.9576728 19.9403599,12.7631655 L19.9403599,12.7631655 Z"></path>
                <path d="M19.9403599,4.7621976 C19.8494458,4.56618571 19.6777191,4.53351706 19.5666019,4.68052597 L19.1019298,5.26856164 L19.1019298,5.26856164 C19.0009141,5.44823921 18.3342107,6.13428082 17.5664916,6.16694947 C17.0311086,6.18328379 16.5664365,5.87293164 16.1724754,5.23589299 C14.9097796,3.19410248 13.4551539,4.30483652 12.869263,5.18689002 L12.869263,5.18689002 L12.869263,5.18689002 C12.7682474,5.36656759 12.0813408,6.08527785 11.3136217,6.1179465 C10.7782387,6.13428082 10.3135666,5.82392866 9.91960552,5.18689002 C8.65690966,3.14509951 7.20228403,4.25583355 6.61639315,5.13788705 L6.61639315,5.13788705 C6.51537748,5.31756462 5.82847094,6.0526092 5.06075185,6.08527785 C4.52536881,6.10161217 4.06069673,5.79126002 3.66673562,5.15422137 C2.43434447,3.16143383 1.0201251,4.17416193 0.403929526,5.03988111 L0.100882519,5.39923624 C-0.0203362831,5.54624515 -0.0304378499,5.84026299 0.0604762519,6.03627488 C0.151390354,6.23228677 0.323116991,6.26495541 0.444335793,6.1179465 L0.737281232,5.74225704 L0.737281232,5.74225704 L0.737281232,5.74225704 L0.919109436,5.51357651 L0.919109436,5.51357651 C1.32317211,5.05621543 2.3333288,4.20683058 3.29297765,5.75859137 C3.84856383,6.65697919 4.46475941,6.9346627 5.01024402,6.9346627 C5.48501766,6.9346627 5.90928347,6.72231649 6.20222891,6.5263046 C6.36385398,6.42829866 6.78811979,6.1179465 6.99015113,5.75859137 C7.06086209,5.66058542 8.33365952,3.83114112 9.54584754,5.79126002 C10.1014337,6.68964784 10.7176293,6.96733135 11.2631139,6.96733135 C11.7378876,6.96733135 12.1621534,6.75498514 12.4550988,6.55897325 C12.6066223,6.4609673 13.0308881,6.15061515 13.2329195,5.79126002 L13.2329195,5.79126002 C13.2935289,5.70958839 14.5764278,3.86380977 15.7886159,5.82392866 C16.344202,6.72231649 16.9603976,7 17.5058822,7 C17.9806559,7 18.4049217,6.78765379 18.6978671,6.5916419 C18.8291875,6.49363595 19.1726408,6.26495541 19.3847737,5.95460326 L19.889852,5.36656759 C20.0211724,5.25222732 20.031274,4.95820948 19.9403599,4.7621976 L19.9403599,4.7621976 Z"></path>
                <path d="M19.9403599,8.77014538 C19.8494458,8.57624498 19.6777191,8.54392825 19.5666019,8.68935355 L19.1019298,9.27105475 L19.1019298,9.27105475 C19.0009141,9.43263842 18.3342107,10.1274482 17.5664916,10.1436066 C17.0311086,10.1597649 16.5664365,9.85275596 16.1724754,9.22257965 C14.9097796,7.20278381 13.4551539,8.30155275 12.869263,9.17410455 L12.869263,9.17410455 L12.869263,9.17410455 C12.7682474,9.35184659 12.0813408,10.0789731 11.3136217,10.0951315 C10.7782387,10.1112898 10.3135666,9.80428086 9.91960552,9.17410455 C8.65690966,7.1543087 7.20228403,8.25307765 6.61639315,9.12562945 L6.61639315,9.12562945 C6.51537748,9.28721312 5.82847094,10.030498 5.06075185,10.0628147 C4.52536881,10.0789731 4.06069673,9.77196412 3.66673562,9.14178782 C2.43434447,7.17046707 1.0201251,8.17228581 0.403929526,9.02867925 L0.100882519,9.40032169 C-0.0203362831,9.54574699 -0.0304378499,9.83659759 0.0604762519,10.030498 C0.151390354,10.2243984 0.323116991,10.2567151 0.444335793,10.1274482 L0.737281232,9.75580576 L0.737281232,9.75580576 L0.737281232,9.75580576 L0.919109436,9.52958862 L0.919109436,9.52958862 C1.32317211,9.07715435 2.3333288,8.23691928 3.29297765,9.77196412 C3.84856383,10.6606743 4.46475941,10.9353665 5.01024402,10.9353665 C5.48501766,10.9353665 5.90928347,10.7253078 6.20222891,10.5314074 C6.36385398,10.4182988 6.78811979,10.1274482 6.99015113,9.77196412 C7.06086209,9.67501392 8.33365952,7.86527684 9.54584754,9.80428086 C10.1014337,10.692991 10.7176293,10.9676833 11.2631139,10.9676833 C11.7378876,10.9676833 12.1621534,10.7576245 12.4550988,10.5637241 C12.6066223,10.4506155 13.0308881,10.1597649 13.2329195,9.80428086 L13.2329195,9.80428086 C13.2935289,9.72348902 14.5764278,7.88143521 15.7886159,9.82043922 C16.344202,10.7091494 16.9603976,11 17.5058822,11 C17.9806559,11 18.4049217,10.7899412 18.6978671,10.5960408 C18.8291875,10.4990906 19.1726408,10.2567151 19.3847737,9.96586453 L19.889852,9.38416332 C20.0211724,9.25489639 20.031274,8.96404578 19.9403599,8.77014538 L19.9403599,8.77014538 Z"></path>
            </g>
        </g>
    </g>
</svg>