<?xml version="1.0" encoding="UTF-8" standalone="no"?>
<svg width="20px" height="17px" viewBox="0 0 20 17" version="1.1" xmlns="http://www.w3.org/2000/svg" xmlns:xlink="http://www.w3.org/1999/xlink">
    <!-- Generator: Sketch 3.7.2 (28276) - http://www.bohemiancoding.com/sketch -->
    <title>icon-weather-snow</title>
    <desc>Created with Sketch.</desc>
    <defs></defs>
    <g id="weather-icons" stroke="none" stroke-width="1" fill="none" fill-rule="evenodd">
        <g id="SnowShowers_Snow" transform="translate(-1.000000, 0.000000)" fill="#B9B9B9">
            <path d="M20.7889447,5.82797927 C20.3165829,4.10518135 18.5075377,3.07150259 16.7487437,3.52435233 C16.7487437,3.52435233 16.6180905,3.55388601 16.3969849,3.61295337 C15.8341709,1.56528497 13.9246231,0.0492227979 11.6532663,0.0492227979 C9.19095477,0.0492227979 7.15075377,1.83108808 6.79899497,4.14455959 C6.71859296,4.12487047 6.66834171,4.11502591 6.66834171,4.11502591 C5.18090452,3.74093264 3.65326633,4.60725389 3.26130653,6.0642487 C3.17085427,6.40880829 3.15075377,6.75336788 3.18090452,7.0880829 C2.43718593,7.28497409 1.97487437,7.40310881 1.97487437,7.40310881 C1.27135678,7.59015544 0.859296482,8.28911917 1.05025126,8.97823834 C1.21105528,9.57875648 1.7839196,9.9626943 2.39698492,9.93316062 L17.5025126,9.93316062 C17.5025126,9.93316062 18.1256281,9.90362694 18.4472362,9.82487047 C20.2060302,9.34248705 21.2613065,7.56062176 20.7889447,5.82797927 L20.7889447,5.82797927 Z" id="Shape"></path>
            <path d="M8.68426966,12.4029851 L8.66404494,12.4029851 L8.05730337,12.5621891 L7.52134831,12.2537313 L8.05730337,11.9552239 L8.66404494,12.1144279 C8.70449438,12.1243781 8.74494382,12.1044776 8.75505618,12.0646766 C8.76516854,12.0348259 8.74494382,12.0049751 8.7247191,11.9850746 L8.7247191,11.9850746 L8.3505618,11.7761194 L8.69438202,11.5174129 L8.69438202,11.5174129 C8.7247191,11.4975124 8.7247191,11.4676617 8.71460674,11.4378109 C8.70449438,11.4079602 8.6741573,11.39801 8.64382022,11.39801 C8.63370787,11.39801 8.62359551,11.39801 8.61348315,11.4079602 L8.21910112,11.5671642 L8.21910112,11.1492537 C8.21910112,11.119403 8.1988764,11.079602 8.16853933,11.079602 C8.12808989,11.0696517 8.08764045,11.0895522 8.07752809,11.1293532 L7.91573034,11.7263682 L7.37977528,12.0348259 L7.37977528,11.4278607 L7.8247191,10.9900498 C7.83483146,10.9800995 7.84494382,10.960199 7.84494382,10.9402985 C7.84494382,10.920398 7.83483146,10.9004975 7.8247191,10.8905473 C7.80449438,10.8706468 7.76404494,10.8606965 7.73370787,10.880597 L7.73370787,10.880597 L7.35955056,11.0895522 L7.2988764,10.6616915 C7.28876404,10.6318408 7.26853933,10.60199 7.22808989,10.60199 L7.21797753,10.60199 C7.18764045,10.60199 7.15730337,10.6318408 7.15730337,10.6616915 L7.15730337,10.6616915 L7.10674157,11.079602 L6.73258427,10.8706468 L6.73258427,10.8706468 C6.70224719,10.8606965 6.67191011,10.8606965 6.64157303,10.880597 C6.61123596,10.9104478 6.61123596,10.9502488 6.64157303,10.9800995 L7.08651685,11.4179104 L7.08651685,12.0248756 L6.5505618,11.7164179 L6.38876404,11.119403 C6.37865169,11.079602 6.33820225,11.0597015 6.29775281,11.0696517 C6.26741573,11.079602 6.24719101,11.1094527 6.24719101,11.1393035 L6.24719101,11.1393035 L6.24719101,11.5671642 L5.85280899,11.4079602 C5.82247191,11.39801 5.77191011,11.4079602 5.76179775,11.4477612 C5.75168539,11.4776119 5.76179775,11.5074627 5.78202247,11.5273632 L5.78202247,11.5273632 L6.1258427,11.7860697 L5.75168539,11.9950249 L5.75168539,11.9950249 C5.72134831,12.0149254 5.71123596,12.0447761 5.72134831,12.0746269 C5.73146067,12.1044776 5.76179775,12.1243781 5.79213483,12.1243781 L5.81235955,12.1243781 L6.41910112,11.9651741 L6.95505618,12.2636816 L6.42921348,12.5721393 L5.82247191,12.4129353 C5.78202247,12.4029851 5.74157303,12.4228856 5.73146067,12.4626866 C5.72134831,12.4925373 5.74157303,12.5223881 5.76179775,12.5422886 L5.76179775,12.5422886 L6.13595506,12.7512438 L5.79213483,13.0099502 L5.79213483,13.0099502 C5.76179775,13.0298507 5.76179775,13.0597015 5.77191011,13.0895522 C5.78202247,13.119403 5.81235955,13.1293532 5.84269663,13.1293532 C5.85280899,13.1293532 5.86292135,13.1293532 5.87303371,13.119403 L6.26741573,12.960199 L6.26741573,13.3880597 L6.26741573,13.3880597 C6.26741573,13.4179104 6.28764045,13.4477612 6.31797753,13.4577114 C6.35842697,13.4676617 6.3988764,13.4477612 6.40898876,13.4079602 L6.57078652,12.8109453 L7.10674157,12.5124378 L7.10674157,13.119403 L6.66179775,13.5572139 C6.65168539,13.5671642 6.64157303,13.5870647 6.64157303,13.6069652 C6.64157303,13.6268657 6.65168539,13.6467662 6.66179775,13.6567164 C6.68202247,13.6766169 6.72247191,13.6865672 6.75280899,13.6666667 L6.75280899,13.6666667 L7.12696629,13.4577114 L7.18764045,13.8855721 C7.19775281,13.9154229 7.21797753,13.9452736 7.25842697,13.9452736 L7.26853933,13.9452736 C7.2988764,13.9353234 7.32921348,13.9154229 7.32921348,13.8855721 L7.32921348,13.8855721 L7.37977528,13.4676617 L7.75393258,13.6766169 L7.75393258,13.6766169 C7.78426966,13.6865672 7.81460674,13.6865672 7.84494382,13.6666667 C7.8752809,13.6368159 7.8752809,13.5970149 7.84494382,13.5671642 L7.4,13.1293532 L7.4,12.5223881 L7.93595506,12.8208955 L8.09775281,13.4179104 C8.10786517,13.4577114 8.14831461,13.4776119 8.18876404,13.4676617 C8.21910112,13.4577114 8.23932584,13.4278607 8.23932584,13.39801 L8.23932584,13.39801 L8.23932584,12.9701493 L8.64382022,13.1293532 C8.65393258,13.1293532 8.66404494,13.1393035 8.6741573,13.1393035 C8.70449438,13.1393035 8.7247191,13.119403 8.74494382,13.0995025 C8.75505618,13.0696517 8.74494382,13.039801 8.7247191,13.0199005 L8.7247191,13.0199005 L8.38089888,12.761194 L8.75505618,12.5522388 L8.75505618,12.5522388 C8.78539326,12.5422886 8.79550562,12.5024876 8.78539326,12.4726368 C8.74494382,12.4228856 8.71460674,12.4029851 8.68426966,12.4029851 L8.68426966,12.4029851 Z" id="Shape"></path>
            <path d="M16.1067416,14.2139303 L14.994382,14.5024876 L14.0134831,13.9452736 L14.994382,13.3880597 L16.1168539,13.6865672 C16.1876404,13.7064677 16.258427,13.6567164 16.2786517,13.5970149 C16.2988764,13.5373134 16.2685393,13.4776119 16.2179775,13.4477612 L15.5202247,13.0597015 L16.147191,12.5920398 C16.1977528,12.5522388 16.2078652,12.4925373 16.1876404,12.4427861 C16.1674157,12.3930348 16.1168539,12.3631841 16.0662921,12.3631841 C16.0460674,12.3631841 16.0359551,12.3731343 16.0157303,12.3731343 L15.2876404,12.6716418 L15.2876404,11.8955224 C15.2977528,11.8358209 15.247191,11.7761194 15.1966292,11.7562189 C15.1258427,11.7363184 15.0550562,11.7761194 15.0348315,11.8457711 L14.741573,12.9402985 L13.7606742,13.4975124 L13.7606742,12.3830846 L14.5797753,11.5771144 C14.6101124,11.5472637 14.6202247,11.5174129 14.6202247,11.4875622 C14.6202247,11.4477612 14.6,11.4179104 14.5797753,11.39801 C14.5393258,11.358209 14.4685393,11.3482587 14.4179775,11.3781095 L13.7202247,11.7661692 L13.6191011,10.9900498 C13.6089888,10.9303483 13.558427,10.880597 13.4876404,10.880597 L13.4674157,10.880597 C13.4067416,10.8905473 13.3662921,10.9303483 13.3561798,10.9900498 L13.2550562,11.7661692 L12.5674157,11.3781095 C12.5067416,11.3482587 12.4359551,11.358209 12.3955056,11.39801 C12.3449438,11.4477612 12.3449438,11.5273632 12.405618,11.5771144 L13.2247191,12.3830846 L13.2247191,13.4975124 L12.2438202,12.9402985 L11.9404494,11.8358209 C11.9202247,11.7661692 11.8494382,11.7263682 11.7786517,11.7462687 C11.7179775,11.7661692 11.6876404,11.8159204 11.6876404,11.8756219 L11.6876404,12.6616915 L10.9595506,12.3631841 C10.8988764,12.3333333 10.8179775,12.3731343 10.7876404,12.4328358 C10.7674157,12.4825871 10.7775281,12.5522388 10.8280899,12.5820896 L11.4651685,13.0497512 L10.7775281,13.4378109 C10.7168539,13.4676617 10.6865169,13.5273632 10.7067416,13.5870647 C10.7269663,13.6467662 10.7775281,13.6766169 10.8382022,13.6766169 C10.8483146,13.6766169 10.858427,13.6766169 10.8786517,13.6666667 L11.9910112,13.3781095 L12.9719101,13.9353234 L12.011236,14.4925373 L10.888764,14.1940299 C10.8179775,14.1741294 10.747191,14.2238806 10.7269663,14.2835821 C10.7067416,14.3432836 10.7370787,14.4029851 10.7876404,14.4328358 L11.4853933,14.8208955 L10.858427,15.2885572 C10.7977528,15.3283582 10.7876404,15.3880597 10.8078652,15.4378109 C10.8280899,15.4875622 10.8786517,15.5174129 10.9292135,15.5174129 C10.9494382,15.5174129 10.9595506,15.5074627 10.9797753,15.5074627 L11.7078652,15.2089552 L11.7078652,15.9850746 C11.7078652,16.0447761 11.7483146,16.0945274 11.7988764,16.1144279 C11.8696629,16.1343284 11.9404494,16.0945274 11.9606742,16.0248756 L12.2539326,14.9303483 L13.2348315,14.3731343 L13.2348315,15.4875622 L12.4157303,16.2935323 C12.3853933,16.3233831 12.3752809,16.3532338 12.3752809,16.3830846 C12.3752809,16.4129353 12.3955056,16.4527363 12.4157303,16.4726368 C12.4561798,16.5124378 12.5269663,16.5223881 12.5775281,16.4925373 L13.2651685,16.1044776 L13.3662921,16.880597 C13.3764045,16.9402985 13.4269663,16.9900498 13.4977528,16.9900498 L13.5179775,16.9900498 C13.5786517,16.9800995 13.6191011,16.9402985 13.6292135,16.880597 L13.7303371,16.1044776 L14.4179775,16.4925373 C14.4786517,16.5223881 14.5494382,16.5124378 14.5898876,16.4726368 C14.6404494,16.4228856 14.6404494,16.3432836 14.5797753,16.2835821 L13.7606742,15.4776119 L13.7606742,14.3631841 L14.741573,14.920398 L15.0449438,16.0248756 C15.0651685,16.0945274 15.1359551,16.1343284 15.2067416,16.1144279 C15.2674157,16.0945274 15.2977528,16.0447761 15.2977528,15.9850746 L15.2977528,15.2089552 L16.0359551,15.5074627 C16.0561798,15.5174129 16.0662921,15.5174129 16.0865169,15.5174129 C16.1370787,15.5174129 16.1876404,15.4875622 16.2078652,15.4378109 C16.2280899,15.3880597 16.2179775,15.318408 16.1674157,15.2885572 L15.5303371,14.8208955 L16.2179775,14.4328358 C16.2685393,14.4029851 16.2988764,14.3432836 16.2786517,14.2835821 C16.258427,14.2437811 16.2078652,14.2039801 16.147191,14.2039801 C16.1370787,14.2039801 16.1269663,14.2039801 16.1067416,14.2139303 Z" id="Shape"></path>
        </g>
    </g>
</svg>