<?xml version="1.0" encoding="UTF-8" standalone="no"?>
<svg width="20px" height="20px" viewBox="0 0 20 20" version="1.1" xmlns="http://www.w3.org/2000/svg" xmlns:xlink="http://www.w3.org/1999/xlink">
    <!-- Generator: Sketch 3.7.2 (28276) - http://www.bohemiancoding.com/sketch -->
    <title>icon-weather-clear-night</title>
    <desc>Created with Sketch.</desc>
    <defs></defs>
    <g id="weather-icons" stroke="none" stroke-width="1" fill="none" fill-rule="evenodd">
        <g id="Clear" fill="#B9B9B9">
            <g id="Shape">
                <path d="M17.1020408,3.81 L14.0408163,3.2 L13.4183673,0.2 C13.4081633,0.15 13.3673469,0.1 13.3061224,0.09 C13.2346939,0.08 13.1734694,0.13 13.1632653,0.2 L12.5510204,3.2 L9.48979592,3.81 C9.43877551,3.82 9.3877551,3.86 9.37755102,3.92 C9.36734694,3.99 9.41836735,4.05 9.48979592,4.06 L12.5510204,4.67 L13.1734694,7.67 C13.1836735,7.72 13.2244898,7.77 13.2857143,7.78 C13.3571429,7.79 13.4183673,7.74 13.4285714,7.67 L14.0510204,4.67 L17.1122449,4.06 C17.1632653,4.05 17.2142857,4.01 17.2244898,3.95 C17.2142857,3.88 17.1734694,3.82 17.1020408,3.81 L17.1020408,3.81 Z"></path>
                <path d="M6.54081633,12.02 C4.14285714,7.95 4.51020408,3.21 7.17346939,0.53 C6.44897959,0.75 5.74489796,1.04 5.06122449,1.43 C0.224489796,4.16 -1.42857143,10.22 1.35714286,14.95 C4.14285714,19.68 10.3265306,21.31 15.1530612,18.57 C15.8367347,18.18 16.4489796,17.73 17,17.23 C13.3061224,18.15 8.92857143,16.09 6.54081633,12.02 L6.54081633,12.02 Z"></path>
                <path d="M19.9183673,10.59 L17.744898,10.15 L17.2959184,8.02 C17.2959184,7.98 17.2653061,7.95 17.2142857,7.94 C17.1632653,7.93 17.122449,7.97 17.1122449,8.02 L16.6632653,10.15 L14.4897959,10.59 C14.4489796,10.6 14.4183673,10.63 14.4081633,10.67 C14.3979592,10.72 14.4387755,10.76 14.4897959,10.77 L16.6632653,11.21 L17.1122449,13.34 C17.122449,13.38 17.1428571,13.41 17.1938776,13.42 C17.244898,13.43 17.2857143,13.39 17.2959184,13.34 L17.744898,11.21 L19.9183673,10.77 C19.9591837,10.76 19.9897959,10.73 20,10.69 C20,10.64 19.9693878,10.59 19.9183673,10.59 L19.9183673,10.59 Z"></path>
            </g>
        </g>
    </g>
</svg>