<?xml version="1.0" encoding="UTF-8" standalone="no"?>
<svg width="20px" height="19px" viewBox="0 0 20 19" version="1.1" xmlns="http://www.w3.org/2000/svg" xmlns:xlink="http://www.w3.org/1999/xlink">
    <!-- Generator: Sketch 3.7.2 (28276) - http://www.bohemiancoding.com/sketch -->
    <title>icon-weather-strong-storms</title>
    <desc>Created with Sketch.</desc>
    <defs></defs>
    <g id="weather-icons" stroke="none" stroke-width="1" fill="none" fill-rule="evenodd">
        <g id="strong-t-storms" transform="translate(-1.000000, 0.000000)">
            <g transform="translate(1.000000, 0.000000)" id="Shape">
                <path d="M9,12.1229868 C9,12.0512445 8.92081448,12 8.81900452,12 L8.81900452,12 L8.81900452,12 L5.49321267,12 C5.41402715,12 5.33484163,12.0409956 5.32352941,12.0922401 L4.01131222,15.4846266 C4,15.4948755 4,15.5153734 4,15.5358712 C4,15.6076135 4.07918552,15.658858 4.18099548,15.658858 L4.18099548,15.658858 L5.41402715,15.658858 L4.23755656,18.6925329 L4.23755656,18.6925329 C4.22624434,18.7130307 4.22624434,18.7335286 4.22624434,18.7540264 C4.22624434,18.8872621 4.38461538,19 4.57692308,19 C4.70135747,19 4.81447964,18.9487555 4.88235294,18.8770132 L4.88235294,18.8770132 L8.739819,14.2445095 L8.739819,14.2445095 C8.75113122,14.2240117 8.75113122,14.2137628 8.75113122,14.193265 C8.75113122,14.1215227 8.6719457,14.0702782 8.57013575,14.0702782 L8.57013575,14.0702782 L8.57013575,14.0702782 L7.39366516,14.0702782 L8.96606335,12.1844802 C8.98868778,12.1742313 9,12.1537335 9,12.1229868 L9,12.1229868 Z" fill="#FECE00"></path>
                <path d="M12.5995338,12.1045197 L9.17512723,17.445038 C9.11608574,17.5345439 9.0668845,17.6240498 9.03736375,17.7334459 C8.87991977,18.2704813 9.23416873,18.8274068 9.8344239,18.9666382 C10.4248388,19.1058696 11.0349343,18.7975715 11.2022185,18.2605362 L12.0287994,15.4858535 L12.9931438,12.2437511 C13.0226645,12.134355 12.9537828,12.034904 12.84554,12.0050687 C12.7471375,11.9851785 12.6487351,12.0249589 12.5995338,12.1045197 Z" fill="#2B9CD8"></path>
                <path d="M15.9845935,12.264085 C16.0337792,12.1614542 15.9600007,12.0474198 15.8370366,12.0132095 C15.7263688,11.9789993 15.6034047,12.0132095 15.5542191,12.0930336 L15.5542191,12.0930336 L13.1687149,14.9210847 C13.1195293,14.9781018 13.08264,15.035119 13.0457508,15.1035396 C12.8981938,15.4456425 13.1195293,15.8333592 13.5376073,15.958797 C13.9556854,16.0842347 14.3983562,15.9131832 14.5582096,15.5824837 L14.5582096,15.5824837 L15.9722971,12.2868919 L15.9845935,12.264085 L15.9845935,12.264085 L15.9845935,12.264085 Z" fill="#2B9CD8"></path>
                <path d="M19.8866246,5.84567243 C19.4118453,4.10292511 17.5935415,3.05727672 15.8257462,3.5153703 C15.8257462,3.5153703 15.6944242,3.54524597 15.4721871,3.60499731 C14.9064926,1.53361764 12.9871719,0 10.7041905,0 C8.22927704,0 6.17863445,1.80249865 5.82507538,4.14275934 C5.74426188,4.12284223 5.69375344,4.11288367 5.69375344,4.11288367 C4.19870367,3.73445854 2.66324714,4.61081148 2.26928132,6.08467778 C2.17836614,6.43322724 2.15816276,6.78177671 2.18846782,7.12036761 C1.44094294,7.31953874 0.976265303,7.43904141 0.976265303,7.43904141 C0.269147167,7.62825397 -0.145022027,8.33531146 0.0469100384,9.03241039 C0.208537041,9.63988231 0.784333238,10.028266 1.40053619,9.99839033 L16.5833727,9.99839033 C16.5833727,9.99839033 17.2096774,9.96851466 17.5329314,9.88884621 C19.3007267,9.40087696 20.3614039,7.59837831 19.8866246,5.84567243 L19.8866246,5.84567243 Z" fill="#B9B9B9"></path>
            </g>
        </g>
    </g>
</svg>