<?xml version="1.0" encoding="UTF-8" standalone="no"?>
<svg width="20px" height="13px" viewBox="0 0 20 13" version="1.1" xmlns="http://www.w3.org/2000/svg" xmlns:xlink="http://www.w3.org/1999/xlink">
    <!-- Generator: Sketch 3.7.2 (28276) - http://www.bohemiancoding.com/sketch -->
    <title>icon-weather-mostly-cloudy</title>
    <desc>Created with Sketch.</desc>
    <defs></defs>
    <g id="weather-icons" stroke="none" stroke-width="1" fill="none" fill-rule="evenodd">
        <g id="MostlyCloudyDay">
            <g id="Shape">
                <path d="M4.92462312,7.06 C5.18592965,6.15 5.70854271,5.33 6.4321608,4.7 C6.79396985,4.38 7.20603015,4.13 7.63819095,3.93 C7.16582915,3.34 6.44221106,2.97 5.6281407,2.97 C4.21105528,2.97 3.05527638,4.12 3.05527638,5.53 C3.05527638,6.17 3.29648241,6.76 3.68844221,7.21 C4,7.11 4.32160804,7.05 4.66331658,7.05 C4.75376884,7.05 4.84422111,7.05 4.92462312,7.06 L4.92462312,7.06 Z" fill="#FECE00"></path>
                <path d="M2.79396985,1 L3.66834171,3.11 C3.91959799,2.9 4.21105528,2.74 4.53266332,2.62 L3.13567839,0.81 L3.13567839,0.81 C3.07537688,0.73 2.94472362,0.71 2.86432161,0.78 C2.79396985,0.83 2.77386935,0.92 2.79396985,1 C2.7839196,0.99 2.7839196,1 2.79396985,1 L2.79396985,1 Z" fill="#FECE00"></path>
                <path d="M6.13065327,2.46 L5.83919598,0.2 C5.83919598,0.2 5.83919598,0.2 5.83919598,0.19 C5.81909548,0.09 5.72864322,0.01 5.61809045,0.02 C5.53768844,0.03 5.46733668,0.09 5.44723618,0.17 L5.44723618,0.18 L5.14572864,2.44 C5.30653266,2.41 5.46733668,2.4 5.63819095,2.4 C5.79899497,2.42 5.96984925,2.44 6.13065327,2.46 L6.13065327,2.46 Z" fill="#FECE00"></path>
                <path d="M0.261306533,5.71 L0.271356784,5.71 L2.54271357,6.01 C2.51256281,5.85 2.50251256,5.69 2.50251256,5.52 C2.50251256,5.35 2.51256281,5.18 2.54271357,5.02 L0.271356784,5.32 C0.271356784,5.32 0.271356784,5.32 0.261306533,5.32 C0.16080402,5.34 0.0804020101,5.43 0.100502513,5.54 C0.110552764,5.62 0.170854271,5.69 0.261306533,5.71 L0.261306533,5.71 Z" fill="#FECE00"></path>
                <path d="M8.48241206,1.02 C8.49246231,1.02 8.49246231,1.01 8.48241206,1.02 C8.50251256,0.97 8.50251256,0.92 8.48241206,0.87 C8.46231156,0.82 8.42211055,0.78 8.3718593,0.76 C8.29145729,0.73 8.20100503,0.75 8.15075377,0.81 L8.14070352,0.82 L6.73366834,2.63 C7.04522613,2.75 7.33668342,2.92 7.5879397,3.13 L8.48241206,1.02 L8.48241206,1.02 Z" fill="#FECE00"></path>
                <path d="M0.894472362,3.02 L2.71356784,4.42 C2.83417085,4.11 3.00502513,3.82 3.2160804,3.57 L1.09547739,2.68 C1.09547739,2.68 1.09547739,2.68 1.08542714,2.68 C0.984924623,2.64 0.874371859,2.69 0.834170854,2.79 C0.804020101,2.87 0.824120603,2.96 0.884422111,3.01 C0.894472362,3.01 0.894472362,3.02 0.894472362,3.02 L0.894472362,3.02 Z" fill="#FECE00"></path>
                <path d="M17.6094403,9.04 C17.6094403,9.03 17.5993901,9.01 17.5993901,9 C17.5792896,8.93 17.5491388,8.87 17.5189881,8.8 C17.5089378,8.79 17.5089378,8.78 17.4988876,8.76 C17.4687368,8.69 17.4385861,8.63 17.3983851,8.57 C17.3581841,8.5 17.3179831,8.44 17.277782,8.38 C17.2677318,8.37 17.2677318,8.36 17.2576815,8.35 C17.2174805,8.29 17.1772795,8.24 17.1370785,8.18 C17.1270283,8.17 17.116978,8.16 17.1069278,8.15 C17.0667268,8.1 17.0164755,8.04 16.9662243,7.99 C16.9059228,7.93 16.8657217,7.89 16.8154705,7.84 C16.7451187,7.77 16.6948675,7.73 16.634566,7.69 C16.554164,7.63 16.4938625,7.59 16.4335609,7.55 C16.3531589,7.5 16.3029077,7.47 16.2426062,7.44 C16.1622042,7.4 16.1019027,7.37 16.0416011,7.34 C16.0315509,7.33 16.0215006,7.33 16.0014001,7.32 C15.9410986,7.29 15.8707469,7.27 15.8104454,7.25 C15.7199931,7.22 15.6496413,7.2 15.5893398,7.18 C15.4988876,7.15 15.4385861,7.14 15.3682343,7.13 C15.2576815,7.11 15.1873298,7.1 15.1270283,7.09 C15.0265258,7.08 14.956174,7.08 14.8858223,7.08 C14.8255207,7.08 14.7652192,7.08 14.714968,7.09 C14.6245157,7.09 14.5843147,7.1 14.5441137,7.1 C14.5240132,7.1 14.5039127,7.1 14.4838122,7.11 C14.4436112,7.12 14.4034102,7.12 14.3632092,7.13 C14.3431087,7.13 14.3330584,7.14 14.3129579,7.14 C14.2526564,7.15 14.2024052,7.16 14.1421037,7.18 C14.1421037,7.18 14.0315509,7.21 13.8305459,7.26 C13.3179831,5.45 11.6395911,4.1 9.63959109,4.1 C9.37828456,4.1 9.11697803,4.12 8.875772,4.17 C8.73506848,4.2 8.59436496,4.23 8.45366145,4.27 C8.27275692,4.32 8.10190265,4.38 7.94109863,4.45 C6.59436496,5.03 5.59939009,6.27 5.37828456,7.76 C5.33808356,7.75 5.31798305,7.74 5.29788255,7.74 C5.21748054,7.72 5.17727954,7.71 5.12702828,7.7 C5.05667652,7.68 5.01647552,7.68 4.98632476,7.67 C4.96622426,7.67 4.95617401,7.67 4.93607351,7.66 C4.90592275,7.66 4.86572175,7.65 4.83557099,7.65 L4.65466647,7.65 C4.58431471,7.65 4.52401321,7.65 4.4637117,7.66 C4.37325944,7.67 4.31295793,7.67 4.26270667,7.68 C4.17225441,7.7 4.12200315,7.71 4.06170165,7.73 C3.99134989,7.74 3.93104838,7.76 3.88079712,7.78 C3.80039511,7.81 3.74009361,7.83 3.68984235,7.85 C3.60944034,7.88 3.55918908,7.91 3.50893783,7.93 C3.43858607,7.97 3.39838506,7.99 3.34813381,8.02 C3.27778205,8.06 3.23758104,8.09 3.18732979,8.13 C3.10692778,8.18 3.06672677,8.22 3.02652577,8.26 C2.96622426,8.32 2.92602326,8.36 2.88582225,8.4 C2.83557099,8.45 2.79536999,8.5 2.75516898,8.54 C2.74511873,8.55 2.73506848,8.56 2.73506848,8.57 C2.69486748,8.61 2.66471672,8.66 2.63456597,8.71 C2.62451572,8.72 2.62451572,8.73 2.61446547,8.74 C2.58431471,8.79 2.55416396,8.84 2.52401321,8.89 C2.4838122,8.95 2.45366145,9.01 2.43356094,9.06 C2.43356094,9.07 2.42351069,9.08 2.42351069,9.09 C2.40341019,9.14 2.37325944,9.2 2.35315893,9.26 C2.35315893,9.27 2.34310868,9.28 2.34310868,9.29 C2.32300818,9.35 2.30290768,9.41 2.28280717,9.47 C2.26270667,9.55 2.24260617,9.62 2.23255592,9.7 C2.22250567,9.78 2.21245542,9.85 2.20240516,9.93 C2.19235491,10.08 2.19235491,10.23 2.21245542,10.38 C1.55918908,10.56 1.15717903,10.66 1.15717903,10.66 C0.544113708,10.82 0.172254411,11.45 0.343108683,12.06 C0.353158934,12.09 0.363209185,12.12 0.373259436,12.16 C0.373259436,12.17 0.383309688,12.18 0.383309688,12.19 C0.393359939,12.21 0.40341019,12.23 0.413460441,12.25 C0.423510693,12.26 0.423510693,12.27 0.433560944,12.29 C0.443611195,12.31 0.453661446,12.32 0.463711698,12.34 C0.473761949,12.35 0.473761949,12.36 0.4838122,12.38 C0.493862451,12.4 0.503912703,12.41 0.513962954,12.43 C0.524013205,12.44 0.534063456,12.45 0.544113708,12.46 C0.554163959,12.47 0.56421421,12.49 0.574264461,12.5 C0.584314713,12.51 0.594364964,12.52 0.604415215,12.53 C0.614465466,12.54 0.624515718,12.56 0.64461622,12.57 C0.654666471,12.58 0.664716723,12.59 0.674766974,12.6 C0.684817225,12.61 0.694867476,12.62 0.714967979,12.63 C0.72501823,12.64 0.735068482,12.65 0.745118733,12.66 C0.755168984,12.67 0.775269487,12.68 0.785319738,12.69 C0.795369989,12.7 0.80542024,12.71 0.825520743,12.72 C0.835570994,12.73 0.855671497,12.74 0.865721748,12.75 C0.875771999,12.76 0.895872502,12.76 0.905922753,12.77 C0.915973004,12.78 0.936073507,12.79 0.946123758,12.79 C0.956174009,12.8 0.976274512,12.8 0.986324763,12.81 C1.00642527,12.82 1.01647552,12.82 1.03657602,12.83 C1.04662627,12.84 1.06672677,12.84 1.07677702,12.85 C1.09687753,12.86 1.10692778,12.86 1.12702828,12.87 C1.18732979,12.88 1.19738004,12.89 1.21748054,12.89 C1.27778205,12.9 1.2878323,12.91 1.3079328,12.91 C1.36823431,12.92 1.37828456,12.92 1.39838506,12.92 L1.52903833,12.92 L14.8054202,12.92 C14.8054202,12.92 15.3581841,12.89 15.6295408,12.82 C17.1672293,12.4 18.0918524,10.81 17.6797921,9.26 C17.6596916,9.19 17.6395911,9.12 17.6094403,9.04 Z" fill="#B9B9B9"></path>
                <path d="M3.16582915,7.43 C2.97487437,7.19 2.81407035,6.92 2.70351759,6.62 L0.884422111,8.01 C0.884422111,8.01 0.884422111,8.01 0.874371859,8.01 C0.834170854,8.04 0.814070352,8.09 0.804020101,8.14 C0.793969849,8.19 0.814070352,8.24 0.844221106,8.29 C0.894472362,8.36 0.984924623,8.38 1.06532663,8.36 L1.07537688,8.36 L2.88442211,7.62 L3.20603015,7.49 C3.1959799,7.47 3.18592965,7.45 3.16582915,7.43 L3.16582915,7.43 Z" fill="#FECE00"></path>
                <path d="M19.9396985,7.32 C19.6984925,6.44 18.8040201,5.92 17.919598,6.15 C17.919598,6.15 17.8592965,6.17 17.7386935,6.2 C17.4572864,5.16 16.5025126,4.39 15.3668342,4.39 C14.6130653,4.39 13.9497487,4.73 13.4974874,5.26 C13.8190955,5.63 14.080402,6.05 14.2914573,6.5 C14.4522613,6.48 14.6231156,6.47 14.7939698,6.47 C16.4924623,6.47 17.9899497,7.61 18.4321608,9.25 C18.4422111,9.3 18.4522613,9.35 18.4623116,9.4 C18.5628141,9.39 18.6834171,9.38 18.7638191,9.36 C19.6582915,9.1 20.1809045,8.2 19.9396985,7.32 L19.9396985,7.32 Z" fill="#B9B9B9"></path>
            </g>
        </g>
    </g>
</svg>