<?xml version="1.0" encoding="UTF-8" standalone="no"?>
<svg width="19px" height="20px" viewBox="0 0 19 20" version="1.1" xmlns="http://www.w3.org/2000/svg" xmlns:xlink="http://www.w3.org/1999/xlink">
    <!-- Generator: Sketch 3.7.2 (28276) - http://www.bohemiancoding.com/sketch -->
    <title>icon-weather-scattered-snow-showers-night</title>
    <desc>Created with Sketch.</desc>
    <defs></defs>
    <g id="weather-icons" stroke="none" stroke-width="1" fill="none" fill-rule="evenodd">
        <g id="ScatteredSnowShowersNight">
            <g id="Shape">
                <path d="M18.7840909,7.74603175 C18.3414773,6.11640212 16.6357955,5.14285714 14.9732955,5.56613757 C14.9732955,5.56613757 14.8545455,5.5978836 14.6386364,5.65079365 C14.1096591,3.71428571 12.3068182,2.28571429 10.1585227,2.28571429 C8.47443182,2.28571429 6.99545455,3.16402116 6.18579545,4.48677249 C6.30454545,4.87830688 6.46647727,5.25925926 6.68238636,5.62962963 C7.55681818,7.11111111 9.06818182,8.06349206 10.5255682,8.06349206 C10.7846591,8.06349206 11.0329545,8.03174603 11.28125,7.96825397 C11.3352273,7.95767196 11.3892045,7.94708995 11.4431818,7.94708995 C11.6806818,7.94708995 11.8965909,8.07407407 12.0153409,8.27513228 C12.1556818,8.52910053 12.1017045,8.84656085 11.8857955,9.04761905 C11.5619318,9.34391534 11.2056818,9.5978836 10.8278409,9.82010582 C9.95340909,10.3174603 8.94943182,10.5820106 7.94545455,10.5820106 C5.88352273,10.5820106 3.96193182,9.49206349 2.93636364,7.74603175 C2.81761364,7.54497354 2.72045455,7.34391534 2.62329545,7.13227513 C2.45056818,7.37566138 2.31022727,7.65079365 2.22386364,7.95767196 C2.1375,8.28571429 2.11590909,8.61375661 2.14829545,8.92063492 C1.44659091,9.11111111 1.01477273,9.21693122 1.01477273,9.21693122 C0.35625,9.38624339 -0.0431818182,10.0529101 0.140340909,10.6984127 C0.291477273,11.2698413 0.842045455,11.6296296 1.41420455,11.5978836 L15.675,11.5978836 C15.675,11.5978836 16.26875,11.5661376 16.5602273,11.4920635 C18.2443182,11.0687831 19.2375,9.38624339 18.7840909,7.74603175 L18.7840909,7.74603175 Z" fill="#B9B9B9"></path>
                <path d="M11.4431818,8.59259259 C11.3784091,8.61375661 11.3028409,8.62433862 11.2380682,8.63492063 C11.2164773,8.63492063 11.1948864,8.64550265 11.1732955,8.64550265 C11.1301136,8.65608466 11.0761364,8.65608466 11.0221591,8.66666667 C11.0005682,8.66666667 10.9789773,8.67724868 10.9465909,8.67724868 C10.8926136,8.68783069 10.8494318,8.68783069 10.7954545,8.68783069 L10.7414773,8.68783069 C10.6767045,8.68783069 10.6011364,8.6984127 10.5363636,8.6984127 L10.5363636,8.6984127 L10.5255682,8.6984127 C10.4392045,8.6984127 10.3528409,8.6984127 10.2556818,8.68783069 L10.2125,8.68783069 C10.1261364,8.67724868 10.0289773,8.66666667 9.94261364,8.65608466 C9.92102273,8.65608466 9.91022727,8.64550265 9.88863636,8.64550265 C9.80227273,8.63492063 9.70511364,8.61375661 9.61875,8.59259259 C9.60795455,8.59259259 9.59715909,8.59259259 9.58636364,8.58201058 C9.5,8.56084656 9.41363636,8.53968254 9.32727273,8.51851852 C9.31647727,8.51851852 9.29488636,8.50793651 9.28409091,8.50793651 C9.19772727,8.47619048 9.11136364,8.45502646 9.01420455,8.42328042 C8.99261364,8.41269841 8.98181818,8.41269841 8.96022727,8.4021164 C8.87386364,8.37037037 8.7875,8.32804233 8.70113636,8.2962963 C8.69034091,8.28571429 8.67954545,8.28571429 8.66875,8.27513228 C8.58238636,8.23280423 8.50681818,8.2010582 8.42045455,8.14814815 C8.40965909,8.13756614 8.39886364,8.13756614 8.38806818,8.12698413 C8.30170455,8.08465608 8.21534091,8.03174603 8.12897727,7.97883598 C8.10738636,7.96825397 8.09659091,7.95767196 8.075,7.94708995 C7.98863636,7.89417989 7.91306818,7.84126984 7.82670455,7.78835979 C7.81590909,7.77777778 7.80511364,7.76719577 7.78352273,7.75661376 C7.70795455,7.7037037 7.63238636,7.64021164 7.54602273,7.57671958 C7.53522727,7.56613757 7.53522727,7.56613757 7.52443182,7.55555556 C7.44886364,7.49206349 7.3625,7.42857143 7.28693182,7.35449735 C7.27613636,7.34391534 7.25454545,7.32275132 7.24375,7.31216931 C7.16818182,7.24867725 7.09261364,7.17460317 7.02784091,7.1005291 C7.01704545,7.08994709 7.00625,7.07936508 6.99545455,7.05820106 C6.91988636,6.98412698 6.85511364,6.91005291 6.77954545,6.82539683 L6.76875,6.81481481 C6.69318182,6.73015873 6.62840909,6.64550265 6.56363636,6.56084656 C6.55284091,6.53968254 6.54204545,6.52910053 6.52045455,6.50793651 C6.45568182,6.42328042 6.39090909,6.33862434 6.33693182,6.24338624 C6.32613636,6.22222222 6.31534091,6.21164021 6.30454545,6.19047619 C6.23977273,6.0952381 6.18579545,6 6.12102273,5.9047619 C5.99147727,5.69312169 5.88352273,5.47089947 5.78636364,5.25925926 C4.95511364,3.35449735 5.225,1.29100529 6.43409091,0.0740740741 C6.06704545,0.17989418 5.71079545,0.338624339 5.36534091,0.529100529 C3.18465909,1.7989418 2.28863636,4.38095238 3.11988636,6.62433862 C3.21704545,6.8994709 3.34659091,7.16402116 3.49772727,7.42857143 C3.55170455,7.52380952 3.60568182,7.60846561 3.67045455,7.69312169 C3.69204545,7.71428571 3.70284091,7.74603175 3.72443182,7.76719577 C3.76761364,7.83068783 3.81079545,7.89417989 3.86477273,7.95767196 C3.88636364,7.97883598 3.89715909,8 3.91875,8.03174603 C3.98352273,8.11640212 4.04829545,8.19047619 4.11306818,8.26455026 L4.12386364,8.27513228 C4.18863636,8.34920635 4.25340909,8.41269841 4.32897727,8.48677249 C4.35056818,8.50793651 4.37215909,8.52910053 4.39375,8.55026455 C4.44772727,8.6031746 4.50170455,8.65608466 4.56647727,8.6984127 C4.58806818,8.71957672 4.60965909,8.73015873 4.63125,8.75132275 C4.70681818,8.81481481 4.78238636,8.87830688 4.86875,8.94179894 C4.87954545,8.94179894 4.87954545,8.95238095 4.89034091,8.95238095 C4.96590909,9.00529101 5.04147727,9.05820106 5.11704545,9.11111111 C5.13863636,9.12169312 5.17102273,9.14285714 5.19261364,9.15343915 C5.25738636,9.1957672 5.32215909,9.22751323 5.38693182,9.26984127 C5.40852273,9.28042328 5.43011364,9.29100529 5.45170455,9.31216931 C5.53806818,9.36507937 5.62443182,9.40740741 5.72159091,9.44973545 C5.73238636,9.46031746 5.74318182,9.46031746 5.75397727,9.46031746 C5.82954545,9.49206349 5.91590909,9.53439153 5.99147727,9.56613757 C6.02386364,9.57671958 6.04545455,9.58730159 6.07784091,9.5978836 C6.15340909,9.62962963 6.21818182,9.65079365 6.29375,9.67195767 C6.31534091,9.68253968 6.33693182,9.69312169 6.36931818,9.69312169 C6.46647727,9.72486772 6.56363636,9.74603175 6.65,9.77777778 C6.66079545,9.77777778 6.68238636,9.78835979 6.69318182,9.78835979 C6.77954545,9.80952381 6.85511364,9.83068783 6.94147727,9.84126984 C6.97386364,9.85185185 6.99545455,9.85185185 7.02784091,9.86243386 C7.10340909,9.87301587 7.17897727,9.88359788 7.25454545,9.89417989 C7.27613636,9.89417989 7.30852273,9.9047619 7.33011364,9.9047619 C7.42727273,9.91534392 7.52443182,9.92592593 7.62159091,9.93650794 L7.67556818,9.93650794 C7.75113636,9.93650794 7.8375,9.94708995 7.92386364,9.94708995 L8.02102273,9.94708995 C8.09659091,9.94708995 8.17215909,9.94708995 8.23693182,9.93650794 L8.3125,9.93650794 C8.40965909,9.92592593 8.50681818,9.92592593 8.60397727,9.9047619 C8.62556818,9.9047619 8.63636364,9.89417989 8.65795455,9.89417989 C8.73352273,9.88359788 8.81988636,9.87301587 8.89545455,9.85185185 C8.92784091,9.84126984 8.96022727,9.84126984 8.99261364,9.83068783 C9.06818182,9.82010582 9.13295455,9.7989418 9.20852273,9.77777778 C9.24090909,9.76719577 9.2625,9.76719577 9.29488636,9.75661376 C9.39204545,9.73544974 9.48920455,9.7037037 9.58636364,9.67195767 C9.59715909,9.67195767 9.60795455,9.66137566 9.61875,9.66137566 C9.70511364,9.62962963 9.79147727,9.5978836 9.86704545,9.56613757 C9.89943182,9.55555556 9.92102273,9.54497354 9.95340909,9.53439153 C10.0181818,9.5026455 10.09375,9.47089947 10.1585227,9.43915344 C10.1909091,9.42857143 10.2125,9.41798942 10.2448864,9.3968254 C10.3420455,9.35449735 10.4284091,9.3015873 10.5255682,9.24867725 C10.6982955,9.15343915 10.8602273,9.04761905 11.0221591,8.93121693 C11.1517045,8.83597884 11.3028409,8.71957672 11.4431818,8.59259259 L11.4431818,8.59259259 L11.4431818,8.59259259 Z" fill="#D1D1D1"></path>
                <path d="M7.02784091,15.0687831 L7.00625,15.0687831 L6.35852273,15.2380952 L5.78636364,14.9100529 L6.35852273,14.5925926 L7.00625,14.7619048 C7.04943182,14.7724868 7.09261364,14.7513228 7.10340909,14.7089947 C7.11420455,14.6772487 7.09261364,14.6455026 7.07102273,14.6243386 L7.07102273,14.6243386 L6.67159091,14.4021164 L7.03863636,14.1269841 L7.03863636,14.1269841 C7.07102273,14.1058201 7.07102273,14.0740741 7.06022727,14.042328 C7.04943182,14.010582 7.01704545,14 6.98465909,14 C6.97386364,14 6.96306818,14 6.95227273,14.010582 L6.53125,14.1798942 L6.53125,13.7354497 C6.53125,13.7037037 6.50965909,13.6613757 6.47727273,13.6613757 C6.43409091,13.6507937 6.39090909,13.6719577 6.38011364,13.7142857 L6.20738636,14.3492063 L5.63522727,14.6772487 L5.63522727,14.031746 L6.11022727,13.5661376 C6.12102273,13.5555556 6.13181818,13.5343915 6.13181818,13.5132275 C6.13181818,13.4920635 6.12102273,13.4708995 6.11022727,13.4603175 C6.08863636,13.4391534 6.04545455,13.4285714 6.01306818,13.4497354 L6.01306818,13.4497354 L5.61363636,13.6719577 L5.54886364,13.2169312 C5.53806818,13.1851852 5.51647727,13.1534392 5.47329545,13.1534392 L5.4625,13.1534392 C5.43011364,13.1534392 5.39772727,13.1851852 5.39772727,13.2169312 L5.39772727,13.2169312 L5.34375,13.6613757 L4.94431818,13.4391534 L4.94431818,13.4391534 C4.91193182,13.4285714 4.87954545,13.4285714 4.84715909,13.4497354 C4.81477273,13.4814815 4.81477273,13.5238095 4.84715909,13.5555556 L5.32215909,14.021164 L5.32215909,14.6666667 L4.75,14.3386243 L4.57727273,13.7037037 C4.56647727,13.6613757 4.52329545,13.6402116 4.48011364,13.6507937 C4.44772727,13.6613757 4.42613636,13.6931217 4.42613636,13.7248677 L4.42613636,13.7248677 L4.42613636,14.1798942 L4.00511364,14.010582 C3.97272727,14 3.91875,14.010582 3.90795455,14.0529101 C3.89715909,14.0846561 3.90795455,14.1164021 3.92954545,14.1375661 L3.92954545,14.1375661 L4.29659091,14.4126984 L3.89715909,14.6349206 L3.89715909,14.6349206 C3.86477273,14.6560847 3.85397727,14.6878307 3.86477273,14.7195767 C3.87556818,14.7513228 3.90795455,14.7724868 3.94034091,14.7724868 L3.96193182,14.7724868 L4.60965909,14.6031746 L5.18181818,14.9206349 L4.62045455,15.2486772 L3.97272727,15.0793651 C3.92954545,15.0687831 3.88636364,15.0899471 3.87556818,15.1322751 C3.86477273,15.1640212 3.88636364,15.1957672 3.90795455,15.2169312 L3.90795455,15.2169312 L4.30738636,15.4391534 L3.94034091,15.7142857 L3.94034091,15.7142857 C3.90795455,15.7354497 3.90795455,15.7671958 3.91875,15.7989418 C3.92954545,15.8306878 3.96193182,15.8412698 3.99431818,15.8412698 C4.00511364,15.8412698 4.01590909,15.8412698 4.02670455,15.8306878 L4.44772727,15.6613757 L4.44772727,16.1164021 L4.44772727,16.1164021 C4.44772727,16.1481481 4.46931818,16.1798942 4.50170455,16.1904762 C4.54488636,16.2010582 4.58806818,16.1798942 4.59886364,16.1375661 L4.77159091,15.5026455 L5.34375,15.1851852 L5.34375,15.8306878 L4.86875,16.2962963 C4.85795455,16.3068783 4.84715909,16.3280423 4.84715909,16.3492063 C4.84715909,16.3703704 4.85795455,16.3915344 4.86875,16.4021164 C4.89034091,16.4232804 4.93352273,16.4338624 4.96590909,16.4126984 L4.96590909,16.4126984 L5.36534091,16.1904762 L5.43011364,16.6455026 C5.44090909,16.6772487 5.4625,16.7089947 5.50568182,16.7089947 L5.51647727,16.7089947 C5.54886364,16.6984127 5.58125,16.6772487 5.58125,16.6455026 L5.58125,16.6455026 L5.63522727,16.2010582 L6.03465909,16.4232804 L6.03465909,16.4232804 C6.06704545,16.4338624 6.09943182,16.4338624 6.13181818,16.4126984 C6.16420455,16.3809524 6.16420455,16.3386243 6.13181818,16.3068783 L5.65681818,15.8412698 L5.65681818,15.1957672 L6.22897727,15.5132275 L6.40170455,16.1481481 C6.4125,16.1904762 6.45568182,16.2116402 6.49886364,16.2010582 C6.53125,16.1904762 6.55284091,16.1587302 6.55284091,16.1269841 L6.55284091,16.1269841 L6.55284091,15.6613757 L6.98465909,15.8306878 C6.99545455,15.8306878 7.00625,15.8412698 7.01704545,15.8412698 C7.04943182,15.8412698 7.07102273,15.8201058 7.09261364,15.7989418 C7.10340909,15.7671958 7.09261364,15.7354497 7.07102273,15.7142857 L7.07102273,15.7142857 L6.70397727,15.4391534 L7.10340909,15.2169312 L7.10340909,15.2169312 C7.13579545,15.2063492 7.14659091,15.1640212 7.13579545,15.1322751 C7.09261364,15.0899471 7.06022727,15.0687831 7.02784091,15.0687831 L7.02784091,15.0687831 Z" fill="#B9B9B9"></path>
                <path d="M14.9948864,16.984127 C14.9840909,16.984127 14.9732955,16.984127 14.9517045,16.994709 L13.7642045,17.3015873 L12.7170455,16.7089947 L13.7642045,16.1164021 L14.9625,16.4338624 C15.0380682,16.4550265 15.1136364,16.4021164 15.1352273,16.3386243 C15.1568182,16.2751323 15.1244318,16.2116402 15.0704545,16.1798942 C15.0704545,16.1798942 15.0704545,16.1798942 15.0596591,16.1798942 L14.3255682,15.7671958 L14.9948864,15.2698413 L14.9948864,15.2698413 C15.0488636,15.2275132 15.0596591,15.1640212 15.0380682,15.1111111 C15.0164773,15.0582011 14.9625,15.026455 14.9085227,15.026455 C14.8869318,15.026455 14.8761364,15.037037 14.8545455,15.037037 L14.0772727,15.3544974 L14.0772727,14.5291005 C14.0880682,14.4656085 14.0340909,14.4021164 13.9801136,14.3809524 C13.9045455,14.3597884 13.8289773,14.4021164 13.8073864,14.4761905 L13.4943182,15.6402116 L12.4471591,16.2328042 L12.4471591,15.047619 L13.3215909,14.1904762 C13.3539773,14.1587302 13.3647727,14.1269841 13.3647727,14.0952381 C13.3647727,14.0529101 13.3431818,14.021164 13.3215909,14 C13.2784091,13.957672 13.2028409,13.9470899 13.1488636,13.978836 C13.1488636,13.978836 13.1488636,13.978836 13.1380682,13.978836 L12.4039773,14.3915344 L12.2960227,13.5661376 C12.2852273,13.5026455 12.23125,13.4497354 12.1556818,13.4497354 L12.1340909,13.4497354 C12.0693182,13.4603175 12.0261364,13.5026455 12.0153409,13.5661376 C12.0153409,13.5661376 12.0153409,13.5661376 12.0153409,13.5767196 L11.9073864,14.3915344 L11.1732955,13.978836 C11.1732955,13.978836 11.1732955,13.978836 11.1625,13.978836 C11.1085227,13.9470899 11.0329545,13.957672 10.9897727,14 C10.9357955,14.0529101 10.9357955,14.1375661 11.0005682,14.1904762 L11.875,15.047619 L11.875,16.2328042 L10.8278409,15.6402116 L10.5039773,14.4656085 C10.4823864,14.3915344 10.4068182,14.3492063 10.33125,14.3703704 C10.2664773,14.3915344 10.2340909,14.4444444 10.2340909,14.5079365 L10.2340909,14.5185185 L10.2340909,15.3439153 L9.45681818,15.026455 C9.39204545,14.994709 9.30568182,15.037037 9.27329545,15.1005291 C9.25170455,15.1534392 9.2625,15.2275132 9.31647727,15.2592593 L9.32727273,15.2592593 L9.99659091,15.7566138 L9.2625,16.1693122 C9.2625,16.1693122 9.2625,16.1693122 9.25170455,16.1693122 C9.19772727,16.2010582 9.16534091,16.2645503 9.18693182,16.3280423 C9.20852273,16.3915344 9.2625,16.4232804 9.32727273,16.4232804 C9.33806818,16.4232804 9.34886364,16.4232804 9.37045455,16.4126984 L10.5579545,16.1058201 L11.6051136,16.6984127 L10.5795455,17.2910053 L9.38125,16.973545 C9.30568182,16.952381 9.23011364,17.005291 9.20852273,17.0687831 C9.18693182,17.1322751 9.21931818,17.1957672 9.27329545,17.2275132 L9.28409091,17.2275132 L10.0181818,17.6402116 L9.34886364,18.1375661 C9.34886364,18.1375661 9.34886364,18.1375661 9.33806818,18.1375661 C9.28409091,18.1798942 9.27329545,18.2433862 9.29488636,18.2962963 C9.31647727,18.3492063 9.37045455,18.3809524 9.42443182,18.3809524 C9.44602273,18.3809524 9.45681818,18.3703704 9.47840909,18.3703704 L10.2556818,18.0529101 L10.2556818,18.8783069 L10.2556818,18.8783069 C10.2556818,18.9417989 10.2988636,18.994709 10.3528409,19.015873 C10.4284091,19.037037 10.5039773,18.994709 10.5255682,18.9206349 L10.8386364,17.7566138 L11.8857955,17.1640212 L11.8857955,18.3492063 L11.0113636,19.2063492 C10.9789773,19.2380952 10.9681818,19.2698413 10.9681818,19.3015873 C10.9681818,19.3333333 10.9897727,19.3756614 11.0113636,19.3968254 C11.0545455,19.4391534 11.1301136,19.4497354 11.1840909,19.4179894 L11.1840909,19.4179894 L11.9181818,19.005291 L12.0261364,19.8306878 C12.0369318,19.8941799 12.0909091,19.9470899 12.1664773,19.9470899 L12.1880682,19.9470899 C12.2528409,19.9365079 12.2960227,19.8941799 12.3068182,19.8306878 C12.3068182,19.8306878 12.3068182,19.8306878 12.3068182,19.8201058 L12.4147727,19.005291 L13.1488636,19.4179894 L13.1596591,19.4179894 C13.2136364,19.4497354 13.2892045,19.4391534 13.3323864,19.3968254 C13.3863636,19.3439153 13.3863636,19.2592593 13.3215909,19.1957672 L12.4471591,18.3386243 L12.4471591,17.1534392 L13.4943182,17.7460317 L13.8181818,18.9206349 C13.8397727,18.994709 13.9153409,19.037037 13.9909091,19.015873 C14.0556818,18.994709 14.0880682,18.9417989 14.0880682,18.8783069 L14.0880682,18.8783069 L14.0880682,18.0529101 L14.8761364,18.3703704 C14.8977273,18.3809524 14.9085227,18.3809524 14.9301136,18.3809524 C14.9840909,18.3809524 15.0380682,18.3492063 15.0596591,18.2962963 C15.08125,18.2433862 15.0704545,18.1693122 15.0164773,18.1375661 C15.0164773,18.1375661 15.0164773,18.1375661 15.0056818,18.1375661 L14.3363636,17.6402116 L15.0704545,17.2275132 L15.0704545,17.2275132 C15.1244318,17.1957672 15.1568182,17.1322751 15.1352273,17.0687831 C15.1136364,17.026455 15.0596591,16.984127 14.9948864,16.984127 L14.9948864,16.984127 Z" fill="#B9B9B9"></path>
            </g>
        </g>
    </g>
</svg>