<?xml version="1.0" encoding="UTF-8" standalone="no"?>
<svg width="23px" height="16px" viewBox="0 0 23 16" version="1.1" xmlns="http://www.w3.org/2000/svg" xmlns:xlink="http://www.w3.org/1999/xlink" xmlns:sketch="http://www.bohemiancoding.com/sketch/ns">
    <!-- Generator: Sketch 3.4.4 (17249) - http://www.bohemiancoding.com/sketch -->
    <title>email</title>
    <desc>Created with Sketch.</desc>
    <defs></defs>
    <g id="Conversation-Summary" stroke="none" stroke-width="1" fill="none" fill-rule="evenodd" sketch:type="MSPage">
        <g id="04_CS_step2" sketch:type="MSArtboardGroup" transform="translate(-441.000000, -485.000000)" fill="#2B9CD8">
            <path d="M463,485 L442,485 C441.447,485 441,485.448 441,486 L441,500 C441,500.553 441.447,501 442,501 L463,501 C463.553,501 464,500.553 464,500 L464,486 C464,485.448 463.553,485 463,485 L463,485 Z M463,486.038 L452.531,495.008 L442.019,486 L463,486 L463,486.038 L463,486.038 Z M442,500 L442,487.301 L452.206,496.046 C452.299,496.126 452.415,496.166 452.531,496.166 C452.647,496.166 452.763,496.126 452.856,496.046 L463,487.354 L463,500 L442,500 L442,500 Z" id="email" sketch:type="MSShapeGroup"></path>
        </g>
    </g>
</svg>