<?xml version="1.0" encoding="UTF-8" standalone="no"?>
<svg width="19px" height="20px" viewBox="0 0 19 20" version="1.1" xmlns="http://www.w3.org/2000/svg" xmlns:xlink="http://www.w3.org/1999/xlink">
    <!-- Generator: Sketch 3.7.2 (28276) - http://www.bohemiancoding.com/sketch -->
    <title>icon-weather-scattered-thunder-storms-night</title>
    <desc>Created with Sketch.</desc>
    <defs></defs>
    <g id="weather-icons" stroke="none" stroke-width="1" fill="none" fill-rule="evenodd">
        <g id="ScatteredTStroms_Night">
            <g id="Shape">
                <path d="M18.7952268,7.89130435 C18.350084,6.2173913 16.6346554,5.2173913 14.9626554,5.65217391 C14.9626554,5.65217391 14.8432268,5.68478261 14.626084,5.73913043 C14.094084,3.75 12.2809411,2.2826087 10.1203697,2.2826087 C8.42665541,2.2826087 6.93922684,3.18478261 6.12494112,4.54347826 C6.24436969,4.94565217 6.40722684,5.33695652 6.62436969,5.7173913 C7.50379827,7.23913043 9.02379827,8.2173913 10.4895126,8.2173913 C10.750084,8.2173913 10.9997983,8.18478261 11.2495126,8.11956522 C11.3037983,8.10869565 11.358084,8.09782609 11.4123697,8.09782609 C11.6512268,8.09782609 11.8683697,8.22826087 11.9877983,8.43478261 C12.1289411,8.69565217 12.0746554,9.02173913 11.8575126,9.22826087 C11.5317983,9.5326087 11.1735126,9.79347826 10.7935126,10.0217391 C9.91408398,10.5326087 8.90436969,10.8043478 7.89465541,10.8043478 C5.82094112,10.8043478 3.88836969,9.68478261 2.85694112,7.89130435 C2.73751255,7.68478261 2.63979827,7.47826087 2.54208398,7.26086957 C2.36836969,7.51086957 2.22722684,7.79347826 2.14036969,8.10869565 C2.05351255,8.44565217 2.03179827,8.7826087 2.06436969,9.09782609 C1.35865541,9.29347826 0.924369694,9.40217391 0.924369694,9.40217391 C0.26208398,9.57608696 -0.139630306,10.2608696 0.0449411225,10.923913 C0.196941122,11.5108696 0.750655408,11.8804348 1.32608398,11.8478261 L15.6683697,11.8478261 C15.6683697,11.8478261 16.2655126,11.8152174 16.5586554,11.7391304 C18.2523697,11.3043478 19.2512268,9.57608696 18.7952268,7.89130435 L18.7952268,7.89130435 Z" fill="#B9B9B9"></path>
                <path d="M8.24057143,13.5652174 C8.24057143,13.5108696 8.18628571,13.4782609 8.132,13.4782609 L8.132,13.4782609 L8.132,13.4782609 L6.03657143,13.4782609 C5.98228571,13.4782609 5.94971429,13.5108696 5.928,13.5326087 L5.10285714,15.8804348 L5.10285714,15.9130435 C5.10285714,15.9673913 5.15714286,16 5.21142857,16 L5.21142857,16 L6.004,16 L5.26571429,18.1086957 L5.26571429,18.1086957 L5.26571429,18.1413043 C5.26571429,18.2282609 5.35257143,18.3043478 5.48285714,18.3043478 C5.55885714,18.3043478 5.63485714,18.2717391 5.66742857,18.2173913 L5.66742857,18.2173913 L8.08857143,15 L8.08857143,15 L8.08857143,14.9673913 C8.08857143,14.9130435 8.03428571,14.8804348 7.98,14.8804348 L7.98,14.8804348 L7.98,14.8804348 L7.24171429,14.8804348 L8.22971429,13.576087 L8.24057143,13.5652174 L8.24057143,13.5652174 Z" fill="#FECE00"></path>
                <path d="M10.01811,16.3386781 C10.0615386,16.240852 9.99639576,16.1321563 9.88782433,16.0995476 C9.79011005,16.066939 9.68153862,16.0995476 9.63811005,16.1756346 L9.63811005,16.1756346 L7.53182433,18.8712868 C7.48839576,18.9256346 7.45582433,18.9799824 7.42325291,19.0451998 C7.29296719,19.3712868 7.48839576,19.740852 7.85753862,19.8604172 C8.22668148,19.9799824 8.61753862,19.816939 8.75868148,19.5017216 L8.75868148,19.5017216 L10.0072529,16.3604172 L10.01811,16.3386781 L10.01811,16.3386781 L10.01811,16.3386781 Z" fill="#2B9CD8"></path>
                <path d="M13.7095386,13.7299824 C13.7529672,13.6321563 13.6878243,13.5234607 13.5792529,13.490852 C13.4815386,13.4582433 13.3729672,13.490852 13.3295386,13.566939 L13.3295386,13.566939 L11.2232529,16.2625911 C11.1798243,16.316939 11.1472529,16.3712868 11.1146815,16.4365042 C10.9843958,16.7625911 11.1798243,17.1321563 11.5489672,17.2517216 C11.91811,17.3712868 12.3089672,17.2082433 12.45011,16.8930259 L12.45011,16.8930259 L13.6986815,13.7517216 L13.7095386,13.7299824 L13.7095386,13.7299824 L13.7095386,13.7299824 Z" fill="#2B9CD8"></path>
                <path d="M11.3933943,8.75 C11.3282515,8.77173913 11.2522515,8.7826087 11.1871086,8.79347826 C11.1653943,8.79347826 11.14368,8.80434783 11.1219658,8.80434783 C11.0785372,8.81521739 11.0242515,8.81521739 10.9699658,8.82608696 C10.9482515,8.82608696 10.9265372,8.83695652 10.8939658,8.83695652 C10.83968,8.84782609 10.7962515,8.84782609 10.7419658,8.84782609 L10.68768,8.84782609 C10.6225372,8.84782609 10.5465372,8.85869565 10.4813943,8.85869565 L10.4813943,8.85869565 L10.4705372,8.85869565 C10.38368,8.85869565 10.2968229,8.85869565 10.1991086,8.84782609 L10.15568,8.84782609 C10.0688229,8.83695652 9.97110862,8.82608696 9.88425148,8.81521739 C9.86253719,8.81521739 9.85168005,8.80434783 9.82996576,8.80434783 C9.74310862,8.79347826 9.64539434,8.77173913 9.55853719,8.75 C9.54768005,8.75 9.53682291,8.75 9.52596576,8.73913043 C9.43910862,8.7173913 9.35225148,8.69565217 9.26539434,8.67391304 C9.25453719,8.67391304 9.23282291,8.66304348 9.22196576,8.66304348 C9.13510862,8.63043478 9.04825148,8.60869565 8.95053719,8.57608696 C8.92882291,8.56521739 8.91796576,8.56521739 8.89625148,8.55434783 C8.80939434,8.52173913 8.72253719,8.47826087 8.63568005,8.44565217 C8.62482291,8.43478261 8.61396576,8.43478261 8.60310862,8.42391304 C8.51625148,8.38043478 8.44025148,8.34782609 8.35339434,8.29347826 C8.34253719,8.2826087 8.33168005,8.2826087 8.32082291,8.27173913 C8.23396576,8.22826087 8.14710862,8.17391304 8.06025148,8.11956522 C8.03853719,8.10869565 8.02768005,8.09782609 8.00596576,8.08695652 C7.91910862,8.0326087 7.84310862,7.97826087 7.75625148,7.92391304 C7.74539434,7.91304348 7.73453719,7.90217391 7.71282291,7.89130435 C7.63682291,7.83695652 7.56082291,7.77173913 7.47396576,7.70652174 C7.46310862,7.69565217 7.46310862,7.69565217 7.45225148,7.68478261 C7.37625148,7.61956522 7.28939434,7.55434783 7.21339434,7.47826087 C7.20253719,7.4673913 7.18082291,7.44565217 7.16996576,7.43478261 C7.09396576,7.36956522 7.01796576,7.29347826 6.95282291,7.2173913 C6.94196576,7.20652174 6.93110862,7.19565217 6.92025148,7.17391304 C6.84425148,7.09782609 6.77910862,7.02173913 6.70310862,6.93478261 L6.69225148,6.92391304 C6.61625148,6.83695652 6.55110862,6.75 6.48596576,6.66304348 C6.47510862,6.64130435 6.46425148,6.63043478 6.44253719,6.60869565 C6.37739434,6.52173913 6.31225148,6.43478261 6.25796576,6.33695652 C6.24710862,6.31521739 6.23625148,6.30434783 6.22539434,6.2826087 C6.16025148,6.18478261 6.10596576,6.08695652 6.04082291,5.98913043 C5.91053719,5.77173913 5.80196576,5.54347826 5.70425148,5.32608696 C4.86825148,3.36956522 5.13968005,1.25 6.35568005,0 C5.98653719,0.108695652 5.62825148,0.27173913 5.28082291,0.467391304 C3.08768005,1.77173913 2.18653719,4.42391304 3.02253719,6.72826087 C3.12025148,7.01086957 3.25053719,7.2826087 3.40253719,7.55434783 C3.45682291,7.65217391 3.51110862,7.73913043 3.57625148,7.82608696 C3.59796576,7.84782609 3.60882291,7.88043478 3.63053719,7.90217391 C3.67396576,7.9673913 3.71739434,8.0326087 3.77168005,8.09782609 C3.79339434,8.11956522 3.80425148,8.14130435 3.82596576,8.17391304 C3.89110862,8.26086957 3.95625148,8.33695652 4.02139434,8.41304348 L4.03225148,8.42391304 C4.09739434,8.5 4.16253719,8.56521739 4.23853719,8.64130435 C4.26025148,8.66304348 4.28196576,8.68478261 4.30368005,8.70652174 C4.35796576,8.76086957 4.41225148,8.81521739 4.47739434,8.85869565 C4.49910862,8.88043478 4.52082291,8.89130435 4.54253719,8.91304348 C4.61853719,8.97826087 4.69453719,9.04347826 4.78139434,9.10869565 C4.79225148,9.10869565 4.79225148,9.11956522 4.80310862,9.11956522 C4.87910862,9.17391304 4.95510862,9.22826087 5.03110862,9.2826087 C5.05282291,9.29347826 5.08539434,9.31521739 5.10710862,9.32608696 C5.17225148,9.36956522 5.23739434,9.40217391 5.30253719,9.44565217 C5.32425148,9.45652174 5.34596576,9.4673913 5.36768005,9.48913043 C5.45453719,9.54347826 5.54139434,9.58695652 5.63910862,9.63043478 C5.64996576,9.64130435 5.66082291,9.64130435 5.67168005,9.64130435 C5.74768005,9.67391304 5.83453719,9.7173913 5.91053719,9.75 C5.94310862,9.76086957 5.96482291,9.77173913 5.99739434,9.7826087 C6.07339434,9.81521739 6.13853719,9.83695652 6.21453719,9.85869565 C6.23625148,9.86956522 6.25796576,9.88043478 6.29053719,9.88043478 C6.38825148,9.91304348 6.48596576,9.93478261 6.57282291,9.9673913 C6.58368005,9.9673913 6.60539434,9.97826087 6.61625148,9.97826087 C6.70310862,10 6.77910862,10.0217391 6.86596576,10.0326087 C6.89853719,10.0434783 6.92025148,10.0434783 6.95282291,10.0543478 C7.02882291,10.0652174 7.10482291,10.076087 7.18082291,10.0869565 C7.20253719,10.0869565 7.23510862,10.0978261 7.25682291,10.0978261 C7.35453719,10.1086957 7.45225148,10.1195652 7.54996576,10.1304348 L7.60425148,10.1304348 C7.68025148,10.1304348 7.76710862,10.1413043 7.85396576,10.1413043 L7.95168005,10.1413043 C8.02768005,10.1413043 8.10368005,10.1413043 8.16882291,10.1304348 L8.24482291,10.1304348 C8.34253719,10.1195652 8.44025148,10.1195652 8.53796576,10.0978261 C8.55968005,10.0978261 8.57053719,10.0869565 8.59225148,10.0869565 C8.66825148,10.076087 8.75510862,10.0652174 8.83110862,10.0434783 C8.86368005,10.0326087 8.89625148,10.0326087 8.92882291,10.0217391 C9.00482291,10.0108696 9.06996576,9.98913043 9.14596576,9.9673913 C9.17853719,9.95652174 9.20025148,9.95652174 9.23282291,9.94565217 C9.33053719,9.92391304 9.42825148,9.89130435 9.52596576,9.85869565 C9.53682291,9.85869565 9.54768005,9.84782609 9.55853719,9.84782609 C9.64539434,9.81521739 9.73225148,9.7826087 9.80825148,9.75 C9.84082291,9.73913043 9.86253719,9.72826087 9.89510862,9.7173913 C9.96025148,9.68478261 10.0362515,9.65217391 10.1013943,9.61956522 C10.1339658,9.60869565 10.15568,9.59782609 10.1882515,9.57608696 C10.2859658,9.5326087 10.3728229,9.47826087 10.4705372,9.42391304 C10.6442515,9.32608696 10.8071086,9.2173913 10.9699658,9.09782609 C11.1002515,9 11.2522515,8.88043478 11.3933943,8.75 L11.3933943,8.75 L11.3933943,8.75 Z" fill="#D1D1D1"></path>
            </g>
        </g>
    </g>
</svg>