<?xml version="1.0" encoding="UTF-8" standalone="no"?>
<svg width="14px" height="14px" viewBox="0 0 14 14" version="1.1" xmlns="http://www.w3.org/2000/svg" xmlns:xlink="http://www.w3.org/1999/xlink" xmlns:sketch="http://www.bohemiancoding.com/sketch/ns">
    <!-- Generator: Sketch 3.4.1 (15681) - http://www.bohemiancoding.com/sketch -->
    <title>Notifications - bell icon</title>
    <desc>Created with Sketch.</desc>
    <defs></defs>
    <g id="notifcations-panel" stroke="none" stroke-width="1" fill="none" fill-rule="evenodd" sketch:type="MSPage">
        <g id="Notifications---bell-icon" sketch:type="MSArtboardGroup" fill="#747474">
            <path d="M8.01511745,1.1681698 C8.09408024,1.17755652 8.17496178,1.18806377 8.2579,1.19975964 C13.06648,2.02419759 10.88248,7.85443205 13.78258,11.6478281 C13.92174,11.8045834 14,11.9802672 14,12.177263 C14,13.9488232 7.71652,14 7,14 C6.28348,14 0,13.9488232 0,12.177263 C0,11.9802672 0.07826,11.8045834 0.21714,11.6478281 C3.11752,7.85443205 0.93352,2.02419759 5.7421,1.19975964 C5.78840398,1.19292238 5.83489746,1.18631252 5.88167396,1.17997622 C5.87996962,1.15450791 5.87910333,1.12880169 5.87910333,1.10288672 C5.87910333,0.493779202 6.35767864,1.2101431e-13 6.94803121,1.2101431e-13 C7.53838378,1.2101431e-13 8.01695909,0.493779202 8.01695909,1.10288672 C8.01695909,1.12480292 8.01633952,1.14656983 8.01511745,1.1681698 Z M8.04677587,11.2133206 C7.7124977,11.201918 7.36342008,11.1957893 7,11.1957893 C3.37372,11.1957893 1.17544,11.8059856 0.85918,12.177263 C1.17544,12.5485405 3.37358,13.1587368 7,13.1587368 C10.62642,13.1587368 12.82456,12.5485405 13.14082,12.177263 C12.9578778,11.9624957 12.1451925,11.6677837 10.7906429,11.4574792 C10.6394072,11.6986458 10.4235308,11.8948603 10.1670706,12.0224096 C9.96010303,12.1254294 9.72776724,12.1847625 9.48089112,12.1847625 C9.23401501,12.1847625 9.00167922,12.1254294 8.79471165,12.0224096 C8.4564448,11.8541026 8.18870862,11.5663699 8.04677587,11.2133206 Z" id="bell-copy-3" sketch:type="MSShapeGroup"></path>
        </g>
    </g>
</svg>