<?xml version="1.0" encoding="UTF-8" standalone="no"?>
<svg width="25px" height="26px" viewBox="0 0 25 26" version="1.1" xmlns="http://www.w3.org/2000/svg" xmlns:xlink="http://www.w3.org/1999/xlink">
    <!-- Generator: Sketch 3.7.2 (28276) - http://www.bohemiancoding.com/sketch -->
    <title>Shape</title>
    <desc>Created with Sketch.</desc>
    <defs></defs>
    <g id="customer-header---visuals---most-recent" stroke="none" stroke-width="1" fill="none" fill-rule="evenodd">
        <g id="03-EIN-CustomerHeader_icons" transform="translate(-195.000000, -71.000000)" fill="#67BD47">
            <path d="M219.968377,73.7156701 C215.664626,70.0429604 199.442795,70.1469663 195,73.7156701 C195,73.7156701 195,87.2429427 197.443206,90.714141 C199.495764,93.6458084 207.196168,97 207.196168,97 C207.196168,97 214.803875,94.54936 217.333157,91.0521603 C220.39213,86.7944171 219.981619,73.7156701 219.981619,73.7156701 L219.968377,73.7156701 Z M207.355076,94.3088463 C203.991529,92.781259 200.283682,90.6426369 199.363341,89.3750645 C198.257608,87.8539776 197.469691,81.1910971 197.317404,75.2107555 C199.363341,74.4242106 203.084431,73.7741735 207.672891,73.7741735 C212.261352,73.7741735 215.810291,74.4242106 217.743668,75.1912544 C217.743668,80.4240533 217.081553,87.4964572 215.45937,89.7000831 C214.082169,91.5006859 209.990296,93.3467913 207.341833,94.3088463 L207.355076,94.3088463 Z" id="Shape"></path>
        </g>
    </g>
</svg>