<?xml version="1.0" encoding="UTF-8" standalone="no"?>
<svg width="11px" height="17px" viewBox="0 0 11 17" version="1.1" xmlns="http://www.w3.org/2000/svg" xmlns:xlink="http://www.w3.org/1999/xlink" xmlns:sketch="http://www.bohemiancoding.com/sketch/ns">
    <!-- Generator: Sketch 3.5.1 (25234) - http://www.bohemiancoding.com/sketch -->
    <title>Group Copy 2</title>
    <desc>Created with Sketch.</desc>
    <defs></defs>
    <g id="customer-header---visuals---most-recent" stroke="none" stroke-width="1" fill="none" fill-rule="evenodd" sketch:type="MSPage">
        <g id="02-EIN-CustomerHeader_SpacingSpecs" sketch:type="MSArtboardGroup" transform="translate(-1478.000000, -121.000000)" fill="#A2A2A2">
            <g id="Group-3" sketch:type="MSLayerGroup" transform="translate(157.000000, -307.000000)">
                <g id="Group-Copy-2" transform="translate(1321.000000, 428.000000)" sketch:type="MSShapeGroup">
                    <path d="M9.03492857,16.0853769 L1.9635,16.1006963 C1.36910714,16.1006963 0.785714286,15.5223887 0.785714286,14.9364214 L0.785714286,13.7874659 L10.2142857,13.7874659 L10.2142857,14.9364214 C10.2142857,15.5262186 9.6415,16.0853769 9.03492857,16.0853769 L9.03492857,16.0853769 Z M0.785714286,3.82985165 L10.2142857,3.82985165 L10.2142857,13.0214956 L0.785714286,13.0214956 L0.785714286,3.82985165 Z M1.96428571,0.766353315 L9.03571429,0.766353315 C9.6415,0.766353315 10.2142857,1.31746897 10.2142857,1.89577657 L10.2142857,3.06426431 L0.785714286,3.06426431 L0.785714286,1.91530881 C0.785714286,1.32512867 1.3585,0.766353315 1.96428571,0.766353315 L1.96428571,0.766353315 Z M9.03571429,0 L1.96428571,0 C0.918107143,0 -1.66740695e-13,0.892355434 -1.66740695e-13,1.91530881 L-1.66740695e-13,14.9364214 C-1.66740695e-13,15.9475023 0.936571429,16.8666667 1.96428571,16.8666667 L1.96546429,16.8666667 L9.03571429,16.8517302 C10.0822857,16.8517302 11,15.955162 11,14.9364214 L11,1.89577657 C11,0.885078716 10.0822857,0 9.03571429,0 L9.03571429,0 Z" id="Fill-396"></path>
                    <path d="M2.60160643,2.2 L7.66506024,2.2 C7.88674699,2.2 8.06666667,2.03536667 8.06666667,1.83333333 C8.06666667,1.62836667 7.88674699,1.46666667 7.66506024,1.46666667 L2.60160643,1.46666667 C2.37951807,1.46666667 2.2,1.62836667 2.2,1.83333333 C2.2,2.03536667 2.37951807,2.2 2.60160643,2.2" id="Fill-397"></path>
                </g>
            </g>
        </g>
    </g>
</svg>