<?xml version="1.0" encoding="UTF-8" standalone="no"?>
<svg width="7px" height="17px" viewBox="0 0 7 17" version="1.1" xmlns="http://www.w3.org/2000/svg" xmlns:xlink="http://www.w3.org/1999/xlink" xmlns:sketch="http://www.bohemiancoding.com/sketch/ns">
    <!-- Generator: Sketch 3.5.1 (25234) - http://www.bohemiancoding.com/sketch -->
    <title>Fill 2874 Copy 19</title>
    <desc>Created with Sketch.</desc>
    <defs></defs>
    <g id="customer-header---visuals---most-recent" stroke="none" stroke-width="1" fill="none" fill-rule="evenodd" sketch:type="MSPage">
        <g id="02-EIN-CustomerHeader_SpacingSpecs" sketch:type="MSArtboardGroup" transform="translate(-1215.000000, -276.000000)" fill="#A2A2A2">
            <path d="M1220.99773,287.5005 C1220.99773,288.7075 1220.13805,289.7175 1218.99848,289.95 L1218.99848,285.0505 C1220.13805,285.283 1220.99773,286.2925 1220.99773,287.5005 L1220.99773,287.5005 Z M1215.99962,281.5005 C1215.99962,280.2925 1216.8593,279.283 1217.99886,279.0505 L1217.99886,283.95 C1216.8593,283.7175 1215.99962,282.7075 1215.99962,281.5005 L1215.99962,281.5005 Z M1220.99773,281.5005 C1220.99773,281.776 1221.22264,282 1221.49754,282 C1221.77243,282 1221.99735,281.776 1221.99735,281.5005 C1221.99735,279.741 1220.69284,278.284 1218.99848,278.04 L1218.99848,276.5 C1218.99848,276.224 1218.77357,276 1218.49867,276 C1218.22378,276 1217.99886,276.224 1217.99886,276.5 L1217.99886,278.04 C1216.30451,278.284 1215,279.741 1215,281.5005 C1215,283.2605 1216.30451,284.7165 1217.99886,284.96 L1217.99886,289.95 C1216.8593,289.7175 1215.99962,288.7075 1215.99962,287.5005 C1215.99962,287.224 1215.77471,287 1215.49981,287 C1215.22491,287 1215,287.224 1215,287.5005 C1215,289.2605 1216.30451,290.7165 1217.99886,290.96 L1217.99886,292.5 C1217.99886,292.776 1218.22378,293 1218.49867,293 C1218.77357,293 1218.99848,292.776 1218.99848,292.5 L1218.99848,290.96 C1220.69284,290.7165 1221.99735,289.2605 1221.99735,287.5005 C1221.99735,285.741 1220.69284,284.284 1218.99848,284.04 L1218.99848,279.0505 C1220.13805,279.283 1220.99773,280.2925 1220.99773,281.5005 L1220.99773,281.5005 Z" id="Fill-2874-Copy-19" sketch:type="MSShapeGroup"></path>
        </g>
    </g>
</svg>