<?xml version="1.0" encoding="UTF-8" standalone="no"?>
<svg width="18px" height="9px" viewBox="0 0 18 9" version="1.1" xmlns="http://www.w3.org/2000/svg" xmlns:xlink="http://www.w3.org/1999/xlink">
    <!-- Generator: Sketch 3.7.2 (28276) - http://www.bohemiancoding.com/sketch -->
    <title>emailto</title>
    <desc>Created with Sketch.</desc>
    <defs></defs>
    <g id="customer-header---visuals---most-recent" stroke="none" stroke-width="1" fill="none" fill-rule="evenodd">
        <g id="03-EIN-CustomerHeader_icons" transform="translate(-134.000000, -222.000000)" fill="#2B9CD8">
            <g id="emailto" transform="translate(134.000000, 222.000000)">
                <g>
                    <rect id="Rectangle-path" x="0" y="1" width="6" height="1"></rect>
                    <rect id="Rectangle-path" x="2" y="4" width="4" height="1"></rect>
                    <rect id="Rectangle-path" x="3" y="7" width="3" height="1"></rect>
                    <path d="M17.4782609,0 L6.52173913,0 C6.23321739,0 6,0.252 6,0.5625 L6,8.4375 C6,8.7485625 6.23321739,9 6.52173913,9 L17.4782609,9 C17.7667826,9 18,8.7485625 18,8.4375 L18,0.5625 C18,0.252 17.7667826,0 17.4782609,0 L17.4782609,0 Z M17.1428571,0.918983126 L12.0105401,5.4 L6.85714286,0.9 L17.1428571,0.9 L17.1428571,0.918983126 L17.1428571,0.918983126 Z M6.85714286,8.1 L6.85714286,1.8 L11.856,6.13841247 C11.901551,6.17810064 11.9583673,6.19794472 12.0151837,6.19794472 C12.072,6.19794472 12.1288163,6.17810064 12.1743673,6.13841247 L17.1428571,1.82629341 L17.1428571,8.1 L6.85714286,8.1 L6.85714286,8.1 Z" id="email"></path>
                </g>
            </g>
        </g>
    </g>
</svg>