<?xml version="1.0" encoding="UTF-8" standalone="no"?>
<svg width="25px" height="26px" viewBox="0 0 25 26" version="1.1" xmlns="http://www.w3.org/2000/svg" xmlns:xlink="http://www.w3.org/1999/xlink">
    <!-- Generator: Sketch 3.7.2 (28276) - http://www.bohemiancoding.com/sketch -->
    <title>Fill 63 Copy</title>
    <desc>Created with Sketch.</desc>
    <defs></defs>
    <g id="customer-header---visuals---most-recent" stroke="none" stroke-width="1" fill="none" fill-rule="evenodd">
        <g id="03-EIN-CustomerHeader_icons" transform="translate(-109.000000, -72.000000)" fill="#FB543F">
            <path d="M128.45954,84.010757 C126.899577,83.7807694 125.549609,82.8808181 124.749628,81.6098869 L123.529656,85.0507007 C125.439611,86.7306098 126.449587,89.240474 126.259592,91.8593323 C126.199593,92.7302851 125.679606,93.1702613 125.119619,93.0002705 C124.559632,92.8402792 124.409636,92.3303068 124.449635,91.7213397 C124.62963,89.3914658 123.309662,87.65056 121.27971,86.5306206 C119.719747,88.5605108 117.4398,89.6504518 114.679866,89.4504626 C113.789887,89.3914658 113.459895,88.9904875 113.629891,88.4505167 C113.799887,87.9005465 114.199877,87.7505546 114.829862,87.7905524 C117.259805,87.9605432 118.679771,86.4906228 119.779745,84.4207348 L121.509704,79.9009794 C120.219735,80.0009739 119.229758,80.5109463 118.679771,81.7608787 C118.519775,82.1098598 118.169783,82.3918446 117.809792,82.3208484 C117.4498,82.2608517 117.249805,81.7508793 117.4698,81.2409068 C118.28978,79.3920069 120.139737,78.171073 122.189688,78.1310751 L122.219687,78.1310751 L122.459682,78.1210757 C122.599678,78.1310751 122.729675,78.1610735 122.839673,78.2010713 L122.869672,78.2110708 L122.929671,78.2310697 L125.139618,79.2310156 L125.229616,79.2910124 C125.329614,79.3310102 125.419612,79.3810075 125.50961,79.4410042 L125.50961,79.4510037 C125.719605,79.5909961 125.869601,79.7609869 125.9196,79.9109788 C126.289591,81.4508955 127.049573,82.5008387 128.649535,82.7308262 C129.039526,82.790823 129.409517,83.0608084 129.439517,83.4207889 C129.459516,83.76977 129.019527,84.0907526 128.45954,84.010757 L128.45954,84.010757 Z M124.999622,74.4912721 C126.039597,74.4912721 126.879577,75.3112277 126.879577,76.3311725 C126.879577,77.3511173 126.039597,78.1810724 124.999622,78.1810724 C123.969646,78.1810724 123.119666,77.3511173 123.119666,76.3311725 C123.119666,75.3112277 123.969646,74.4912721 124.999622,74.4912721 L124.999622,74.4912721 Z M133.979409,74.7112602 C129.679511,71.0414587 113.429895,71.1514528 109,74.7112602 C109,74.7112602 109.02,88.2405281 111.449942,91.7103403 C113.499894,94.6411817 121.819697,98 121.819697,98 C121.819697,98 128.799532,95.5801309 131.339472,92.0503219 C134.409399,87.7905524 133.979409,74.7112602 133.979409,74.7112602 L133.979409,74.7112602 Z" id="Fill-63-Copy"></path>
        </g>
    </g>
</svg>