<?xml version="1.0" encoding="UTF-8" standalone="no"?>
<svg width="61px" height="49px" viewBox="0 0 61 49" version="1.1" xmlns="http://www.w3.org/2000/svg" xmlns:xlink="http://www.w3.org/1999/xlink">
    <!-- Generator: Sketch 3.8.2 (29753) - http://www.bohemiancoding.com/sketch -->
    <title>Icon set one</title>
    <desc>Created with Sketch.</desc>
    <defs></defs>
    <g id="Page-1" stroke="none" stroke-width="1" fill="none" fill-rule="evenodd">
        <g id="Icon-set-one" transform="translate(-72.000000, -462.000000)">
            <g id="Group" transform="translate(88.000000, 464.000000)">
                <path d="M0.5,30.5 C3.16354942e-10,29.9999992 1.1398385e-09,28.4999983 0.500000001,27.9999992 L28,0.5 C28,0.5 29,1.32921087e-08 30,0.5 C31.5,1.99999999 29,-0.5 33,3.5 C29.5,8.49999958 38,14.4999996 41,11.5 C41,11.5 42.9843869,12.9687738 43.5,14 C44.0156131,15.0312262 44,15.9999996 43.5,16.5 C37.0120642,23.4597857 16,43.5 16,43.5 C16,43.5 14.5,44.4999983 13.5,43.4999992 C12.5,42.4999983 12.5,42.4999992 11,41 C15.5,36.9999992 7.5,28.9999992 3,33 C3,33 1.49999999,31.4999992 0.5,30.5 Z" id="Path-5" stroke="#FFFFFF" stroke-width="2"></path>
                <rect id="Rectangle-14" fill="#FFFFFF" transform="translate(34.051569, 18.120515) rotate(45.000000) translate(-34.051569, -18.120515) " x="31.5515693" y="16.6205155" width="5" height="3" rx="1"></rect>
                <rect id="Rectangle-14" fill="#FFFFFF" transform="translate(30.190584, 14.190584) rotate(45.000000) translate(-30.190584, -14.190584) " x="27.6905842" y="12.6905842" width="5" height="3" rx="1"></rect>
                <rect id="Rectangle-14" fill="#FFFFFF" transform="translate(26.191707, 10.122761) rotate(45.000000) translate(-26.191707, -10.122761) " x="23.6917068" y="8.62276063" width="5" height="3" rx="1"></rect>
            </g>
            <g id="Group" transform="translate(90.428950, 487.125764) rotate(-11.000000) translate(-90.428950, -487.125764) translate(71.928950, 465.125764)">
                <path d="M0.5,30.5 C3.16425997e-10,29.9999992 1.1399096e-09,28.4999983 0.500000001,27.9999992 L28,0.5 C28,0.5 29,1.32921656e-08 30,0.5 C31.5,1.99999999 29,-0.5 33,3.5 C30.6366577,6.87620307 33.7447149,10.7083563 36.9363424,11.9177001 C33.2606218,14.5398128 24.4021664,20.7552081 16,26.2909347 C14.9942466,26.9533542 14.4427148,27.8646891 14.8943605,29.1404124 C15.2514995,30.1491909 16.4866154,31.5537837 16.8714066,32.0715018 C20.879528,29.7944518 24.0428009,34.4841987 24.4021663,35.4302676 C19.6628609,40.0065537 16,43.5 16,43.5 C16,43.5 14.5,44.4999983 13.5,43.4999992 C12.5,42.4999983 12.5,42.4999992 11,41 C15.5,36.9999992 7.5,28.9999992 3,33 C3,33 1.49999999,31.4999992 0.5,30.5 Z" id="Path-5" stroke="#FFFFFF" stroke-width="2"></path>
                <rect id="Rectangle-14" fill="#FFFFFF" transform="translate(30.190584, 14.190584) rotate(45.000000) translate(-30.190584, -14.190584) " x="27.6905842" y="12.6905842" width="5" height="3" rx="1"></rect>
                <rect id="Rectangle-14" fill="#FFFFFF" transform="translate(26.191707, 10.122761) rotate(45.000000) translate(-26.191707, -10.122761) " x="23.6917068" y="8.62276063" width="5" height="3" rx="1"></rect>
            </g>
        </g>
    </g>
</svg>