<?xml version="1.0" encoding="UTF-8" standalone="no"?>
<svg width="16px" height="20px" viewBox="0 0 16 20" version="1.1" xmlns="http://www.w3.org/2000/svg" xmlns:xlink="http://www.w3.org/1999/xlink">
    <!-- Generator: Sketch 3.7.2 (28276) - http://www.bohemiancoding.com/sketch -->
    <title>icon-weather-hurricane</title>
    <desc>Created with Sketch.</desc>
    <defs></defs>
    <g id="weather-icons" stroke="none" stroke-width="1" fill="none" fill-rule="evenodd">
        <path d="M15.8135922,0.17765571 C15.5961165,-0.0345554325 15.2543689,-0.0547660174 15.0058252,0.106918662 L5.69579288,5.34146017 C5.56116505,5.40209192 5.4368932,5.47282897 5.30226537,5.54356602 C2.78576052,6.99872813 1.94692557,10.17179 3.4381877,12.627376 C3.8420712,13.2943253 4.38058252,13.8400111 4.99158576,14.2543281 L0.227831715,18.9027627 L0.186407767,18.9431838 C-0.0621359223,19.1857109 -0.0621359223,19.5798173 0.186407767,19.8223443 C0.403883495,20.0345554 0.745631068,20.054766 0.994174757,19.8930813 L10.3042071,14.6484345 C10.438835,14.5878028 10.5631068,14.5170657 10.6977346,14.4463287 C13.2142395,12.9911666 14.0530744,9.81810474 12.5618123,7.36251866 C12.1579288,6.69556936 11.6194175,6.14988357 11.0084142,5.73556657 L15.7721683,1.08713203 L15.8135922,1.04671086 C16.0621359,0.814289136 16.0621359,0.420182729 15.8135922,0.17765571 Z M6.4,10.9296869 C5.88220065,10.070737 6.17216828,8.95915487 7.05242718,8.44378496 C7.93268608,7.92841504 9.07184466,8.22146852 9.6,9.08041838 C10.1281553,9.93936825 9.8381877,11.0509504 8.94757282,11.5663203 C8.06731392,12.071585 6.92815534,11.7886368 6.4,10.9296869 Z" id="icon-weather-hurricane" fill="#B9B9B9"></path>
    </g>
</svg>