<?xml version="1.0" encoding="UTF-8" standalone="no"?>
<svg width="17px" height="20px" viewBox="0 0 17 20" version="1.1" xmlns="http://www.w3.org/2000/svg" xmlns:xlink="http://www.w3.org/1999/xlink">
    <!-- Generator: Sketch 3.7.2 (28276) - http://www.bohemiancoding.com/sketch -->
    <title>icon-weather-mostly-clear-night</title>
    <desc>Created with Sketch.</desc>
    <defs></defs>
    <g id="weather-icons" stroke="none" stroke-width="1" fill="none" fill-rule="evenodd">
        <g id="MostlyClear">
            <g id="Shape">
                <path d="M7.42738095,13.1958763 L5.02916667,13.1958763 L4.96845238,13.1958763 C4.40178571,13.1958763 3.89583333,12.8041237 3.74404762,12.2371134 C3.65297619,11.9072165 3.70357143,11.556701 3.87559524,11.257732 C4.04761905,10.9587629 4.32083333,10.742268 4.64464286,10.6597938 L4.64464286,10.6597938 C4.675,10.6494845 4.73571429,10.6391753 4.81666667,10.6082474 C4.82678571,10.5360825 4.84702381,10.4639175 4.85714286,10.3917526 C4.96845238,9.98969072 5.19107143,9.63917526 5.48452381,9.37113402 C4.40178571,5.86597938 5.03928571,2.24742268 7.17440476,0.0206185567 C6.45595238,0.24742268 5.7577381,0.546391753 5.0797619,0.948453608 C0.293452381,3.7628866 -1.35595238,10 1.41666667,14.8762887 C4.17916667,19.7525773 10.3113095,21.4329897 15.097619,18.6082474 C15.7755952,18.2061856 16.3827381,17.742268 16.9291667,17.2268041 C13.6809524,18.0721649 9.89642857,16.4948454 7.42738095,13.1958763 L7.42738095,13.1958763 Z" fill="#D1D1D1"></path>
                <path d="M14.247619,10.443299 C14.2375,10.3917526 14.2172619,10.3402062 14.1970238,10.2886598 C14.1869048,10.2680412 14.1869048,10.257732 14.1767857,10.2371134 C14.1666667,10.2061856 14.1464286,10.1752577 14.1363095,10.1340206 C14.1261905,10.1134021 14.1160714,10.1030928 14.1059524,10.0824742 C14.0857143,10.0515464 14.0755952,10.0206186 14.0553571,10 C14.0452381,9.97938144 14.035119,9.96907216 14.025,9.94845361 C14.0047619,9.91752577 13.9845238,9.89690722 13.9642857,9.86597938 C13.9541667,9.8556701 13.9440476,9.83505155 13.9339286,9.82474227 C13.9136905,9.79381443 13.8833333,9.7628866 13.8529762,9.73195876 C13.8428571,9.72164948 13.8428571,9.72164948 13.8327381,9.71134021 C13.802381,9.67010309 13.7619048,9.63917526 13.7214286,9.60824742 C13.7113095,9.59793814 13.7011905,9.58762887 13.6910714,9.57731959 C13.6607143,9.55670103 13.6404762,9.53608247 13.610119,9.50515464 C13.6,9.49484536 13.5797619,9.48453608 13.5696429,9.4742268 C13.5392857,9.45360825 13.5190476,9.44329897 13.4886905,9.42268041 C13.4684524,9.41237113 13.4583333,9.40206186 13.4380952,9.39175258 C13.4077381,9.37113402 13.377381,9.36082474 13.3571429,9.35051546 C13.3369048,9.34020619 13.3267857,9.32989691 13.3065476,9.32989691 C13.2761905,9.31958763 13.2357143,9.29896907 13.2053571,9.28865979 C13.1952381,9.28865979 13.185119,9.27835052 13.164881,9.27835052 C13.1142857,9.25773196 13.0738095,9.24742268 13.0232143,9.2371134 C13.0130952,9.2371134 13.0029762,9.2371134 12.9928571,9.22680412 C12.952381,9.21649485 12.9119048,9.20618557 12.8714286,9.20618557 C12.8511905,9.20618557 12.8410714,9.20618557 12.8208333,9.19587629 C12.7904762,9.19587629 12.760119,9.18556701 12.7196429,9.18556701 L12.6589286,9.18556701 L12.5375,9.18556701 L12.5172619,9.18556701 C12.4666667,9.18556701 12.4160714,9.19587629 12.3755952,9.19587629 C12.3654762,9.19587629 12.3553571,9.19587629 12.3452381,9.20618557 C12.2946429,9.21649485 12.2440476,9.22680412 12.1934524,9.2371134 C12.1934524,9.2371134 12.1327381,9.25773196 12.0113095,9.28865979 C11.7583333,8.20618557 10.7970238,7.42268041 9.66369048,7.42268041 C8.7327381,7.42268041 7.92321429,7.94845361 7.50833333,8.72164948 C7.36666667,8.97938144 7.27559524,9.26804124 7.225,9.56701031 C7.21488095,9.56701031 7.2047619,9.55670103 7.19464286,9.55670103 C7.17440476,9.54639175 7.15416667,9.54639175 7.15416667,9.54639175 C7.11369048,9.53608247 7.07321429,9.5257732 7.0327381,9.51546392 L7.00238095,9.51546392 C6.96190476,9.50515464 6.92142857,9.50515464 6.88095238,9.50515464 L6.86071429,9.50515464 L6.75952381,9.50515464 L6.70892857,9.50515464 C6.67857143,9.50515464 6.64821429,9.50515464 6.62797619,9.51546392 C6.61785714,9.51546392 6.59761905,9.51546392 6.5875,9.5257732 C6.55714286,9.53608247 6.51666667,9.53608247 6.48630952,9.54639175 L6.46607143,9.54639175 C6.42559524,9.55670103 6.38511905,9.56701031 6.34464286,9.58762887 C6.33452381,9.58762887 6.32440476,9.59793814 6.31428571,9.59793814 C6.28392857,9.60824742 6.25357143,9.6185567 6.23333333,9.62886598 C6.22321429,9.63917526 6.20297619,9.63917526 6.19285714,9.64948454 C6.17261905,9.65979381 6.1422619,9.67010309 6.12202381,9.69072165 C6.11190476,9.70103093 6.09166667,9.71134021 6.08154762,9.71134021 C6.06130952,9.72164948 6.03095238,9.74226804 6.01071429,9.75257732 C6.00059524,9.7628866 5.99047619,9.77319588 5.9702381,9.78350515 C5.95,9.80412371 5.91964286,9.82474227 5.89940476,9.84536082 C5.88928571,9.8556701 5.87916667,9.8556701 5.86904762,9.86597938 C5.83869048,9.89690722 5.80833333,9.92783505 5.77797619,9.95876289 C5.76785714,9.96907216 5.76785714,9.96907216 5.7577381,9.97938144 C5.7375,10 5.7172619,10.0309278 5.69702381,10.0515464 C5.69702381,10.0515464 5.69702381,10.0515464 5.68690476,10.0618557 C5.67678571,10.0721649 5.66666667,10.0824742 5.65654762,10.0927835 C5.63630952,10.1134021 5.62619048,10.1443299 5.60595238,10.1649485 C5.59583333,10.1752577 5.58571429,10.1958763 5.57559524,10.2061856 C5.56547619,10.2268041 5.5452381,10.257732 5.53511905,10.2783505 C5.525,10.2886598 5.525,10.3092784 5.51488095,10.3195876 C5.5047619,10.3505155 5.49464286,10.371134 5.47440476,10.4020619 C5.46428571,10.4123711 5.46428571,10.4329897 5.45416667,10.443299 C5.43392857,10.4845361 5.42380952,10.5257732 5.41369048,10.5773196 C5.36309524,10.7525773 5.35297619,10.9381443 5.37321429,11.1134021 C4.99880952,11.2164948 4.76607143,11.2783505 4.76607143,11.2783505 C4.41190476,11.371134 4.20952381,11.742268 4.30059524,12.1030928 C4.31071429,12.1443299 4.32083333,12.1752577 4.34107143,12.2164948 C4.35119048,12.2268041 4.35119048,12.2371134 4.36130952,12.2474227 C4.37142857,12.2680412 4.38154762,12.2886598 4.40178571,12.3092784 C4.41190476,12.3195876 4.42202381,12.3298969 4.43214286,12.3402062 C4.4422619,12.3608247 4.4625,12.371134 4.47261905,12.3917526 C4.4827381,12.4020619 4.49285714,12.4123711 4.50297619,12.4226804 C4.52321429,12.4329897 4.53333333,12.4536082 4.55357143,12.4639175 C4.56369048,12.4742268 4.58392857,12.4845361 4.59404762,12.4948454 C4.61428571,12.5051546 4.62440476,12.5154639 4.64464286,12.5257732 C4.6547619,12.5360825 4.675,12.5360825 4.68511905,12.5463918 C4.70535714,12.556701 4.72559524,12.5670103 4.73571429,12.5670103 C4.75595238,12.5670103 4.76607143,12.5773196 4.78630952,12.5773196 C4.80654762,12.5773196 4.82678571,12.5876289 4.84702381,12.5876289 L4.89761905,12.5876289 L4.97857143,12.5876289 L6.96190476,12.5876289 L12.5678571,12.5876289 L12.6184524,12.5876289 L12.6791667,12.5876289 C12.6994048,12.5876289 12.7196429,12.5876289 12.75,12.5773196 C12.7702381,12.5773196 12.8005952,12.5773196 12.8309524,12.5670103 C12.8613095,12.5670103 12.8815476,12.556701 12.9119048,12.556701 C12.9220238,12.556701 12.9422619,12.556701 12.952381,12.5463918 C12.972619,12.5463918 13.0029762,12.5360825 13.0232143,12.5360825 C13.0333333,12.5360825 13.0434524,12.5360825 13.0535714,12.5257732 C13.9642857,12.2783505 14.4904762,11.3505155 14.247619,10.443299 L14.247619,10.443299 Z" fill="#B9B9B9"></path>
            </g>
        </g>
    </g>
</svg>