<?xml version="1.0" encoding="UTF-8" standalone="no"?>
<svg width="20px" height="15px" viewBox="0 0 20 15" version="1.1" xmlns="http://www.w3.org/2000/svg" xmlns:xlink="http://www.w3.org/1999/xlink">
    <!-- Generator: Sketch 3.7.2 (28276) - http://www.bohemiancoding.com/sketch -->
    <title>icon-weather-blowing-snow</title>
    <desc>Created with Sketch.</desc>
    <defs></defs>
    <g id="weather-icons" stroke="none" stroke-width="1" fill="none" fill-rule="evenodd">
        <g id="BlowingSnow" fill="#B9B9B9">
            <g transform="translate(-0.979899, -0.917808)" id="Shape">
                <path d="M9.3091276,9.20212887 C8.9649535,9.20212887 8.67978068,8.92066047 8.67978068,8.55877252 C8.67978068,8.19688457 8.95511996,7.91541617 9.3091276,7.91541617 L17.6873084,7.91541617 C18.0904838,7.90536373 18.473992,7.76462953 18.7493313,7.48316112 C19.0345041,7.20169272 19.2016744,6.81969989 19.2016744,6.42765461 C19.211508,6.12608132 19.0935054,5.83456048 18.887001,5.62345918 C18.6804965,5.40230543 18.3953237,5.29172856 18.1003173,5.28167611 L18.0904838,5.28167611 C17.8741458,5.28167611 17.6676413,5.36209566 17.5103046,5.52293475 C17.3529679,5.67372139 17.2644659,5.89487514 17.2644659,6.11602888 C17.2644659,6.20650087 17.284133,6.29697285 17.3234672,6.3773924 C17.4709704,6.69907057 17.3333008,7.08106341 17.0186273,7.23185005 C16.7039538,7.38263669 16.3302791,7.24190249 16.1827759,6.92022432 C16.0647734,6.6588608 16.0057721,6.38744484 16.0156057,6.10597644 C16.0254392,5.53298719 16.2417772,5.01026015 16.6449526,4.60816244 C17.0382944,4.21611716 17.5594723,4.00501586 18.1003173,4.00501586 L18.1101509,4.00501586 C18.7493313,4.0150683 19.3393441,4.26637937 19.7818536,4.72879175 C20.2243632,5.19120413 20.4603682,5.80440315 20.4603682,6.4477595 C20.4505347,7.19164028 20.1555283,7.88525884 19.6245169,8.40798588 C19.1230061,8.91060802 18.4346579,9.18202398 17.7069755,9.19207643 L9.3091276,9.20212887 L9.3091276,9.20212887 L9.3091276,9.20212887 Z"></path>
                <path d="M15.7107657,15.5452204 C15.1699207,15.5452204 14.6487428,15.3341191 14.255401,14.9420738 C13.8522256,14.5399761 13.6358876,14.0071966 13.6260541,13.4442598 C13.6260541,13.1627914 13.6850554,12.8913754 13.7932244,12.6300119 C13.9407275,12.3083337 14.3144023,12.1675995 14.6290757,12.3183862 C14.9437492,12.4691728 15.0814188,12.8511657 14.9339156,13.1728438 C14.8945815,13.2532634 14.8749144,13.3437354 14.8749144,13.4342074 C14.8749144,13.6654135 14.9634163,13.8765148 15.120753,14.0273015 C15.2780897,14.1780881 15.4845942,14.2685601 15.7009322,14.2685601 L15.7107657,14.2685601 C16.0057721,14.2685601 16.2811114,14.1479308 16.4876158,13.9267771 C16.6941203,13.7056233 16.8121228,13.4241549 16.8022893,13.1225816 C16.7924558,12.7204839 16.635119,12.3485435 16.3499462,12.0670751 C16.0746069,11.7956592 15.6910987,11.6448725 15.2780897,11.6348201 L5.54287965,11.6348201 C5.19870556,11.6348201 4.91353274,11.3533517 4.91353274,10.9914637 C4.91353274,10.6396282 5.18887201,10.3481074 5.54287965,10.3481074 L15.3075904,10.3481074 C16.0451063,10.3581598 16.7334545,10.6396282 17.2349653,11.1321979 C17.7659768,11.654925 18.0609831,12.358596 18.0708167,13.0924243 C18.0806502,13.7357806 17.8348116,14.3489797 17.392302,14.8013396 C16.9497925,15.263752 16.3597798,15.5150631 15.7304328,15.5251155 L15.7107657,15.5452204 L15.7107657,15.5452204 L15.7107657,15.5452204 Z"></path>
                <path d="M8.05043377,5.42241032 C8.04060022,5.42241032 8.02093313,5.42241032 8.00126604,5.43246276 L6.55573484,5.82450803 L5.27737392,5.07057481 L6.55573484,4.32669403 L8.01109958,4.72879175 C8.09960149,4.74889664 8.19793695,4.68858198 8.21760404,4.60816244 C8.23727113,4.52774289 8.2077705,4.45737579 8.13893568,4.40711358 C8.13893568,4.40711358 8.13893568,4.40711358 8.12910213,4.40711358 L7.24408303,3.88438654 L8.06026731,3.25108264 L8.06026731,3.25108264 C8.11926859,3.20082042 8.13893568,3.12040088 8.11926859,3.05003378 C8.08976795,2.98971912 8.03076668,2.9394569 7.96193186,2.9394569 C7.94226477,2.9394569 7.92259767,2.94950935 7.89309704,2.94950935 L6.93924312,3.35160707 L6.93924312,2.31620544 C6.94907667,2.2357859 6.89007539,2.15536635 6.81140703,2.13526147 C6.72290512,2.11515658 6.62456966,2.1654188 6.60490257,2.26594322 L6.22139429,3.74365234 L4.94303337,4.49758556 L4.94303337,2.98971912 L5.99522275,1.90405528 C6.03455693,1.86384551 6.04439047,1.82363573 6.04439047,1.78342596 C6.04439047,1.73316375 6.02472338,1.69295398 5.99522275,1.66279665 C5.93622147,1.60248199 5.84771956,1.60248199 5.78871829,1.63263932 C5.78871829,1.63263932 5.78871829,1.63263932 5.77888475,1.63263932 L4.89386565,2.1654188 L4.75619601,1.11996473 C4.74636246,1.03954518 4.67752764,0.969178082 4.58902573,0.969178082 L4.56935864,0.969178082 C4.49069028,0.979230525 4.43168901,1.03954518 4.42185546,1.11996473 C4.42185546,1.11996473 4.42185546,1.11996473 4.42185546,1.13001717 L4.29401937,2.1654188 L3.40900027,1.64269176 C3.40900027,1.64269176 3.40900027,1.64269176 3.39916672,1.64269176 C3.34016545,1.60248199 3.25166354,1.61253443 3.19266227,1.67284909 C3.13366099,1.73316375 3.13366099,1.85379306 3.20249581,1.92416016 L4.26451873,3.009824 L4.26451873,4.50763801 L2.98615781,3.75370478 L2.59281599,2.26594322 C2.56331535,2.17547124 2.47481344,2.11515658 2.38631153,2.14531391 C2.30764317,2.15536635 2.25847544,2.22573345 2.25847544,2.306153 L2.25847544,2.31620544 L2.25847544,3.36165951 L1.30462152,2.95956179 C1.22595316,2.91935202 1.11778416,2.96961423 1.08828352,3.05003378 C1.05878288,3.12040088 1.07844997,3.20082042 1.14728479,3.25108264 L1.15711834,3.25108264 L1.97330262,3.88438654 L1.08828352,4.40711358 C1.08828352,4.40711358 1.08828352,4.40711358 1.07844997,4.40711358 C1.00961515,4.44732335 0.970280972,4.52774289 0.999781609,4.60816244 C1.00961515,4.68858198 1.07844997,4.73884419 1.14728479,4.73884419 C1.15711834,4.73884419 1.17678543,4.73884419 1.19645252,4.72879175 L2.65181726,4.33674648 L3.93017818,5.08062726 L2.67148435,5.83456048 L1.21611961,5.43246276 C1.1276177,5.41235787 1.02928225,5.47267253 1.00961515,5.55309207 C0.989948063,5.63351162 1.0194487,5.70387872 1.08828352,5.75414093 L1.09811706,5.75414093 L1.98313616,6.27686797 L1.17678543,6.91017187 C1.17678543,6.91017187 1.17678543,6.91017187 1.16695188,6.91017187 C1.10795061,6.96043409 1.08828352,7.04085363 1.10795061,7.11122073 C1.13745125,7.17153539 1.19645252,7.22179761 1.26528734,7.22179761 C1.28495443,7.22179761 1.30462152,7.21174516 1.33412216,7.21174516 L2.28797608,6.80964745 L2.28797608,7.85510151 L2.28797608,7.85510151 C2.28797608,7.93552106 2.3371438,8.00588816 2.41581217,8.02599304 C2.50431408,8.05615037 2.60264953,7.99583572 2.62231662,7.89531129 L3.0058249,6.41760217 L4.28418582,5.67372139 L4.28418582,7.18158783 L3.21232936,8.27730412 C3.17299518,8.31751389 3.16316163,8.35772366 3.16316163,8.39793343 C3.16316163,8.43814321 3.18282872,8.48840542 3.21232936,8.51856275 C3.27133063,8.57887741 3.35983254,8.57887741 3.41883381,8.54872008 L3.41883381,8.54872008 L4.30385291,8.02599304 L4.44152255,9.07144711 C4.4513561,9.15186666 4.52019092,9.22223376 4.60869282,9.22223376 L4.62835992,9.22223376 C4.70702828,9.21218131 4.76602955,9.15186666 4.7758631,9.07144711 C4.7758631,9.07144711 4.7758631,9.07144711 4.7758631,9.06139467 L4.91353274,8.0159406 L5.79855184,8.53866764 L5.80838538,8.53866764 C5.86738666,8.57887741 5.95588856,8.56882496 6.01488984,8.50851031 C6.08372466,8.44819565 6.08372466,8.32756633 6.00505629,8.25719923 L4.93319983,7.17153539 L4.93319983,5.67372139 L6.21156075,6.41760217 L6.60490257,7.90536373 C6.62456966,7.99583572 6.72290512,8.05615037 6.81140703,8.02599304 C6.89007539,8.00588816 6.93924312,7.93552106 6.93924312,7.85510151 L6.93924312,7.85510151 L6.93924312,6.80964745 L7.89309704,7.21174516 C7.91276413,7.22179761 7.93243122,7.22179761 7.95209831,7.22179761 C8.02093313,7.22179761 8.0799344,7.18158783 8.10943504,7.11122073 C8.13893568,7.04085363 8.11926859,6.96043409 8.05043377,6.91017187 C8.05043377,6.91017187 8.05043377,6.91017187 8.04060022,6.91017187 L7.22441594,6.27686797 L8.10943504,5.75414093 L8.10943504,5.75414093 C8.17826986,5.71393116 8.21760404,5.63351162 8.1881034,5.55309207 C8.1881034,5.48272497 8.11926859,5.42241032 8.05043377,5.42241032 L8.05043377,5.42241032 Z"></path>
            </g>
        </g>
    </g>
</svg>