<?xml version="1.0" encoding="UTF-8" standalone="no"?>
<svg width="16px" height="16px" viewBox="0 0 16 16" version="1.1" xmlns="http://www.w3.org/2000/svg" xmlns:xlink="http://www.w3.org/1999/xlink">
    <!-- Generator: Sketch 3.6.1 (26313) - http://www.bohemiancoding.com/sketch -->
    <title>Search Copy 2</title>
    <desc>Created with Sketch.</desc>
    <defs></defs>
    <g id="Page-1" stroke="none" stroke-width="1" fill="none" fill-rule="evenodd">
        <g id="Notes_Panel_Specs" transform="translate(-4928.000000, -451.000000)" fill="#2B9CD8">
            <g id="Group-6" transform="translate(4744.000000, 386.000000)">
                <path d="M199.035416,80.2358822 C198.933831,80.2358822 198.831446,80.1993161 198.753057,80.1246602 L194.548068,76.1115289 C193.437829,76.9456934 192.038832,77.443145 190.520653,77.443145 C186.925175,77.443145 184,74.6519314 184,71.2215725 C184,67.7904518 186.925175,65 190.520653,65 C194.116131,65 197.040506,67.7904518 197.040506,71.2215725 C197.040506,72.9295149 196.316611,74.4782423 195.144781,75.6034122 L199.318575,79.5860718 C199.474552,79.7346217 199.474552,79.9768722 199.318575,80.1246602 C199.240186,80.1993161 199.137801,80.2358822 199.035416,80.2358822 L199.035416,80.2358822 Z M190.520653,65.7617941 C187.366711,65.7617941 184.799884,68.2109622 184.799884,71.2215725 C184.799884,74.2329446 187.366711,76.6813509 190.520653,76.6813509 C193.674595,76.6813509 196.240622,74.2329446 196.240622,71.2215725 C196.240622,68.2109622 193.674595,65.7617941 190.520653,65.7617941 L190.520653,65.7617941 Z" id="Search-Copy-2"></path>
            </g>
        </g>
    </g>
</svg>