<?xml version="1.0" encoding="UTF-8" standalone="no"?>
<svg width="37px" height="49px" viewBox="0 0 37 49" version="1.1" xmlns="http://www.w3.org/2000/svg" xmlns:xlink="http://www.w3.org/1999/xlink">
    <!-- Generator: Sketch 3.8.3 (29802) - http://www.bohemiancoding.com/sketch -->
    <title>Icon set one</title>
    <desc>Created with Sketch.</desc>
    <defs></defs>
    <g id="Page-1" stroke="none" stroke-width="1" fill="none" fill-rule="evenodd">
        <g id="Icon-set-one" transform="translate(-86.000000, -711.000000)">
            <polyline id="Path-744" stroke="#FFFFFF" stroke-width="2" points="111 713 111 722 120.055385 722"></polyline>
            <path d="M108.376,728.584 C107.176,728.176 105.784,727.792 104.056,727.792 C100.696,727.792 98.344,729.328 98.344,732.376 C98.344,735.784 101.296,736.528 103.312,737.08 C105.136,737.584 107.584,738.376 107.584,740.824 C107.584,743.08 105.52,744.016 103.12,744.016 C101.608,744.016 99.832,743.656 98.488,742.984 L98.104,744.424 C99.472,745.072 101.392,745.36 102.952,745.36 C106.912,745.36 109.216,743.416 109.216,740.512 C109.216,737.536 106.816,736.432 103.912,735.592 C102.064,735.064 99.952,734.488 99.952,732.16 C99.952,729.928 101.8,729.112 103.936,729.112 C105.448,729.112 106.912,729.496 108.016,729.976 L108.376,728.584 Z" id="S" fill="#FDFDFD"></path>
            <polygon id="Path-743" stroke="#FFFFFF" stroke-width="2" points="87 712.088353 87 758.099221 121.015024 758.099221 121.015024 722.033687 110.981337 712"></polygon>
            <path d="M104,725 L104,728" id="Path-745" stroke="#FFFFFF" stroke-width="2"></path>
            <path d="M104,744 L104,748" id="Path-746" stroke="#FFFFFF" stroke-width="2"></path>
        </g>
    </g>
</svg>