<?xml version="1.0" encoding="UTF-8" standalone="no"?>
<svg width="22px" height="18px" viewBox="0 0 22 18" version="1.1" xmlns="http://www.w3.org/2000/svg" xmlns:xlink="http://www.w3.org/1999/xlink" xmlns:sketch="http://www.bohemiancoding.com/sketch/ns">
    <!-- Generator: Sketch 3.5.1 (25234) - http://www.bohemiancoding.com/sketch -->
    <title>Home Copy 20</title>
    <desc>Created with Sketch.</desc>
    <defs></defs>
    <g id="customer-header---visuals---most-recent" stroke="none" stroke-width="1" fill="none" fill-rule="evenodd" sketch:type="MSPage">
        <g id="02-EIN-CustomerHeader_SpacingSpecs" sketch:type="MSArtboardGroup" transform="translate(-1428.000000, -276.000000)" fill="#2E2E2E">
            <g id="Home-Copy-20" sketch:type="MSLayerGroup" transform="translate(1428.000000, 276.000000)">
                <path d="M8,7.482 C8,8.22 8.345,8.921 8.919,9.386 L8.179,13.082 C8.141,13.203 8.141,13.307 8.141,13.375 C8.141,13.658 8.242,13.937 8.433,14.173 C8.675,14.455 9.027,14.617 9.4,14.617 L11.733,14.617 C12.114,14.617 12.467,14.453 12.701,14.173 C12.893,13.949 12.999,13.665 12.999,13.375 C12.999,13.297 12.99,13.221 12.976,13.136 L12.21,9.331 C12.744,8.865 13.055,8.195 13.055,7.481 C13.055,6.113 11.923,5 10.533,5 C9.136,5 8,6.113 8,7.482 L8,7.482 Z M10.532,6 C11.372,6 12.054,6.665 12.054,7.481 C12.054,7.972 11.804,8.43 11.383,8.705 C11.212,8.817 11.127,9.022 11.167,9.222 L11.997,13.375 C11.997,13.427 11.976,13.479 11.935,13.527 C11.874,13.601 11.79,13.617 11.732,13.617 L9.401,13.617 C9.319,13.617 9.246,13.584 9.201,13.531 C9.163,13.484 9.141,13.427 9.146,13.329 L9.962,9.263 C10.004,9.055 9.909,8.842 9.726,8.734 C9.278,8.468 9,7.988 9,7.482 C9,6.665 9.687,6 10.532,6 L10.532,6 Z" id="Shape-Copy" sketch:type="MSShapeGroup"></path>
                <path d="M21.7771603,7.08412542 L19.5001603,5.56212542 L19.5001603,1.33312542 C19.5001603,0.78112542 19.0531603,0.33312542 18.5001603,0.33312542 L16.5001603,0.33312542 C15.9471603,0.33312542 15.5001603,0.78112542 15.5001603,1.33312542 L15.5001603,2.88812542 L11.3051603,0.0841254204 C11.1371603,-0.0278745796 10.9181603,-0.0278745796 10.7501603,0.0831254204 L0.223160253,7.08312542 C-0.00683974708,7.23612542 -0.0688397471,7.54612542 0.0831602529,7.77612542 C0.180160253,7.92212542 0.339160253,8.00012542 0.500160253,8.00012542 C0.595160253,8.00012542 0.691160253,7.97312542 0.776160253,7.91712542 L2.50016025,6.77112542 L2.50016025,17.0021254 C2.50016025,17.5551254 2.94816025,18.0021254 3.50016025,18.0021254 L18.5001603,18.0021254 C19.0531603,18.0021254 19.5001603,17.5551254 19.5001603,17.0021254 L19.5001603,12.4691254 L19.5001603,6.76512542 L21.2231603,7.91612542 C21.4521603,8.06912542 21.7621603,8.00712542 21.9161603,7.77812542 C22.0681603,7.54812542 22.0081603,7.23812542 21.7771603,7.08412542 L21.7771603,7.08412542 Z M18.5001603,13.4691254 L18.5001603,17.0021254 L3.50016025,17.0021254 L3.50016025,6.10512542 L11.0251603,1.10112542 L18.5001603,6.09612542 L18.5001603,12.4691254 L18.5001603,13.4691254 Z M18.5001603,4.89412542 L16.5001603,3.55712542 L16.5001603,1.33312542 L18.5001603,1.33312542 L18.5001603,4.89412542 L18.5001603,4.89412542 Z" id="Shape-Copy-2" sketch:type="MSShapeGroup"></path>
            </g>
        </g>
    </g>
</svg>