<?xml version="1.0" encoding="UTF-8" standalone="no"?>
<svg width="20px" height="15px" viewBox="0 0 20 15" version="1.1" xmlns="http://www.w3.org/2000/svg" xmlns:xlink="http://www.w3.org/1999/xlink">
    <!-- Generator: Sketch 3.7.2 (28276) - http://www.bohemiancoding.com/sketch -->
    <title>icon-weather-partly-cloudy</title>
    <desc>Created with Sketch.</desc>
    <defs></defs>
    <g id="weather-icons" stroke="none" stroke-width="1" fill="none" fill-rule="evenodd">
        <g id="PartlyCloudyDay">
            <g id="Shape">
                <path d="M5.50561798,8.14615385 C5.79775281,7.09615385 6.38202247,6.15 7.19101124,5.42307692 C7.59550562,5.05384615 8.05617978,4.76538462 8.53932584,4.53461538 C8.01123596,3.85384615 7.20224719,3.42692308 6.29213483,3.42692308 C4.70786517,3.42692308 3.41573034,4.75384615 3.41573034,6.38076923 C3.41573034,7.11923077 3.68539326,7.8 4.12359551,8.31923077 C4.47191011,8.20384615 4.83146067,8.13461538 5.21348315,8.13461538 C5.30337079,8.13461538 5.40449438,8.13461538 5.50561798,8.14615385 L5.50561798,8.14615385 Z" fill="#FECE00"></path>
                <path d="M3.11235955,1.15384615 L4.08988764,3.58846154 C4.37078652,3.34615385 4.69662921,3.16153846 5.05617978,3.02307692 L3.49438202,0.934615385 L3.49438202,0.934615385 C3.42696629,0.842307692 3.28089888,0.819230769 3.19101124,0.9 C3.11235955,0.957692308 3.08988764,1.06153846 3.11235955,1.15384615 C3.11235955,1.14230769 3.11235955,1.15384615 3.11235955,1.15384615 L3.11235955,1.15384615 Z" fill="#FECE00"></path>
                <path d="M6.85393258,2.83846154 L6.52808989,0.230769231 C6.52808989,0.230769231 6.52808989,0.230769231 6.52808989,0.219230769 C6.50561798,0.103846154 6.40449438,0.0115384615 6.28089888,0.0230769231 C6.19101124,0.0346153846 6.11235955,0.103846154 6.08988764,0.196153846 L6.08988764,0.207692308 L5.75280899,2.81538462 C5.93258427,2.78076923 6.11235955,2.76923077 6.30337079,2.76923077 C6.48314607,2.79230769 6.66292135,2.81538462 6.85393258,2.83846154 L6.85393258,2.83846154 Z" fill="#FECE00"></path>
                <path d="M0.280898876,6.58846154 L0.292134831,6.58846154 L2.83146067,6.93461538 C2.79775281,6.75 2.78651685,6.56538462 2.78651685,6.36923077 C2.78651685,6.17307692 2.79775281,5.97692308 2.83146067,5.79230769 L0.292134831,6.12692308 C0.292134831,6.12692308 0.292134831,6.12692308 0.280898876,6.12692308 C0.168539326,6.15 0.0786516854,6.25384615 0.101123596,6.38076923 C0.123595506,6.48461538 0.191011236,6.56538462 0.280898876,6.58846154 L0.280898876,6.58846154 Z" fill="#FECE00"></path>
                <path d="M9.48314607,1.17692308 C9.48314607,1.17692308 9.48314607,1.16538462 9.48314607,1.17692308 C9.50561798,1.11923077 9.50561798,1.06153846 9.48314607,1.00384615 C9.46067416,0.946153846 9.41573034,0.9 9.35955056,0.876923077 C9.26966292,0.842307692 9.16853933,0.865384615 9.11235955,0.934615385 L9.1011236,0.946153846 L7.52808989,3.03461538 C7.87640449,3.17307692 8.20224719,3.36923077 8.48314607,3.61153846 L9.48314607,1.17692308 L9.48314607,1.17692308 Z" fill="#FECE00"></path>
                <path d="M1,3.48461538 L3.03370787,5.1 C3.16853933,4.74230769 3.35955056,4.40769231 3.59550562,4.11923077 L1.2247191,3.10384615 C1.2247191,3.10384615 1.2247191,3.10384615 1.21348315,3.10384615 C1.1011236,3.05769231 0.97752809,3.11538462 0.93258427,3.23076923 C0.898876404,3.32307692 0.921348315,3.42692308 0.988764045,3.48461538 C0.988764045,3.47307692 1,3.48461538 1,3.48461538 L1,3.48461538 Z" fill="#FECE00"></path>
                <path d="M19.6966292,10.4307692 C19.6966292,10.4192308 19.6853933,10.3961538 19.6853933,10.3846154 C19.6629213,10.3038462 19.6292135,10.2346154 19.5955056,10.1538462 C19.5842697,10.1423077 19.5842697,10.1307692 19.5730337,10.1076923 C19.5393258,10.0269231 19.505618,9.95769231 19.4606742,9.88846154 C19.4157303,9.80769231 19.3707865,9.73846154 19.3258427,9.66923077 C19.3146067,9.65769231 19.3146067,9.64615385 19.3033708,9.63461538 C19.258427,9.56538462 19.2134831,9.50769231 19.1685393,9.43846154 C19.1573034,9.42692308 19.1460674,9.41538462 19.1348315,9.40384615 C19.0898876,9.34615385 19.0337079,9.27692308 18.9775281,9.21923077 C18.9101124,9.15 18.8651685,9.10384615 18.8089888,9.04615385 C18.7303371,8.96538462 18.6741573,8.91923077 18.6067416,8.87307692 C18.5168539,8.80384615 18.4494382,8.75769231 18.3820225,8.71153846 C18.2921348,8.65384615 18.2359551,8.61923077 18.1685393,8.58461538 C18.0786517,8.53846154 18.011236,8.50384615 17.9438202,8.46923077 C17.9325843,8.45769231 17.9213483,8.45769231 17.8988764,8.44615385 C17.8314607,8.41153846 17.752809,8.38846154 17.6853933,8.36538462 C17.5842697,8.33076923 17.505618,8.30769231 17.4382022,8.28461538 C17.3370787,8.25 17.2696629,8.23846154 17.1910112,8.22692308 C17.0674157,8.20384615 16.988764,8.19230769 16.9213483,8.18076923 C16.8089888,8.16923077 16.7303371,8.16923077 16.6516854,8.16923077 C16.5842697,8.16923077 16.5168539,8.16923077 16.4606742,8.18076923 C16.3595506,8.18076923 16.3146067,8.19230769 16.2696629,8.19230769 C16.247191,8.19230769 16.2247191,8.19230769 16.2022472,8.20384615 C16.1573034,8.21538462 16.1123596,8.21538462 16.0674157,8.22692308 C16.0449438,8.22692308 16.0337079,8.23846154 16.011236,8.23846154 C15.9438202,8.25 15.8876404,8.26153846 15.8202247,8.28461538 C15.8202247,8.28461538 15.6966292,8.31923077 15.4719101,8.37692308 C14.9101124,6.28846154 13.0337079,4.73076923 10.7977528,4.73076923 C10.505618,4.73076923 10.2134831,4.75384615 9.94382022,4.81153846 C9.78651685,4.84615385 9.62921348,4.88076923 9.47191011,4.92692308 C9.26966292,4.98461538 9.07865169,5.05384615 8.8988764,5.13461538 C7.39325843,5.80384615 6.28089888,7.23461538 6.03370787,8.95384615 C5.98876404,8.94230769 5.96629213,8.93076923 5.94382022,8.93076923 C5.85393258,8.90769231 5.80898876,8.89615385 5.75280899,8.88461538 C5.6741573,8.86153846 5.62921348,8.86153846 5.59550562,8.85 C5.57303371,8.85 5.56179775,8.85 5.53932584,8.83846154 C5.50561798,8.83846154 5.46067416,8.82692308 5.42696629,8.82692308 L5.2247191,8.82692308 C5.14606742,8.82692308 5.07865169,8.82692308 5.01123596,8.83846154 C4.91011236,8.85 4.84269663,8.85 4.78651685,8.86153846 C4.68539326,8.88461538 4.62921348,8.89615385 4.56179775,8.91923077 C4.48314607,8.93076923 4.41573034,8.95384615 4.35955056,8.97692308 C4.26966292,9.01153846 4.20224719,9.03461538 4.14606742,9.05769231 C4.05617978,9.09230769 4,9.12692308 3.94382022,9.15 C3.86516854,9.19615385 3.82022472,9.21923077 3.76404494,9.25384615 C3.68539326,9.3 3.64044944,9.33461538 3.58426966,9.38076923 C3.49438202,9.43846154 3.4494382,9.48461538 3.40449438,9.53076923 C3.33707865,9.6 3.29213483,9.64615385 3.24719101,9.69230769 C3.19101124,9.75 3.14606742,9.80769231 3.1011236,9.85384615 C3.08988764,9.86538462 3.07865169,9.87692308 3.07865169,9.88846154 C3.03370787,9.93461538 3,9.99230769 2.96629213,10.05 C2.95505618,10.0615385 2.95505618,10.0730769 2.94382022,10.0846154 C2.91011236,10.1423077 2.87640449,10.2 2.84269663,10.2576923 C2.79775281,10.3269231 2.76404494,10.3961538 2.74157303,10.4538462 C2.74157303,10.4653846 2.73033708,10.4769231 2.73033708,10.4884615 C2.70786517,10.5461538 2.6741573,10.6153846 2.65168539,10.6846154 C2.65168539,10.6961538 2.64044944,10.7076923 2.64044944,10.7192308 C2.61797753,10.7884615 2.59550562,10.8576923 2.57303371,10.9269231 C2.5505618,11.0192308 2.52808989,11.1 2.51685393,11.1923077 C2.50561798,11.2846154 2.49438202,11.3653846 2.48314607,11.4576923 C2.47191011,11.6307692 2.47191011,11.8038462 2.49438202,11.9769231 C1.76404494,12.1846154 1.31460674,12.3 1.31460674,12.3 C0.629213483,12.4846154 0.213483146,13.2115385 0.404494382,13.9153846 C0.415730337,13.95 0.426966292,13.9846154 0.438202247,14.0307692 C0.438202247,14.0423077 0.449438202,14.0538462 0.449438202,14.0653846 C0.460674157,14.0884615 0.471910112,14.1115385 0.483146067,14.1346154 C0.494382022,14.1461538 0.494382022,14.1576923 0.505617978,14.1807692 C0.516853933,14.2038462 0.528089888,14.2153846 0.539325843,14.2384615 C0.550561798,14.25 0.550561798,14.2615385 0.561797753,14.2846154 C0.573033708,14.3076923 0.584269663,14.3192308 0.595505618,14.3423077 C0.606741573,14.3538462 0.617977528,14.3653846 0.629213483,14.3769231 C0.640449438,14.3884615 0.651685393,14.4115385 0.662921348,14.4230769 C0.674157303,14.4346154 0.685393258,14.4461538 0.696629213,14.4576923 C0.707865169,14.4692308 0.719101124,14.4923077 0.741573034,14.5038462 C0.752808989,14.5153846 0.764044944,14.5269231 0.775280899,14.5384615 C0.786516854,14.55 0.797752809,14.5615385 0.820224719,14.5730769 C0.831460674,14.5846154 0.842696629,14.5961538 0.853932584,14.6076923 C0.865168539,14.6192308 0.887640449,14.6307692 0.898876404,14.6423077 C0.91011236,14.6538462 0.921348315,14.6653846 0.943820225,14.6769231 C0.95505618,14.6884615 0.97752809,14.7 0.988764045,14.7115385 C1,14.7230769 1.02247191,14.7230769 1.03370787,14.7346154 C1.04494382,14.7461538 1.06741573,14.7576923 1.07865169,14.7576923 C1.08988764,14.7692308 1.11235955,14.7692308 1.12359551,14.7807692 C1.14606742,14.7923077 1.15730337,14.7923077 1.17977528,14.8038462 C1.19101124,14.8153846 1.21348315,14.8153846 1.2247191,14.8269231 C1.24719101,14.8384615 1.25842697,14.8384615 1.28089888,14.85 C1.34831461,14.8615385 1.35955056,14.8730769 1.38202247,14.8730769 C1.4494382,14.8846154 1.46067416,14.8961538 1.48314607,14.8961538 C1.5505618,14.9076923 1.56179775,14.9076923 1.58426966,14.9076923 L1.73033708,14.9076923 L16.5730337,14.9076923 C16.5730337,14.9076923 17.1910112,14.8730769 17.494382,14.7923077 C19.2134831,14.3076923 20.247191,12.4730769 19.7752809,10.6846154 C19.752809,10.6038462 19.7303371,10.5230769 19.6966292,10.4307692 Z" fill="#B9B9B9"></path>
                <path d="M3.53932584,8.57307692 C3.3258427,8.29615385 3.14606742,7.98461538 3.02247191,7.63846154 L0.97752809,9.24230769 C0.97752809,9.24230769 0.97752809,9.24230769 0.966292135,9.24230769 C0.921348315,9.27692308 0.898876404,9.33461538 0.887640449,9.39230769 C0.876404494,9.45 0.898876404,9.50769231 0.93258427,9.56538462 C0.988764045,9.64615385 1.08988764,9.66923077 1.17977528,9.64615385 L1.19101124,9.64615385 L3.21348315,8.79230769 L3.57303371,8.64230769 C3.56179775,8.61923077 3.5505618,8.59615385 3.53932584,8.57307692 L3.53932584,8.57307692 Z" fill="#FECE00"></path>
            </g>
        </g>
    </g>
</svg>