<?xml version="1.0" encoding="UTF-8" standalone="no"?>
<svg width="20px" height="18px" viewBox="0 0 20 18" version="1.1" xmlns="http://www.w3.org/2000/svg" xmlns:xlink="http://www.w3.org/1999/xlink" xmlns:sketch="http://www.bohemiancoding.com/sketch/ns">
    <!-- Generator: Sketch 3.5.1 (25234) - http://www.bohemiancoding.com/sketch -->
    <title>phone icon copy 21</title>
    <desc>Created with Sketch.</desc>
    <defs></defs>
    <g id="customer-header---visuals---most-recent" stroke="none" stroke-width="1" fill="none" fill-rule="evenodd" sketch:type="MSPage">
        <g id="02-EIN-CustomerHeader_SpacingSpecs" sketch:type="MSArtboardGroup" transform="translate(-1319.000000, -276.000000)" fill="#2E2E2E">
            <path d="M1333.66549,294 L1333.66549,294 C1328.34349,293.999 1321.99149,288.657 1319.20549,281.839 C1318.79249,280.824 1319.01749,279.208 1319.74149,277.994 C1320.21949,277.194 1321.12049,276.204 1322.70549,276.032 C1322.70549,276.032 1322.93549,276 1323.23449,276 C1324.37949,276 1324.78149,276.449 1324.91749,276.825 C1324.97049,276.982 1325.09949,277.25 1325.25849,277.584 C1326.18249,279.535 1326.88949,281.216 1326.18849,282.028 C1325.76349,282.515 1325.42849,282.815 1324.75949,283.413 C1324.84549,283.479 1327.55849,287.759 1330.99549,288.929 C1331.01149,288.932 1331.25449,288.996 1331.41649,288.855 C1331.60949,288.679 1331.95449,288.268 1332.26049,287.906 C1332.87949,287.17 1333.09849,286.925 1333.31749,286.834 C1333.65049,286.672 1334.16349,286.587 1335.36849,287.265 C1335.89649,287.564 1336.42749,287.787 1336.89649,287.984 C1337.55449,288.26 1338.12249,288.499 1338.53849,288.87 C1338.78149,289.112 1339.01749,289.626 1338.99949,290.009 C1338.90349,292.23 1337.24249,293.023 1337.17249,293.055 C1336.18449,293.671 1334.98649,294 1333.66549,294 L1333.66549,294 Z M1323.23349,276.997 C1323.01149,276.997 1322.83949,277.019 1322.82749,277.021 C1321.63649,277.15 1320.95849,277.899 1320.59749,278.504 C1319.98249,279.534 1319.87549,280.841 1320.12849,281.462 C1322.77249,287.933 1328.71849,293.003 1333.66449,293.003 L1333.66549,293.003 C1334.79849,293.003 1335.81749,292.726 1336.69749,292.177 C1336.79849,292.126 1337.93349,291.56 1338.00249,289.962 C1338.00149,289.877 1337.90449,289.653 1337.84849,289.588 C1337.58349,289.352 1337.08649,289.144 1336.51049,288.902 C1336.01649,288.695 1335.45549,288.46 1334.87749,288.132 C1334.16349,287.731 1333.92049,287.687 1333.84949,287.687 C1333.83949,287.692 1333.70749,287.751 1333.69749,287.755 C1333.64749,287.805 1333.27149,288.252 1333.02249,288.547 C1332.68149,288.951 1332.32949,289.369 1332.08149,289.597 C1331.82149,289.825 1331.49649,289.94 1331.13549,289.94 C1330.91849,289.94 1330.75849,289.899 1330.68249,289.874 C1327.05649,288.641 1324.32849,284.517 1324.00349,284.01 C1323.80249,283.79 1323.75949,283.559 1323.76049,283.4 C1323.76249,283.005 1324.03149,282.732 1324.08449,282.68 C1324.75149,282.081 1325.05249,281.812 1325.43649,281.375 C1325.58649,281.201 1325.52349,280.473 1324.35749,278.011 C1324.17649,277.628 1324.03349,277.321 1323.97749,277.153 C1323.96449,277.119 1323.75749,276.997 1323.23349,276.997 L1323.23349,276.997 Z" id="phone-icon-copy-21" sketch:type="MSShapeGroup"></path>
        </g>
    </g>
</svg>