<?xml version="1.0" encoding="UTF-8" standalone="no"?>
<svg width="18px" height="20px" viewBox="0 0 18 20" version="1.1" xmlns="http://www.w3.org/2000/svg" xmlns:xlink="http://www.w3.org/1999/xlink">
    <!-- Generator: Sketch 3.7.2 (28276) - http://www.bohemiancoding.com/sketch -->
    <title>cellularoffline</title>
    <desc>Created with Sketch.</desc>
    <defs></defs>
    <g id="customer-header---visuals---most-recent" stroke="none" stroke-width="1" fill="none" fill-rule="evenodd">
        <g id="03-EIN-CustomerHeader_icons" transform="translate(-208.000000, -123.000000)">
            <g id="cellularoffline" transform="translate(208.000000, 123.000000)">
                <polygon id="Shape" fill="#F15546" points="4.98571429 10.4142857 4.98571429 12.5357143 6.85 10.4142857"></polygon>
                <polygon id="Shape" fill="#FB543F" points="4.98571429 18.7714286 7.12857143 18.7714286 7.12857143 13.3428571 4.98571429 15.7857143"></polygon>
                <polygon id="Shape" fill="#F15546" points="2.84285714 18.7714286 2.84285714 18.2357143 2.37142857 18.7714286"></polygon>
                <polygon id="Shape" fill="#FB543F" points="0.7 15.0571429 0.7 17.4285714 2.77857143 15.0571429"></polygon>
                <polygon id="Shape" fill="#F15546" points="11.4357143 4.84285714 9.29285714 4.84285714 9.29285714 7.62857143 11.4357143 5.18571429"></polygon>
                <polygon id="Shape" fill="#FB543F" points="9.29285714 18.7714286 11.4357143 18.7714286 11.4357143 8.42857143 9.29285714 10.8785714"></polygon>
                <polygon id="Shape" fill="#FB543F" points="13.5571429 6.01428571 13.5571429 18.7714286 15.7 18.7714286 15.7 3.56428571"></polygon>
                <polygon id="Shape" fill="#F15546" points="15.7 0.2 13.5571429 0.2 13.5571429 2.76428571 15.7 0.314285714"></polygon>
                <polygon id="Shape" fill="#FB543F" points="1.04285714 19.75 0 18.7714286 16.45 0 17.4857143 0.978571429"></polygon>
            </g>
        </g>
    </g>
</svg>