<?xml version="1.0" encoding="UTF-8" standalone="no"?>
<svg width="21px" height="21px" viewBox="0 0 21 21" version="1.1" xmlns="http://www.w3.org/2000/svg" xmlns:xlink="http://www.w3.org/1999/xlink" xmlns:sketch="http://www.bohemiancoding.com/sketch/ns">
    <!-- Generator: Sketch 3.3.3 (12081) - http://www.bohemiancoding.com/sketch -->
    <title>bell copy 2</title>
    <desc>Created with Sketch.</desc>
    <defs></defs>
    <g id="application-header" stroke="none" stroke-width="1" fill="none" fill-rule="evenodd" sketch:type="MSPage">
        <g id="Header---CTI-smallindicator-fpr-360-768" sketch:type="MSArtboardGroup" transform="translate(-686.000000, -11.000000)" fill="#FFFFFF">
            <g id="news_alerts-section" sketch:type="MSLayerGroup" transform="translate(686.000000, 11.000000)">
                <path d="M11.724826,2.34261596 C11.83763,2.35602556 11.953175,2.37103593 12.0716582,2.38774431 C18.9410582,3.56551281 15.8210582,11.8944192 19.9640582,17.3135563 C20.1628582,17.5374926 20.2746582,17.7884695 20.2746582,18.069892 C20.2746582,20.6006922 11.2982582,20.673802 10.2746582,20.673802 C9.2510582,20.673802 0.274658203,20.6006922 0.274658203,18.069892 C0.274658203,17.7884695 0.386458203,17.5374926 0.584858203,17.3135563 C4.7282582,11.8944192 1.6082582,3.56551281 8.4776582,2.38774431 C8.54380675,2.3779768 8.61022601,2.36853414 8.67704957,2.35948229 C8.67461481,2.32309898 8.67337725,2.28637582 8.67337725,2.24935442 C8.67337725,1.37920083 9.35705627,0.673801967 10.2004171,0.673801967 C11.0437779,0.673801967 11.7274569,1.37920083 11.7274569,2.24935442 C11.7274569,2.28066329 11.7265718,2.31175886 11.724826,2.34261596 Z M11.7700523,16.6928313 C11.2925121,16.6765419 10.7938297,16.6677867 10.2746582,16.6677867 C5.0942582,16.6677867 1.9538582,17.5394956 1.5020582,18.069892 C1.9538582,18.6002885 5.0940582,19.4719974 10.2746582,19.4719974 C15.4552582,19.4719974 18.5954582,18.6002885 19.0472582,18.069892 C18.7859122,17.7630816 17.6249333,17.3420645 15.6898624,17.0416294 C15.4738114,17.3861531 15.1654165,17.6664595 14.7990448,17.8486729 C14.5033768,17.9958439 14.1714685,18.0806056 13.8187884,18.0806056 C13.4661082,18.0806056 13.1341999,17.9958439 12.838532,17.8486729 C12.3552936,17.6082342 11.9728134,17.1971875 11.7700523,16.6928313 L11.7700523,16.6928313 Z" id="bell-copy-2" sketch:type="MSShapeGroup"></path>
            </g>
        </g>
    </g>
</svg>