<?xml version="1.0" encoding="UTF-8" standalone="no"?>
<svg width="20px" height="18px" viewBox="0 0 20 18" version="1.1" xmlns="http://www.w3.org/2000/svg" xmlns:xlink="http://www.w3.org/1999/xlink">
    <!-- Generator: Sketch 3.7.2 (28276) - http://www.bohemiancoding.com/sketch -->
    <title>icon-weather-tornado</title>
    <desc>Created with Sketch.</desc>
    <defs></defs>
    <g id="weather-icons" stroke="none" stroke-width="1" fill="none" fill-rule="evenodd">
        <g id="tornado" fill="#B9B9B9">
            <g id="Shape">
                <path d="M7.35150994,16.5590441 L10.9479771,16.0095955 C11.4546617,15.934181 11.9216064,16.3112536 11.9911513,16.8607022 C12.0606962,17.4101508 11.7129715,17.9165054 11.2062869,17.9919199 C11.116872,18.0026934 11.0274571,18.0026934 10.9479771,17.9919199 L7.35150994,17.4424713 C7.12300512,17.4101508 6.97398023,17.1839072 7.00378521,16.9361167 C7.02365519,16.7314202 7.17268008,16.5805911 7.35150994,16.5590441 L7.35150994,16.5590441 Z"></path>
                <path d="M7.38076107,13.5566143 L14.0062826,13.0031356 C14.516708,12.9597255 14.957075,13.3721214 14.9971083,13.9256001 C15.0371417,14.4790788 14.6568248,14.9565899 14.1463994,15 L14.0062826,15 L7.38076107,14.4465213 C7.15056923,14.4248162 6.99043578,14.2186183 7.00044412,13.9690102 C7.02046081,13.7411072 7.18059426,13.5674668 7.38076107,13.5566143 L7.38076107,13.5566143 Z"></path>
                <path d="M3.38167532,10.5519274 L13.0501758,10.0007953 C13.5487537,9.9791823 13.9691233,10.4006363 13.9984514,10.9517684 C14.0277795,11.5029005 13.636738,11.9675805 13.1479362,12 L13.0501758,12 L3.38167532,11.4488679 C3.15682648,11.4380614 2.99063385,11.2219312 3.00040988,10.9841879 C3.01018592,10.7464446 3.17637855,10.5627339 3.38167532,10.5519274 L3.38167532,10.5519274 Z"></path>
                <path d="M0.395248751,6.55492583 L12.0273798,6.00079965 C12.5436884,5.97906921 12.9790075,6.40281276 12.9992549,6.95693895 C13.0195023,7.51106513 12.624678,7.97826956 12.1083693,8 L12.0273798,8 L0.395248751,7.44587382 C0.162403657,7.4350086 -0.00969923823,7.22856943 0.000424461504,6.97866939 C0.0105481612,6.75049978 0.182651057,6.56579105 0.395248751,6.55492583 L0.395248751,6.55492583 Z"></path>
                <path d="M1.40507442,3.55491214 L16.003219,3.0007807 C16.5323629,2.97905006 16.9785038,3.41366295 16.9992545,3.96779438 C17.0200052,4.52192582 16.6049905,4.98913468 16.0758466,5 L16.003219,5 L1.40507442,4.44586856 C1.16644092,4.43500324 0.990059644,4.22856212 1.00043501,3.98952503 C1.00043501,3.75048794 1.18719166,3.56577746 1.40507442,3.55491214 L1.40507442,3.55491214 Z"></path>
                <path d="M2.410006,0.56577746 L19.0254992,0.000780701727 C19.5482569,-0.0209499428 19.9890133,0.413662948 19.9992635,0.967794384 C20.0197638,1.52192582 19.6097578,1.97826936 19.0870001,2 L19.0254992,2 L2.410006,1.44586856 C2.17425255,1.43500324 2,1.22856212 2,0.989525029 C2.01025015,0.761353261 2.19475285,0.56577746 2.410006,0.56577746 L2.410006,0.56577746 Z"></path>
            </g>
        </g>
    </g>
</svg>