<?xml version="1.0" encoding="UTF-8" standalone="no"?>
<svg width="21px" height="15px" viewBox="0 0 21 15" version="1.1" xmlns="http://www.w3.org/2000/svg" xmlns:xlink="http://www.w3.org/1999/xlink">
    <!-- Generator: Sketch 3.7.2 (28276) - http://www.bohemiancoding.com/sketch -->
    <title>icon-weather-wind</title>
    <desc>Created with Sketch.</desc>
    <defs></defs>
    <g id="weather-icons" stroke="none" stroke-width="1" fill="none" fill-rule="evenodd">
        <g id="Breezy_Windy" fill="#B9B9B9">
            <g id="Shape">
                <path d="M5.80808081,6.73448276 C5.36363636,6.73448276 5,6.36206897 5,5.90689655 C5,5.45172414 5.36363636,5.07931034 5.80808081,5.07931034 L16.5959596,5.07931034 C17.1212121,5.06896552 17.6060606,4.87241379 17.959596,4.52068966 C18.3333333,4.15862069 18.5353535,3.67241379 18.5454545,3.15517241 C18.5454545,2.76206897 18.4040404,2.38965517 18.1414141,2.11034483 C17.8686869,1.83103448 17.5151515,1.67586207 17.1313131,1.66551724 L17.1212121,1.66551724 C16.8383838,1.66551724 16.5757576,1.77931034 16.3737374,1.97586207 C16.1717172,2.18275862 16.0606061,2.45172414 16.0505051,2.74137931 C16.0505051,2.85517241 16.0707071,2.96896552 16.1212121,3.08275862 C16.3131313,3.49655172 16.1313131,3.98275862 15.7272727,4.17931034 C15.3232323,4.37586207 14.8484848,4.18965517 14.6565657,3.77586207 C14.5050505,3.44482759 14.4343434,3.09310345 14.4343434,2.72068966 C14.4444444,1.9862069 14.7272727,1.30344828 15.2424242,0.786206897 C15.7474747,0.279310345 16.4141414,0 17.1111111,0 L17.1313131,0 C17.9494949,0.0103448276 18.7171717,0.34137931 19.2828283,0.94137931 C19.8484848,1.54137931 20.1616162,2.32758621 20.1515152,3.15517241 C20.1414141,4.11724138 19.7575758,5.01724138 19.0808081,5.68965517 C18.4242424,6.33103448 17.5454545,6.69310345 16.6060606,6.70344828 L5.80808081,6.70344828 L5.80808081,6.73448276 Z"></path>
                <path d="M13.9090909,14.7344828 C13.2020202,14.7344828 12.5454545,14.4551724 12.040404,13.9482759 C11.5252525,13.4310345 11.2424242,12.7482759 11.2323232,12.0137931 C11.2323232,11.6517241 11.3030303,11.2896552 11.4545455,10.9586207 C11.6464646,10.5448276 12.1212121,10.3689655 12.5252525,10.5551724 C12.9292929,10.7517241 13.1010101,11.237931 12.9191919,11.6517241 C12.8686869,11.7551724 12.8484848,11.8689655 12.8484848,11.9931034 C12.8484848,12.2827586 12.969697,12.5517241 13.1717172,12.7586207 C13.3737374,12.9551724 13.6363636,13.0689655 13.9191919,13.0689655 L13.9393939,13.0689655 C14.3131313,13.0689655 14.6666667,12.9034483 14.9393939,12.6241379 C15.2121212,12.3448276 15.3535354,11.9724138 15.3434343,11.5793103 C15.3333333,11.062069 15.1313131,10.5758621 14.7676768,10.2137931 C14.4141414,9.86206897 13.9191919,9.66551724 13.3939394,9.65517241 L0.808080808,9.65517241 C0.363636364,9.65517241 0,9.28275862 0,8.82758621 C0,8.37241379 0.363636364,8 0.808080808,8 L13.3939394,8 C14.3434343,8.01034483 15.2222222,8.37241379 15.8787879,9.0137931 C16.5656566,9.6862069 16.9494949,10.5862069 16.959596,11.5482759 C16.969697,12.3758621 16.6565657,13.162069 16.0909091,13.762069 C15.5252525,14.362069 14.7575758,14.6931034 13.9494949,14.7034483 L13.9090909,14.7034483 L13.9090909,14.7344828 Z"></path>
            </g>
        </g>
    </g>
</svg>