<?xml version="1.0" encoding="UTF-8" standalone="no"?>
<svg width="21px" height="16px" viewBox="0 0 21 16" version="1.1" xmlns="http://www.w3.org/2000/svg" xmlns:xlink="http://www.w3.org/1999/xlink">
    <!-- Generator: Sketch 3.7.2 (28276) - http://www.bohemiancoding.com/sketch -->
    <title>icon-weather-partly-cloudy-night</title>
    <desc>Created with Sketch.</desc>
    <defs></defs>
    <g id="weather-icons" stroke="none" stroke-width="1" fill="none" fill-rule="evenodd">
        <g id="PartlyCloudyNight">
            <path d="M3.31467164,10.9793072 C2.62846494,10.9793072 2.01615742,10.5147981 1.83668797,9.84970543 C1.73111771,9.45909546 1.78390284,9.04737144 1.98448634,8.68843255 C2.18506984,8.34005068 2.52289468,8.08668206 2.91350464,7.98111179 L2.91350464,7.98111179 C2.9768468,7.95999774 3.16687327,7.90721261 3.76862376,7.74885722 C3.75806674,7.47437454 3.80029484,7.21044888 3.863637,6.94652323 C3.91642213,6.75649676 3.99032131,6.57702731 4.07477752,6.40811489 C3.58915432,3.95888482 4.15923373,1.55188285 5.6794455,0 C5.10936609,0.179469445 4.53928668,0.411724021 4.00087834,0.728434807 C0.179234862,2.92429625 -1.14039341,7.8227564 1.07658209,11.6549569 C3.29355759,15.4871574 8.19201774,16.8067857 12.0242182,14.5898102 C12.5626266,14.2730994 13.0588068,13.9141605 13.4916449,13.5024365 C11.116314,14.104187 8.38204421,13.1223835 6.41843734,10.9687502 L3.39912785,10.9687502 C3.3780138,10.9687502 3.34634272,10.9793072 3.31467164,10.9793072 L3.31467164,10.9793072 Z" id="Shape" fill="#D1D1D1"></path>
            <path d="M19.9670335,6.95955125 C19.6397656,5.75605027 18.552392,4.9220452 17.3172199,4.9220452 C17.0849653,4.9220452 16.8527107,4.95371628 16.6310132,5.00650141 L16.6098991,5.00650141 C16.567671,5.01705843 16.4621008,5.04872951 16.3037454,5.09095762 L15.9975916,5.17541383 L15.9131354,4.86926007 C15.4169552,3.03233751 13.748945,1.74438032 11.8381233,1.74438032 C9.76894617,1.74438032 7.97425171,3.28570614 7.66809796,5.33376922 L7.61531282,5.69270811 L7.15080367,5.5660238 C6.9607772,5.51323867 6.77075073,5.49212461 6.58072426,5.49212461 C5.55669272,5.49212461 4.64878847,6.18888834 4.38486281,7.1812488 C4.34263471,7.35016122 4.32152066,7.51907364 4.31096363,7.68798606 C4.31096363,7.80411335 4.31096363,7.90968361 4.32152066,8.0258109 L4.35319173,8.30029358 L4.08926608,8.37419276 C3.48751559,8.53254815 3.09690562,8.63811842 3.00189238,8.66978949 L2.98077833,8.68034652 C2.74852375,8.74368868 2.55849728,8.89148704 2.44236999,9.09207054 C2.32624271,9.30321107 2.29457163,9.53546564 2.35791378,9.76772022 C2.46348405,10.1794442 2.85409402,10.4539269 3.27637506,10.4328129 L3.29748912,10.4328129 L5.79950432,10.4328129 L17.2433207,10.4328129 C17.4016761,10.4222558 17.8345142,10.3905848 18.0350977,10.3377996 C19.4919673,9.93663264 20.3576434,8.42697789 19.9670335,6.95955125 L19.9670335,6.95955125 Z" id="Shape" fill="#B9B9B9"></path>
        </g>
    </g>
</svg>