<?xml version="1.0" encoding="UTF-8" standalone="no" ?>
<svg width="20px" height="20px" viewBox="0 0 19 19" version="1.1" xmlns="http://www.w3.org/2000/svg" xmlns:xlink="http://www.w3.org/1999/xlink" xmlns:sketch="http://www.bohemiancoding.com/sketch/ns">
    <!-- Generator: Sketch 3.5.2 (25235) - http://www.bohemiancoding.com/sketch -->
    <title>Account Notes text &amp; icon</title>
    <desc>Created with Sketch.</desc>
    <defs></defs>
    <g id="Page-1" stroke="none" stroke-width="1" fill="none" fill-rule="evenodd" sketch:type="MSPage">
        <g id="Notes_Panel_Specs" sketch:type="MSArtboardGroup" transform="translate(-3704.000000, -390.000000)">
            <g id="Account-Notes-text-&amp;-icon" sketch:type="MSLayerGroup" transform="translate(3704.000000, 390.000000)">
                <g id="Group-3" sketch:type="MSShapeGroup">
                    <path d="M13.9804528,1 L4.88428155,1 L0,5.67183431 L0,17.6733176 C0,18.4060241 0.59190969,19 1.31733863,19 L13.0964545,19 C13.8240005,19 14.4137931,18.4011078 14.4137931,17.66178 L14.4137931,7.02592985" id="Rectangle-65-Copy" stroke="#FFFFFF" stroke-width="0.81"></path>
                    <path d="M0,2 L0,5.88071187 L4.5862069,5.88071187" id="Line-Copy-10" stroke="#FFFFFF" stroke-width="0.81" stroke-linecap="square" transform="translate(2.293103, 3.940356) scale(-1, 1) translate(-2.293103, -3.940356) "></path>
                    <path d="M5.75582597,10.6749814 C5.75582597,10.6749814 14.3022269,1.86495354 14.8022842,1.41928487 C15.3023415,0.973616199 15.4352685,0.70450101 15.8019792,1.11738422 C16.1161832,1.47114965 16.6249706,1.9294462 17.2177321,2.53370497 C17.8104936,3.13796373 17.677087,3.05760125 17.0272284,3.72755291 C16.3773697,4.39750457 8.00074148,13.0008786 8.00074148,13.0008786 L5.75582597,10.6749814 Z M4.75456572,13.9587524 L5.43622103,11.1828061 L7.48140221,13.2646563 L4.75456572,13.9587524 L4.75456572,13.9587524 Z M17.8673542,2.05129561 C17.2514232,1.39013805 16.8286034,1.04379139 16.1523388,0.310801254 C15.4760742,-0.422188879 14.8879412,0.323344867 14.5282665,0.689220724 L5.04394539,10.3435904 C5.01281736,10.375029 4.99068728,10.4148842 4.97998702,10.4582051 L4.00723613,14.4189722 C3.98656518,14.5036336 4.01088395,14.5929984 4.0711945,14.6543903 C4.11740017,14.7014244 4.17965623,14.7269218 4.24312822,14.7269218 C4.26282643,14.7269218 4.28252464,14.7241988 4.30222284,14.7192478 L8.19322639,13.7290561 C8.23602742,13.718164 8.27493746,13.6958846 8.30606549,13.663951 C8.30606549,13.663951 16.7364817,5.08284007 17.7903866,4.00958126 C18.8442916,2.93632244 18.5859854,2.82269437 17.8673542,2.05129561 Z" id="Fill-1861" fill="#FFFFFF"></path>
                </g>
            </g>
        </g>
    </g>
</svg>