<?xml version="1.0" encoding="UTF-8" standalone="no"?>
<svg width="18px" height="20px" viewBox="0 0 18 20" version="1.1" xmlns="http://www.w3.org/2000/svg" xmlns:xlink="http://www.w3.org/1999/xlink">
    <!-- Generator: Sketch 3.7.2 (28276) - http://www.bohemiancoding.com/sketch -->
    <title>icon-weather-scattered-thunder-storms</title>
    <desc>Created with Sketch.</desc>
    <defs></defs>
    <g id="weather-icons" stroke="none" stroke-width="1" fill="none" fill-rule="evenodd">
        <g id="ScatteredTSTorms">
            <g id="Shape">
                <path d="M4.95505618,7.05940594 C5.21797753,6.15841584 5.74382022,5.34653465 6.47191011,4.72277228 C6.83595506,4.40594059 7.2505618,4.15841584 7.68539326,3.96039604 C7.21011236,3.37623762 6.48202247,3.00990099 5.66292135,3.00990099 C4.23707865,3.00990099 3.0741573,4.14851485 3.0741573,5.54455446 C3.0741573,6.17821782 3.31685393,6.76237624 3.71123596,7.20792079 C4.0247191,7.10891089 4.34831461,7.04950495 4.69213483,7.04950495 C4.77303371,7.04950495 4.86404494,7.04950495 4.95505618,7.05940594 L4.95505618,7.05940594 Z" fill="#FECE00"></path>
                <path d="M2.8011236,1.06930693 L3.68089888,3.15841584 C3.93370787,2.95049505 4.22696629,2.79207921 4.5505618,2.67326733 L3.14494382,0.871287129 L3.14494382,0.871287129 C3.08426966,0.792079208 2.95280899,0.772277228 2.87191011,0.841584158 C2.8011236,0.891089109 2.78089888,0.98019802 2.8011236,1.05940594 C2.8011236,1.05940594 2.8011236,1.05940594 2.8011236,1.06930693 L2.8011236,1.06930693 Z" fill="#FECE00"></path>
                <path d="M6.16853933,2.51485149 L5.8752809,0.267326733 C5.8752809,0.267326733 5.8752809,0.267326733 5.8752809,0.257425743 C5.85505618,0.158415842 5.76404494,0.0792079208 5.65280899,0.0891089109 C5.57191011,0.099009901 5.5011236,0.158415842 5.48089888,0.237623762 L5.48089888,0.247524752 L5.17752809,2.48514851 C5.33932584,2.45544554 5.5011236,2.44554455 5.67303371,2.44554455 C5.83483146,2.46534653 5.99662921,2.48514851 6.16853933,2.51485149 L6.16853933,2.51485149 Z" fill="#FECE00"></path>
                <path d="M0.252808989,5.72277228 L0.262921348,5.72277228 L2.54831461,6.01980198 C2.51797753,5.86138614 2.50786517,5.7029703 2.50786517,5.53465347 C2.50786517,5.36633663 2.51797753,5.1980198 2.54831461,5.03960396 L0.262921348,5.32673267 C0.262921348,5.32673267 0.262921348,5.32673267 0.252808989,5.32673267 C0.151685393,5.34653465 0.0707865169,5.43564356 0.091011236,5.54455446 C0.111235955,5.64356436 0.171910112,5.7029703 0.252808989,5.72277228 L0.252808989,5.72277228 Z" fill="#FECE00"></path>
                <path d="M8.53483146,1.07920792 L8.53483146,1.07920792 C8.55505618,1.02970297 8.55505618,0.98019802 8.53483146,0.930693069 C8.51460674,0.881188119 8.4741573,0.841584158 8.42359551,0.821782178 C8.34269663,0.792079208 8.25168539,0.811881188 8.2011236,0.871287129 L8.19101124,0.881188119 L6.78539326,2.67326733 C7.0988764,2.79207921 7.39213483,2.96039604 7.64494382,3.16831683 L8.53483146,1.07920792 L8.53483146,1.07920792 Z" fill="#FECE00"></path>
                <path d="M0.9,3.05940594 L2.73033708,4.44554455 C2.85168539,4.13861386 3.02359551,3.85148515 3.23595506,3.6039604 L1.10224719,2.73267327 C1.10224719,2.73267327 1.10224719,2.73267327 1.09213483,2.73267327 C0.991011236,2.69306931 0.879775281,2.74257426 0.839325843,2.84158416 C0.808988764,2.92079208 0.829213483,3.00990099 0.88988764,3.05940594 L0.9,3.05940594 L0.9,3.05940594 Z" fill="#FECE00"></path>
                <path d="M17.7977528,9.23762376 C17.7775281,9.16831683 17.7573034,9.0990099 17.7269663,9.01980198 C17.7269663,9.00990099 17.7168539,8.99009901 17.7168539,8.98019802 C17.6966292,8.91089109 17.6662921,8.85148515 17.6359551,8.78217822 C17.6258427,8.77227723 17.6258427,8.76237624 17.6157303,8.74257426 C17.5853933,8.67326733 17.5550562,8.61386139 17.5146067,8.55445545 C17.5146067,8.55445545 17.5146067,8.54455446 17.5044944,8.54455446 C17.4741573,8.48514851 17.4337079,8.42574257 17.3932584,8.36633663 C17.3831461,8.35643564 17.3831461,8.34653465 17.3730337,8.33663366 C17.3325843,8.27722772 17.2921348,8.22772277 17.2516854,8.16831683 C17.241573,8.15841584 17.2314607,8.14851485 17.2213483,8.13861386 C17.1808989,8.08910891 17.1303371,8.02970297 17.0797753,7.98019802 L17.0696629,7.97029703 C17.0191011,7.92079208 16.9786517,7.88118812 16.9280899,7.83168317 C16.9179775,7.82178218 16.9078652,7.82178218 16.9078652,7.81188119 C16.8573034,7.76237624 16.8067416,7.72277228 16.7460674,7.68316832 C16.7359551,7.67326733 16.7258427,7.66336634 16.7157303,7.66336634 C16.6651685,7.62376238 16.6044944,7.58415842 16.5438202,7.54455446 C16.5337079,7.54455446 16.5337079,7.53465347 16.5235955,7.53465347 C16.4629213,7.4950495 16.4123596,7.46534653 16.3516854,7.43564356 C16.341573,7.43564356 16.3314607,7.42574257 16.3314607,7.42574257 C16.2707865,7.3960396 16.2101124,7.36633663 16.1494382,7.33663366 C16.1393258,7.32673267 16.1292135,7.32673267 16.1089888,7.31683168 C16.0483146,7.28712871 15.9775281,7.26732673 15.9168539,7.24752475 C15.9067416,7.24752475 15.8966292,7.23762376 15.8865169,7.23762376 C15.8258427,7.21782178 15.7550562,7.1980198 15.694382,7.17821782 C15.6842697,7.17821782 15.6842697,7.17821782 15.6741573,7.16831683 C15.6033708,7.14851485 15.5426966,7.13861386 15.4719101,7.12871287 C15.4617978,7.12871287 15.441573,7.12871287 15.4314607,7.11881188 C15.3606742,7.10891089 15.2898876,7.0990099 15.2292135,7.08910891 L15.1988764,7.08910891 C15.1280899,7.07920792 15.0573034,7.07920792 14.9865169,7.07920792 L14.9764045,7.07920792 C14.9258427,7.07920792 14.8651685,7.07920792 14.8146067,7.08910891 L14.7640449,7.08910891 C14.7235955,7.08910891 14.6831461,7.0990099 14.6426966,7.0990099 C14.6224719,7.0990099 14.6022472,7.0990099 14.5820225,7.10891089 C14.541573,7.11881188 14.5011236,7.11881188 14.4606742,7.12871287 C14.4404494,7.12871287 14.4303371,7.13861386 14.4101124,7.13861386 C14.3494382,7.14851485 14.2988764,7.15841584 14.2382022,7.17821782 C14.2382022,7.17821782 14.1269663,7.20792079 13.9247191,7.25742574 C13.4292135,5.44554455 11.7404494,4.10891089 9.72808989,4.10891089 C9.46516854,4.10891089 9.20224719,4.12871287 8.95955056,4.17821782 C8.81797753,4.20792079 8.67640449,4.23762376 8.53483146,4.27722772 C8.35280899,4.32673267 8.18089888,4.38613861 8.01910112,4.45544554 C6.66404494,5.02970297 5.66292135,6.25742574 5.44044944,7.73267327 C5.4,7.72277228 5.37977528,7.71287129 5.35955056,7.71287129 C5.31910112,7.72277228 5.30898876,7.72277228 5.30898876,7.72277228 C5.25842697,7.71287129 5.21797753,7.7029703 5.16741573,7.69306931 C5.15730337,7.69306931 5.13707865,7.68316832 5.12696629,7.68316832 C5.09662921,7.67326733 5.05617978,7.67326733 5.0258427,7.66336634 C5.00561798,7.66336634 4.99550562,7.66336634 4.9752809,7.65346535 C4.94494382,7.65346535 4.90449438,7.64356436 4.8741573,7.64356436 L4.83370787,7.64356436 L4.69213483,7.64356436 L4.68202247,7.64356436 C4.62134831,7.64356436 4.56067416,7.64356436 4.5,7.65346535 L4.46966292,7.65346535 C4.40898876,7.66336634 4.34831461,7.66336634 4.29775281,7.67326733 C4.28764045,7.67326733 4.27752809,7.67326733 4.26741573,7.68316832 L4.26741573,7.68316832 C4.20674157,7.69306931 4.15617978,7.7029703 4.09550562,7.72277228 L4.0752809,7.72277228 C4.0247191,7.73267327 3.96404494,7.75247525 3.91348315,7.77227723 C3.90337079,7.77227723 3.89325843,7.78217822 3.88314607,7.78217822 C3.83258427,7.8019802 3.77191011,7.82178218 3.72134831,7.84158416 C3.71123596,7.84158416 3.7011236,7.85148515 3.69101124,7.85148515 C3.64044944,7.87128713 3.58988764,7.9009901 3.53932584,7.92079208 C3.52921348,7.92079208 3.52921348,7.93069307 3.51910112,7.93069307 C3.46853933,7.96039604 3.42808989,7.98019802 3.37752809,8.00990099 C3.36741573,8.00990099 3.36741573,8.01980198 3.35730337,8.01980198 C3.30674157,8.04950495 3.26629213,8.07920792 3.21573034,8.11881188 C3.20561798,8.12871287 3.19550562,8.12871287 3.18539326,8.13861386 C3.13483146,8.16831683 3.09438202,8.20792079 3.05393258,8.24752475 L3.03370787,8.26732673 C2.99325843,8.30693069 2.95280899,8.34653465 2.91235955,8.38613861 L2.90224719,8.3960396 C2.86179775,8.43564356 2.82134831,8.48514851 2.78089888,8.52475248 C2.77078652,8.53465347 2.76067416,8.54455446 2.76067416,8.55445545 C2.72022472,8.59405941 2.68988764,8.64356436 2.65955056,8.69306931 C2.63932584,8.7029703 2.62921348,8.71287129 2.62921348,8.72277228 C2.5988764,8.77227723 2.56853933,8.82178218 2.53820225,8.87128713 C2.53820225,8.87128713 2.53820225,8.88118812 2.52808989,8.88118812 C2.49775281,8.93069307 2.46741573,8.99009901 2.44719101,9.03960396 C2.44719101,9.04950495 2.43707865,9.05940594 2.43707865,9.06930693 C2.41685393,9.11881188 2.38651685,9.17821782 2.36629213,9.23762376 C2.36629213,9.24752475 2.35617978,9.25742574 2.35617978,9.26732673 C2.33595506,9.32673267 2.31573034,9.38613861 2.29550562,9.44554455 C2.2752809,9.52475248 2.25505618,9.59405941 2.24494382,9.67326733 C2.23483146,9.75247525 2.2247191,9.82178218 2.21460674,9.9009901 C2.20449438,10.049505 2.20449438,10.1980198 2.2247191,10.3465347 C1.56741573,10.5247525 1.16292135,10.6237624 1.16292135,10.6237624 C0.546067416,10.7821782 0.171910112,11.4059406 0.343820225,12.009901 C0.353932584,12.039604 0.364044944,12.0693069 0.374157303,12.1089109 C0.374157303,12.1188119 0.384269663,12.1287129 0.384269663,12.1386139 C0.394382022,12.1584158 0.404494382,12.1782178 0.414606742,12.1980198 C0.424719101,12.2079208 0.424719101,12.2178218 0.434831461,12.2376238 C0.44494382,12.2574257 0.45505618,12.2673267 0.465168539,12.2871287 C0.475280899,12.2970297 0.475280899,12.3069307 0.485393258,12.3267327 C0.495505618,12.3465347 0.505617978,12.3564356 0.515730337,12.3762376 C0.525842697,12.3861386 0.535955056,12.3960396 0.546067416,12.4059406 C0.556179775,12.4158416 0.566292135,12.4356436 0.576404494,12.4455446 C0.586516854,12.4554455 0.596629213,12.4653465 0.606741573,12.4752475 C0.616853933,12.4851485 0.626966292,12.5049505 0.647191011,12.5148515 C0.657303371,12.5247525 0.66741573,12.5346535 0.67752809,12.5445545 C0.687640449,12.5544554 0.697752809,12.5643564 0.717977528,12.5742574 C0.728089888,12.5841584 0.738202247,12.5940594 0.748314607,12.6039604 C0.758426966,12.6138614 0.778651685,12.6237624 0.788764045,12.6336634 C0.798876404,12.6435644 0.808988764,12.6534653 0.829213483,12.6633663 C0.839325843,12.6732673 0.859550562,12.6831683 0.869662921,12.6930693 C0.879775281,12.7029703 0.9,12.7029703 0.91011236,12.7128713 C0.920224719,12.7227723 0.940449438,12.7326733 0.950561798,12.7326733 C0.960674157,12.7425743 0.980898876,12.7425743 0.991011236,12.7524752 C1.01123596,12.7623762 1.02134831,12.7623762 1.04157303,12.7722772 C1.05168539,12.7821782 1.07191011,12.7821782 1.08202247,12.7920792 C1.10224719,12.8019802 1.11235955,12.8019802 1.13258427,12.8118812 C1.14269663,12.8118812 1.16292135,12.8217822 1.17303371,12.8217822 C1.19325843,12.8217822 1.20337079,12.8316832 1.22359551,12.8316832 C1.23370787,12.8316832 1.25393258,12.8415842 1.26404494,12.8415842 C1.28426966,12.8415842 1.29438202,12.8514851 1.31460674,12.8514851 C1.3247191,12.8514851 1.34494382,12.8514851 1.35505618,12.8613861 L1.40561798,12.8613861 L1.44606742,12.8613861 L1.53707865,12.8613861 L14.8955056,12.8613861 C14.8955056,12.8613861 15.4516854,12.8316832 15.7247191,12.7623762 C17.2921348,12.3465347 18.2224719,10.7722772 17.7977528,9.23762376 L17.7977528,9.23762376 Z" fill="#B9B9B9"></path>
                <path d="M3.18539326,7.43564356 C2.99325843,7.1980198 2.83146067,6.93069307 2.72022472,6.63366337 L0.88988764,8 C0.88988764,8 0.88988764,8 0.879775281,8 C0.839325843,8.02970297 0.819101124,8.07920792 0.808988764,8.12871287 C0.798876404,8.17821782 0.819101124,8.22772277 0.849438202,8.27722772 C0.9,8.34653465 0.991011236,8.36633663 1.07191011,8.34653465 L1.08202247,8.34653465 L2.90224719,7.61386139 L3.2258427,7.48514851 C3.20561798,7.46534653 3.19550562,7.44554455 3.18539326,7.43564356 L3.18539326,7.43564356 Z" fill="#FECE00"></path>
                <path d="M7.93820225,14.1386139 C7.93820225,14.0891089 7.88764045,14.0594059 7.83707865,14.0594059 L7.83707865,14.0594059 L7.83707865,14.0594059 L5.88539326,14.0594059 C5.83483146,14.0594059 5.80449438,14.0891089 5.78426966,14.1089109 L5.01573034,16.2475248 L5.01573034,16.2772277 C5.01573034,16.3267327 5.06629213,16.3564356 5.11685393,16.3564356 L5.11685393,16.3564356 L5.85505618,16.3564356 L5.16741573,18.2772277 L5.16741573,18.2772277 L5.16741573,18.3069307 C5.16741573,18.3861386 5.24831461,18.4554455 5.36966292,18.4554455 C5.44044944,18.4554455 5.51123596,18.4257426 5.54157303,18.3762376 L5.54157303,18.3762376 L7.79662921,15.4455446 L7.79662921,15.4455446 L7.79662921,15.4158416 C7.79662921,15.3663366 7.74606742,15.3366337 7.69550562,15.3366337 L7.69550562,15.3366337 L7.69550562,15.3366337 L7.00786517,15.3366337 L7.92808989,14.1485149 L7.93820225,14.1386139 L7.93820225,14.1386139 Z" fill="#FECE00"></path>
                <path d="M9.53595506,16.6633663 C9.57640449,16.5742574 9.51573034,16.4752475 9.41460674,16.4455446 C9.32359551,16.4158416 9.22247191,16.4455446 9.18202247,16.5148515 L9.18202247,16.5148515 L7.22022472,18.970297 C7.17977528,19.019802 7.1494382,19.0693069 7.11910112,19.1287129 C6.99775281,19.4257426 7.17977528,19.7623762 7.52359551,19.8712871 C7.86741573,19.980198 8.23146067,19.8316832 8.36292135,19.5445545 L8.36292135,19.5445545 L9.5258427,16.6831683 L9.53595506,16.6633663 L9.53595506,16.6633663 L9.53595506,16.6633663 Z" fill="#2B9CD8"></path>
                <path d="M12.9741573,14.2871287 C13.0146067,14.1980198 12.9539326,14.0990099 12.852809,14.0693069 C12.7617978,14.039604 12.6606742,14.0693069 12.6202247,14.1386139 L12.6202247,14.1386139 L10.658427,16.5940594 C10.6179775,16.6435644 10.5876404,16.6930693 10.5573034,16.7524752 C10.4359551,17.049505 10.6179775,17.3861386 10.9617978,17.4950495 C11.305618,17.6039604 11.6696629,17.4554455 11.8011236,17.1683168 L11.8011236,17.1683168 L12.9640449,14.3069307 L12.9741573,14.2871287 L12.9741573,14.2871287 L12.9741573,14.2871287 Z" fill="#2B9CD8"></path>
            </g>
        </g>
    </g>
</svg>