<?xml version="1.0" encoding="UTF-8" standalone="no"?>
<svg width="20px" height="19px" viewBox="0 0 20 19" version="1.1" xmlns="http://www.w3.org/2000/svg" xmlns:xlink="http://www.w3.org/1999/xlink">
    <!-- Generator: Sketch 3.7.2 (28276) - http://www.bohemiancoding.com/sketch -->
    <title>icon-weather-heavy-snow</title>
    <desc>Created with Sketch.</desc>
    <defs></defs>
    <g id="weather-icons" stroke="none" stroke-width="1" fill="none" fill-rule="evenodd">
        <g id="HeavySnow_Blizzard" fill="#B9B9B9">
            <g id="Shape">
                <path d="M19.7889447,5.82797927 C19.3165829,4.10518135 17.5075377,3.07150259 15.7487437,3.52435233 C15.7487437,3.52435233 15.6180905,3.55388601 15.3969849,3.61295337 C14.8341709,1.56528497 12.9246231,0.0492227979 10.6532663,0.0492227979 C8.19095477,0.0492227979 6.15075377,1.83108808 5.79899497,4.14455959 C5.71859296,4.12487047 5.66834171,4.11502591 5.66834171,4.11502591 C4.18090452,3.74093264 2.65326633,4.60725389 2.26130653,6.0642487 C2.17085427,6.40880829 2.15075377,6.75336788 2.18090452,7.0880829 C1.43718593,7.28497409 0.974874372,7.40310881 0.974874372,7.40310881 C0.271356784,7.59015544 -0.140703518,8.28911917 0.0502512563,8.97823834 C0.211055276,9.57875648 0.783919598,9.9626943 1.39698492,9.93316062 L16.5025126,9.93316062 C16.5025126,9.93316062 17.1256281,9.90362694 17.4472362,9.82487047 C19.2060302,9.34248705 20.2613065,7.56062176 19.7889447,5.82797927 L19.7889447,5.82797927 Z"></path>
                <path d="M7.24623116,13.0341969 L7.22613065,13.0341969 L6.62311558,13.1917098 L6.09045226,12.8865285 L6.62311558,12.5911917 L7.22613065,12.7487047 C7.26633166,12.7585492 7.30653266,12.7388601 7.31658291,12.6994819 C7.32663317,12.6699482 7.30653266,12.6404145 7.28643216,12.6207254 L7.28643216,12.6207254 L6.91457286,12.4139896 L7.25628141,12.1580311 L7.25628141,12.1580311 C7.28643216,12.138342 7.28643216,12.1088083 7.27638191,12.0792746 C7.26633166,12.0497409 7.2361809,12.0398964 7.20603015,12.0398964 C7.1959799,12.0398964 7.18592965,12.0398964 7.1758794,12.0497409 L6.7839196,12.2072539 L6.7839196,11.7937824 C6.7839196,11.7642487 6.7638191,11.7248705 6.73366834,11.7248705 C6.69346734,11.7150259 6.65326633,11.734715 6.64321608,11.7740933 L6.48241206,12.3647668 L5.94974874,12.6699482 L5.94974874,12.0694301 L6.3919598,11.6362694 C6.40201005,11.6264249 6.4120603,11.6067358 6.4120603,11.5870466 C6.4120603,11.5673575 6.40201005,11.5476684 6.3919598,11.5378238 C6.3718593,11.5181347 6.33165829,11.5082902 6.30150754,11.5279793 L6.30150754,11.5279793 L5.92964824,11.734715 L5.86934673,11.311399 C5.85929648,11.2818653 5.83919598,11.2523316 5.79899497,11.2523316 L5.78894472,11.2523316 C5.75879397,11.2523316 5.72864322,11.2818653 5.72864322,11.311399 L5.72864322,11.311399 L5.67839196,11.7248705 L5.30653266,11.5181347 L5.30653266,11.5181347 C5.27638191,11.5082902 5.24623116,11.5082902 5.2160804,11.5279793 C5.18592965,11.557513 5.18592965,11.5968912 5.2160804,11.6264249 L5.65829146,12.0595855 L5.65829146,12.6601036 L5.12562814,12.3549223 L4.96482412,11.7642487 C4.95477387,11.7248705 4.91457286,11.7051813 4.87437186,11.7150259 C4.84422111,11.7248705 4.8241206,11.7544041 4.8241206,11.7839378 L4.8241206,11.7839378 L4.8241206,12.2072539 L4.4321608,12.0497409 C4.40201005,12.0398964 4.35175879,12.0497409 4.34170854,12.0891192 C4.33165829,12.1186528 4.34170854,12.1481865 4.36180905,12.1678756 L4.36180905,12.1678756 L4.70351759,12.4238342 L4.33165829,12.6305699 L4.33165829,12.6305699 C4.30150754,12.6502591 4.29145729,12.6797927 4.30150754,12.7093264 C4.31155779,12.7388601 4.34170854,12.7585492 4.3718593,12.7585492 L4.3919598,12.7585492 L4.99497487,12.6010363 L5.52763819,12.8963731 L5.00502513,13.2015544 L4.40201005,13.0440415 C4.36180905,13.0341969 4.32160804,13.053886 4.31155779,13.0932642 C4.30150754,13.1227979 4.32160804,13.1523316 4.34170854,13.1720207 L4.34170854,13.1720207 L4.71356784,13.3787565 L4.3718593,13.634715 L4.3718593,13.634715 C4.34170854,13.6544041 4.34170854,13.6839378 4.35175879,13.7134715 C4.36180905,13.7430052 4.3919598,13.7528497 4.42211055,13.7528497 C4.4321608,13.7528497 4.44221106,13.7528497 4.45226131,13.7430052 L4.84422111,13.5854922 L4.84422111,14.0088083 L4.84422111,14.0088083 C4.84422111,14.038342 4.86432161,14.0678756 4.89447236,14.0777202 C4.93467337,14.0875648 4.97487437,14.0678756 4.98492462,14.0284974 L5.14572864,13.4378238 L5.67839196,13.142487 L5.67839196,13.7430052 L5.2361809,14.1761658 C5.22613065,14.1860104 5.2160804,14.2056995 5.2160804,14.2253886 C5.2160804,14.2450777 5.22613065,14.2647668 5.2361809,14.2746114 C5.25628141,14.2943005 5.29648241,14.3041451 5.32663317,14.284456 L5.32663317,14.284456 L5.69849246,14.0777202 L5.75879397,14.5010363 C5.76884422,14.5305699 5.78894472,14.5601036 5.82914573,14.5601036 L5.83919598,14.5601036 C5.86934673,14.5502591 5.89949749,14.5305699 5.89949749,14.5010363 L5.89949749,14.5010363 L5.94974874,14.0875648 L6.32160804,14.2943005 L6.32160804,14.2943005 C6.35175879,14.3041451 6.38190955,14.3041451 6.4120603,14.284456 C6.44221106,14.2549223 6.44221106,14.215544 6.4120603,14.1860104 L5.96984925,13.7528497 L5.96984925,13.1523316 L6.50251256,13.4476684 L6.66331658,14.038342 C6.67336683,14.0777202 6.71356784,14.0974093 6.75376884,14.0875648 C6.7839196,14.0777202 6.8040201,14.0481865 6.8040201,14.0186528 L6.8040201,14.0186528 L6.8040201,13.5854922 L7.20603015,13.7430052 C7.2160804,13.7430052 7.22613065,13.7528497 7.2361809,13.7528497 C7.26633166,13.7528497 7.28643216,13.7331606 7.30653266,13.7134715 C7.31658291,13.6839378 7.30653266,13.6544041 7.28643216,13.634715 L7.28643216,13.634715 L6.94472362,13.3787565 L7.31658291,13.1720207 L7.31658291,13.1720207 C7.34673367,13.1621762 7.35678392,13.1227979 7.34673367,13.0932642 C7.30653266,13.053886 7.27638191,13.0341969 7.24623116,13.0341969 L7.24623116,13.0341969 Z"></path>
                <path d="M9.65829146,17.3953368 L9.63819095,17.3953368 L9.03517588,17.5528497 L8.50251256,17.2476684 L9.03517588,16.9523316 L9.63819095,17.1098446 C9.67839196,17.1196891 9.71859296,17.1 9.72864322,17.0606218 C9.73869347,17.0310881 9.71859296,17.0015544 9.69849246,16.9818653 L9.69849246,16.9818653 L9.32663317,16.7751295 L9.66834171,16.519171 L9.66834171,16.519171 C9.69849246,16.4994819 9.69849246,16.4699482 9.68844221,16.4404145 C9.67839196,16.4108808 9.64824121,16.4010363 9.61809045,16.4010363 C9.6080402,16.4010363 9.59798995,16.4010363 9.5879397,16.4108808 L9.1959799,16.5683938 L9.1959799,16.1450777 C9.1959799,16.115544 9.1758794,16.0761658 9.14572864,16.0761658 C9.10552764,16.0663212 9.06532663,16.0860104 9.05527638,16.1253886 L8.89447236,16.7160622 L8.36180905,17.0212435 L8.36180905,16.4207254 L8.8040201,15.9875648 C8.81407035,15.9777202 8.8241206,15.9580311 8.8241206,15.938342 C8.8241206,15.9186528 8.81407035,15.8989637 8.8040201,15.8891192 C8.7839196,15.8694301 8.74371859,15.8595855 8.71356784,15.8792746 L8.71356784,15.8792746 L8.34170854,16.0860104 L8.28140704,15.6626943 C8.27135678,15.6331606 8.25125628,15.6036269 8.21105528,15.6036269 L8.20100503,15.6036269 C8.17085427,15.6036269 8.14070352,15.6331606 8.14070352,15.6626943 L8.14070352,15.6626943 L8.09045226,16.0761658 L7.71859296,15.8694301 L7.71859296,15.8694301 C7.68844221,15.8595855 7.65829146,15.8595855 7.6281407,15.8792746 C7.59798995,15.9088083 7.59798995,15.9481865 7.6281407,15.9777202 L8.07035176,16.4108808 L8.07035176,17.011399 L7.53768844,16.7062176 L7.37688442,16.115544 C7.36683417,16.0761658 7.32663317,16.0564767 7.28643216,16.0663212 C7.25628141,16.0761658 7.2361809,16.1056995 7.2361809,16.1352332 L7.2361809,16.1352332 L7.2361809,16.5585492 L6.84422111,16.4010363 C6.81407035,16.3911917 6.7638191,16.4010363 6.75376884,16.4404145 C6.74371859,16.4699482 6.75376884,16.4994819 6.77386935,16.519171 L6.77386935,16.519171 L7.11557789,16.7751295 L6.74371859,16.9818653 L6.74371859,16.9818653 C6.71356784,17.0015544 6.70351759,17.0310881 6.71356784,17.0606218 C6.72361809,17.0901554 6.75376884,17.1098446 6.7839196,17.1098446 L6.8040201,17.1098446 L7.40703518,16.9523316 L7.93969849,17.2476684 L7.41708543,17.5528497 L6.81407035,17.3953368 C6.77386935,17.3854922 6.73366834,17.4051813 6.72361809,17.4445596 C6.71356784,17.4740933 6.73366834,17.5036269 6.75376884,17.5233161 L6.75376884,17.5233161 L7.12562814,17.7300518 L6.7839196,17.9860104 L6.7839196,17.9860104 C6.75376884,18.0056995 6.75376884,18.0352332 6.7638191,18.0647668 C6.77386935,18.0943005 6.8040201,18.1041451 6.83417085,18.1041451 C6.84422111,18.1041451 6.85427136,18.1041451 6.86432161,18.0943005 L7.25628141,17.9367876 L7.25628141,18.3601036 L7.25628141,18.3601036 C7.25628141,18.3896373 7.27638191,18.419171 7.30653266,18.4290155 C7.34673367,18.4388601 7.38693467,18.419171 7.39698492,18.3797927 L7.55778894,17.7891192 L8.09045226,17.4937824 L8.09045226,18.0943005 L7.64824121,18.5274611 C7.63819095,18.5373057 7.6281407,18.5569948 7.6281407,18.5766839 C7.6281407,18.5963731 7.63819095,18.6160622 7.64824121,18.6259067 C7.66834171,18.6455959 7.70854271,18.6554404 7.73869347,18.6357513 L7.73869347,18.6357513 L8.11055276,18.4290155 L8.17085427,18.8523316 C8.18090452,18.8818653 8.20100503,18.911399 8.24120603,18.911399 L8.25125628,18.911399 C8.28140704,18.9015544 8.31155779,18.8818653 8.31155779,18.8523316 L8.31155779,18.8523316 L8.36180905,18.4388601 L8.73366834,18.6455959 L8.73366834,18.6455959 C8.7638191,18.6554404 8.79396985,18.6554404 8.8241206,18.6357513 C8.85427136,18.6062176 8.85427136,18.5668394 8.8241206,18.5373057 L8.38190955,18.1041451 L8.38190955,17.5036269 L8.91457286,17.7989637 L9.07537688,18.3896373 C9.08542714,18.4290155 9.12562814,18.4487047 9.16582915,18.4388601 C9.1959799,18.4290155 9.2160804,18.3994819 9.2160804,18.3699482 L9.2160804,18.3699482 L9.2160804,17.9466321 L9.61809045,18.1041451 C9.6281407,18.1041451 9.63819095,18.1139896 9.64824121,18.1139896 C9.67839196,18.1139896 9.69849246,18.0943005 9.71859296,18.0746114 C9.72864322,18.0450777 9.71859296,18.015544 9.69849246,17.9958549 L9.69849246,17.9958549 L9.35678392,17.7398964 L9.72864322,17.5331606 L9.72864322,17.5331606 C9.75879397,17.5233161 9.76884422,17.4839378 9.75879397,17.4544041 C9.71859296,17.4150259 9.68844221,17.3953368 9.65829146,17.3953368 L9.65829146,17.3953368 Z"></path>
                <path d="M15.4673367,14.4222798 C15.4572864,14.4222798 15.4472362,14.4222798 15.4271357,14.4321244 L14.321608,14.7176166 L13.3467337,14.1663212 L14.321608,13.6150259 L15.4371859,13.9103627 C15.5075377,13.9300518 15.5778894,13.880829 15.5979899,13.8217617 C15.6180905,13.7626943 15.5879397,13.7036269 15.5376884,13.6740933 C15.5376884,13.6740933 15.5376884,13.6740933 15.5276382,13.6740933 L14.8442211,13.2901554 L15.4673367,12.8274611 L15.4673367,12.8274611 C15.5175879,12.7880829 15.5276382,12.7290155 15.5075377,12.6797927 C15.4874372,12.6305699 15.4371859,12.6010363 15.3869347,12.6010363 C15.3668342,12.6010363 15.3567839,12.6108808 15.3366834,12.6108808 L14.6130653,12.9062176 L14.6130653,12.138342 C14.6231156,12.0792746 14.5728643,12.0202073 14.5226131,12.0005181 C14.4522613,11.980829 14.3819095,12.0202073 14.361809,12.0891192 L14.0703518,13.1720207 L13.0954774,13.7233161 L13.0954774,12.6207254 L13.9095477,11.8233161 C13.9396985,11.7937824 13.9497487,11.7642487 13.9497487,11.734715 C13.9497487,11.6953368 13.9296482,11.6658031 13.9095477,11.646114 C13.8693467,11.6067358 13.798995,11.5968912 13.7487437,11.6264249 C13.7487437,11.6264249 13.7487437,11.6264249 13.7386935,11.6264249 L13.0552764,12.0103627 L12.9547739,11.242487 C12.9447236,11.1834197 12.8944724,11.1341969 12.8241206,11.1341969 L12.8040201,11.1341969 C12.7437186,11.1440415 12.7035176,11.1834197 12.6934673,11.242487 C12.6934673,11.242487 12.6934673,11.242487 12.6934673,11.2523316 L12.5929648,12.0103627 L11.9095477,11.6264249 C11.9095477,11.6264249 11.9095477,11.6264249 11.8994975,11.6264249 C11.8492462,11.5968912 11.7788945,11.6067358 11.7386935,11.646114 C11.6884422,11.6953368 11.6884422,11.7740933 11.7487437,11.8233161 L12.5628141,12.6207254 L12.5628141,13.7233161 L11.5879397,13.1720207 L11.2864322,12.0792746 C11.2663317,12.0103627 11.1959799,11.9709845 11.1256281,11.9906736 C11.0653266,12.0103627 11.0351759,12.0595855 11.0351759,12.1186528 L11.0351759,12.1284974 L11.0351759,12.8963731 L10.3115578,12.6010363 C10.2512563,12.5715026 10.1708543,12.6108808 10.1407035,12.6699482 C10.120603,12.719171 10.1306533,12.7880829 10.1809045,12.8176166 L10.1909548,12.8176166 L10.8140704,13.2803109 L10.1306533,13.6642487 C10.1306533,13.6642487 10.1306533,13.6642487 10.120603,13.6642487 C10.0703518,13.6937824 10.040201,13.7528497 10.0603015,13.8119171 C10.080402,13.8709845 10.1306533,13.9005181 10.1909548,13.9005181 C10.201005,13.9005181 10.2110553,13.9005181 10.2311558,13.8906736 L11.3366834,13.6051813 L12.3115578,14.1564767 L11.3567839,14.707772 L10.241206,14.4124352 C10.1708543,14.3927461 10.1005025,14.4419689 10.080402,14.5010363 C10.0603015,14.5601036 10.0904523,14.619171 10.1407035,14.6487047 L10.1507538,14.6487047 L10.8341709,15.0326425 L10.2110553,15.4953368 C10.2110553,15.4953368 10.2110553,15.4953368 10.201005,15.4953368 C10.1507538,15.534715 10.1407035,15.5937824 10.160804,15.6430052 C10.1809045,15.692228 10.2311558,15.7217617 10.281407,15.7217617 C10.3015075,15.7217617 10.3115578,15.7119171 10.3316583,15.7119171 L11.0552764,15.4165803 L11.0552764,16.184456 L11.0552764,16.184456 C11.0552764,16.2435233 11.0954774,16.2927461 11.1457286,16.3124352 C11.2160804,16.3321244 11.2864322,16.2927461 11.3065327,16.2238342 L11.5979899,15.1409326 L12.5728643,14.5896373 L12.5728643,15.692228 L11.758794,16.4896373 C11.7286432,16.519171 11.718593,16.5487047 11.718593,16.5782383 C11.718593,16.607772 11.7386935,16.6471503 11.758794,16.6668394 C11.798995,16.7062176 11.8693467,16.7160622 11.919598,16.6865285 L11.919598,16.6865285 L12.6030151,16.3025907 L12.7035176,17.0704663 C12.7135678,17.1295337 12.7638191,17.1787565 12.8341709,17.1787565 L12.8542714,17.1787565 C12.9145729,17.1689119 12.9547739,17.1295337 12.9648241,17.0704663 C12.9648241,17.0704663 12.9648241,17.0704663 12.9648241,17.0606218 L13.0653266,16.3025907 L13.7487437,16.6865285 L13.758794,16.6865285 C13.8090452,16.7160622 13.879397,16.7062176 13.919598,16.6668394 C13.9698492,16.6176166 13.9698492,16.5388601 13.9095477,16.4797927 L13.0954774,15.6823834 L13.0954774,14.5797927 L14.0703518,15.1310881 L14.3718593,16.2238342 C14.3919598,16.2927461 14.4623116,16.3321244 14.5326633,16.3124352 C14.5929648,16.2927461 14.6231156,16.2435233 14.6231156,16.184456 L14.6231156,16.184456 L14.6231156,15.4165803 L15.3567839,15.7119171 C15.3768844,15.7217617 15.3869347,15.7217617 15.4070352,15.7217617 C15.4572864,15.7217617 15.5075377,15.692228 15.5276382,15.6430052 C15.5477387,15.5937824 15.5376884,15.5248705 15.4874372,15.4953368 C15.4874372,15.4953368 15.4874372,15.4953368 15.4773869,15.4953368 L14.8542714,15.0326425 L15.5376884,14.6487047 L15.5376884,14.6487047 C15.5879397,14.619171 15.6180905,14.5601036 15.5979899,14.5010363 C15.5778894,14.461658 15.5276382,14.4222798 15.4673367,14.4222798 L15.4673367,14.4222798 Z"></path>
            </g>
        </g>
    </g>
</svg>