<?xml version="1.0" encoding="UTF-8" standalone="no"?>
<svg width="21px" height="19px" viewBox="0 0 21 19" version="1.1" xmlns="http://www.w3.org/2000/svg" xmlns:xlink="http://www.w3.org/1999/xlink">
    <!-- Generator: Sketch 3.7.2 (28276) - http://www.bohemiancoding.com/sketch -->
    <title>icon-weather-wintery-mix</title>
    <desc>Created with Sketch.</desc>
    <defs></defs>
    <g id="weather-icons" stroke="none" stroke-width="1" fill="none" fill-rule="evenodd">
        <g id="wintry-mix" transform="translate(-1.000000, 0.000000)">
            <g transform="translate(1.321608, 0.000000)" id="Shape">
                <path d="M11.84554,12.0050687 C11.7471375,11.9851785 11.6487351,12.0249589 11.5995338,12.1045197 L11.5995338,12.1045197 L8.17512723,17.445038 C8.11608574,17.5345439 8.0668845,17.6240498 8.03736375,17.7334459 C7.87991977,18.2704813 8.23416873,18.8274068 8.8344239,18.9666382 C9.42483883,19.1058696 10.0349343,18.7975715 10.2022185,18.2605362 L10.2022185,18.2605362 L11.0287994,15.4858535 L11.0287994,15.4759084 L11.0287994,15.4759084 L11.9931438,12.2437511 L11.9931438,12.2238609 L11.9931438,12.2238609 C12.0226645,12.134355 11.9537828,12.034904 11.84554,12.0050687 L11.84554,12.0050687 Z" fill="#2B9CD8"></path>
                <path d="M14.989729,12.1980638 C15.0225195,12.1210906 14.9733338,12.0355649 14.8913577,12.0099072 C14.8175792,11.9842494 14.7356031,12.0099072 14.7028127,12.0697752 L14.7028127,12.0697752 L13.1124766,14.1908135 C13.0796862,14.2335764 13.0550934,14.2763392 13.0305005,14.3276547 C12.9321292,14.5842319 13.0796862,14.8750194 13.3584049,14.9690977 C13.6371236,15.063176 13.9322375,14.9348874 14.0388064,14.6868628 L14.0388064,14.6868628 L14.9815314,12.2151689 L14.989729,12.1980638 L14.989729,12.1980638 L14.989729,12.1980638 Z" fill="#2B9CD8"></path>
                <path d="M19.8866246,5.84567243 C19.4118453,4.10292511 17.5935415,3.05727672 15.8257462,3.5153703 C15.8257462,3.5153703 15.6944242,3.54524597 15.4721871,3.60499731 C14.9064926,1.53361764 12.9871719,0 10.7041905,0 C8.22927704,0 6.17863445,1.80249865 5.82507538,4.14275934 C5.74426188,4.12284223 5.69375344,4.11288367 5.69375344,4.11288367 C4.19870367,3.73445854 2.66324714,4.61081148 2.26928132,6.08467778 C2.17836614,6.43322724 2.15816276,6.78177671 2.18846782,7.12036761 C1.44094294,7.31953874 0.976265303,7.43904141 0.976265303,7.43904141 C0.269147167,7.62825397 -0.145022027,8.33531146 0.0469100384,9.03241039 C0.208537041,9.63988231 0.784333238,10.028266 1.40053619,9.99839033 L16.5833727,9.99839033 C16.5833727,9.99839033 17.2096774,9.96851466 17.5329314,9.88884621 C19.3007267,9.40087696 20.3614039,7.59837831 19.8866246,5.84567243 L19.8866246,5.84567243 Z" fill="#B9B9B9"></path>
                <path d="M7.89753086,13.6160714 L7.87777778,13.6160714 L7.28518519,13.7589286 L6.7617284,13.4821429 L7.28518519,13.2142857 L7.87777778,13.3571429 C7.91728395,13.3660714 7.95679012,13.3482143 7.96666667,13.3125 C7.97654321,13.2857143 7.95679012,13.2589286 7.93703704,13.2410714 L7.93703704,13.2410714 L7.57160494,13.0535714 L7.90740741,12.8214286 L7.90740741,12.8214286 C7.93703704,12.8035714 7.93703704,12.7767857 7.92716049,12.75 C7.91728395,12.7232143 7.88765432,12.7142857 7.85802469,12.7142857 C7.84814815,12.7142857 7.8382716,12.7142857 7.82839506,12.7232143 L7.44320988,12.8660714 L7.44320988,12.4910714 C7.44320988,12.4642857 7.42345679,12.4285714 7.39382716,12.4285714 C7.35432099,12.4196429 7.31481481,12.4375 7.30493827,12.4732143 L7.14691358,13.0089286 L6.62345679,13.2857143 L6.62345679,12.7410714 L7.05802469,12.3482143 C7.06790123,12.3392857 7.07777778,12.3214286 7.07777778,12.3035714 C7.07777778,12.2857143 7.06790123,12.2678571 7.05802469,12.2589286 C7.0382716,12.2410714 6.99876543,12.2321429 6.9691358,12.25 L6.9691358,12.25 L6.6037037,12.4375 L6.54444444,12.0535714 C6.5345679,12.0267857 6.51481481,12 6.47530864,12 L6.4654321,12 C6.43580247,12 6.40617284,12.0267857 6.40617284,12.0535714 L6.40617284,12.0535714 L6.35679012,12.4285714 L5.99135802,12.2410714 L5.99135802,12.2410714 C5.9617284,12.2321429 5.93209877,12.2321429 5.90246914,12.25 C5.87283951,12.2767857 5.87283951,12.3125 5.90246914,12.3392857 L6.33703704,12.7321429 L6.33703704,13.2767857 L5.81358025,13 L5.65555556,12.4642857 C5.64567901,12.4285714 5.60617284,12.4107143 5.56666667,12.4196429 C5.53703704,12.4285714 5.51728395,12.4553571 5.51728395,12.4821429 L5.51728395,12.4821429 L5.51728395,12.8660714 L5.13209877,12.7232143 C5.10246914,12.7142857 5.05308642,12.7232143 5.04320988,12.7589286 C5.03333333,12.7857143 5.04320988,12.8125 5.06296296,12.8303571 L5.06296296,12.8303571 L5.39876543,13.0625 L5.03333333,13.25 L5.03333333,13.25 C5.0037037,13.2678571 4.99382716,13.2946429 5.0037037,13.3214286 C5.01358025,13.3482143 5.04320988,13.3660714 5.07283951,13.3660714 L5.09259259,13.3660714 L5.68518519,13.2232143 L6.20864198,13.4910714 L5.69506173,13.7678571 L5.10246914,13.625 C5.06296296,13.6160714 5.02345679,13.6339286 5.01358025,13.6696429 C5.0037037,13.6964286 5.02345679,13.7232143 5.04320988,13.7410714 L5.04320988,13.7410714 L5.40864198,13.9285714 L5.07283951,14.1607143 L5.07283951,14.1607143 C5.04320988,14.1785714 5.04320988,14.2053571 5.05308642,14.2321429 C5.06296296,14.2589286 5.09259259,14.2678571 5.12222222,14.2678571 C5.13209877,14.2678571 5.14197531,14.2678571 5.15185185,14.2589286 L5.53703704,14.1160714 L5.53703704,14.5 L5.53703704,14.5 C5.53703704,14.5267857 5.55679012,14.5535714 5.58641975,14.5625 C5.62592593,14.5714286 5.6654321,14.5535714 5.67530864,14.5178571 L5.83333333,13.9821429 L6.35679012,13.7142857 L6.35679012,14.2589286 L5.92222222,14.6517857 C5.91234568,14.6607143 5.90246914,14.6785714 5.90246914,14.6964286 C5.90246914,14.7142857 5.91234568,14.7321429 5.92222222,14.7410714 C5.94197531,14.7589286 5.98148148,14.7678571 6.01111111,14.75 L6.01111111,14.75 L6.37654321,14.5625 L6.43580247,14.9464286 C6.44567901,14.9732143 6.4654321,15 6.50493827,15 L6.51481481,15 C6.54444444,14.9910714 6.57407407,14.9732143 6.57407407,14.9464286 L6.57407407,14.9464286 L6.62345679,14.5714286 L6.98888889,14.7589286 L6.98888889,14.7589286 C7.01851852,14.7678571 7.04814815,14.7678571 7.07777778,14.75 C7.10740741,14.7232143 7.10740741,14.6875 7.07777778,14.6607143 L6.64320988,14.2678571 L6.64320988,13.7232143 L7.16666667,13.9910714 L7.32469136,14.5267857 C7.3345679,14.5625 7.37407407,14.5803571 7.41358025,14.5714286 C7.44320988,14.5625 7.46296296,14.5357143 7.46296296,14.5089286 L7.46296296,14.5089286 L7.46296296,14.125 L7.85802469,14.2678571 C7.86790123,14.2678571 7.87777778,14.2767857 7.88765432,14.2767857 C7.91728395,14.2767857 7.93703704,14.2589286 7.95679012,14.2410714 C7.96666667,14.2142857 7.95679012,14.1875 7.93703704,14.1696429 L7.93703704,14.1696429 L7.60123457,13.9375 L7.96666667,13.75 L7.96666667,13.75 C7.9962963,13.7410714 8.00617284,13.7053571 7.9962963,13.6785714 C7.95679012,13.6339286 7.92716049,13.6160714 7.89753086,13.6160714 L7.89753086,13.6160714 Z" fill="#B9B9B9"></path>
            </g>
        </g>
    </g>
</svg>