<?xml version="1.0" encoding="UTF-8" standalone="no"?>
<svg width="112px" height="21px" viewBox="0 0 112 21" version="1.1" xmlns="http://www.w3.org/2000/svg" xmlns:xlink="http://www.w3.org/1999/xlink" xmlns:sketch="http://www.bohemiancoding.com/sketch/ns">
    <!-- Generator: Sketch 3.4.4 (17249) - http://www.bohemiancoding.com/sketch -->
    <title>einstein_logo</title>
    <desc>Created with Sketch.</desc>
    <defs></defs>
    <g id="footer" stroke="none" stroke-width="1" fill="none" fill-rule="evenodd" sketch:type="MSPage">
        <g id="einstein_logo" sketch:type="MSArtboardGroup" fill="#FFFFFF">
            <g id="einstein_wht_notag-01" sketch:type="MSLayerGroup">
                <g id="Layer_1" sketch:type="MSShapeGroup">
                    <path d="M27.2784015,12.7617952 C27.3290642,15.353855 28.7476189,18.5327963 32.3446684,18.5327963 C35.0804526,18.5327963 36.54967,17.0166858 37.157622,14.7669735 L39.0321408,14.7669735 C38.2215381,18.0926352 36.1950313,20 32.3446684,20 C27.4810522,20 25.4545455,16.4298044 25.4545455,12.2727273 C25.4545455,8.40909091 27.4810522,4.54545455 32.3446684,4.54545455 C37.2589473,4.54545455 39.2347914,8.65362486 39.0828034,12.7617952 L27.2784015,12.7617952 L27.2784015,12.7617952 Z M37.157622,11.2456847 C37.0562967,8.55581128 35.3337659,6.01265823 32.2940058,6.01265823 C29.2542456,6.01265823 27.5317149,8.55581128 27.2277389,11.2456847 L37.157622,11.2456847 L37.157622,11.2456847 Z" id="Shape"></path>
                    <path d="M40.9090909,-2.8643754e-14 L42.7272727,-2.8643754e-14 L42.7272727,2.31738035 L40.9090909,2.31738035 L40.9090909,-2.8643754e-14 L40.9090909,-2.8643754e-14 Z M40.9090909,4.0302267 L42.7272727,4.0302267 L42.7272727,20 L40.9090909,20 L40.9090909,4.0302267 L40.9090909,4.0302267 Z" id="Shape"></path>
                    <path d="M45.4545455,4.93547462 L47.2320769,4.93547462 L47.2320769,7.56811012 L47.2801183,7.56811012 C47.9046563,5.76426728 49.8743533,4.54545455 51.940133,4.54545455 C56.0236511,4.54545455 57.2727273,6.73931746 57.2727273,10.3470032 L57.2727273,20 L55.4951959,20 L55.4951959,10.5907657 C55.4951959,8.00688271 54.6784922,6.05678233 51.7960089,6.05678233 C48.9615669,6.05678233 47.2801183,8.25064525 47.2320769,11.2245483 L47.2320769,20 L45.4545455,20 L45.4545455,4.93547462 L45.4545455,4.93547462 Z" id="Shape"></path>
                    <path d="M69.5027829,9.27444795 C69.406308,7.08058503 67.7179963,6.05678233 65.6920223,6.05678233 C64.1001855,6.05678233 62.2671614,6.69056496 62.2671614,8.59191282 C62.2671614,10.1519931 64.0519481,10.7370232 65.3061224,11.0295383 L67.6697588,11.5658159 C69.6957328,11.8583309 71.8181818,13.0771437 71.8181818,15.6122742 C71.8181818,18.7811873 68.6827458,20 65.9814471,20 C62.6048237,20 60.2894249,18.4399197 60,14.832234 L61.7847866,14.832234 C61.9294991,17.221107 63.7142857,18.4886722 66.0779221,18.4886722 C67.7662338,18.4886722 70.0816327,17.7573846 70.0816327,15.7097792 C70.0816327,14.0034414 68.4897959,13.4671638 66.8979592,13.0283912 L64.6307978,12.5408661 C62.3153989,11.9070835 60.5788497,11.1270433 60.5788497,8.64066533 C60.5788497,5.66676226 63.4730983,4.54545455 66.0779221,4.54545455 C68.9721707,4.54545455 71.2875696,6.05678233 71.432282,9.22569544 L69.5027829,9.22569544 L69.5027829,9.27444795 L69.5027829,9.27444795 Z" id="Shape"></path>
                    <path d="M76.1244019,4.58438287 L79.0430622,4.58438287 L79.0430622,6.14609572 L76.1244019,6.14609572 L76.1244019,16.4231738 C76.1244019,17.6322418 76.3157895,18.3375315 77.5598086,18.4382872 C78.0861244,18.4382872 78.5645933,18.3879093 79.0909091,18.3375315 L79.0909091,19.9496222 C78.5645933,19.9496222 78.0382775,20 77.5119617,20 C75.1674641,20 74.354067,19.1939547 74.354067,16.5743073 L74.354067,6.14609572 L71.8181818,6.14609572 L71.8181818,4.58438287 L74.354067,4.58438287 L74.354067,0 L76.1244019,0 L76.1244019,4.58438287 L76.1244019,4.58438287 L76.1244019,4.58438287 Z" id="Shape"></path>
                    <path d="M81.8238561,12.7617952 C81.8745188,15.353855 83.2930735,18.5327963 86.890123,18.5327963 C89.6259071,18.5327963 91.0951245,17.0166858 91.7030766,14.7669735 L93.5775953,14.7669735 C92.7669926,18.0926352 90.7404858,20 86.890123,20 C82.0265068,20 80,16.4298044 80,12.2727273 C80,8.40909091 82.0265068,4.54545455 86.890123,4.54545455 C91.8044019,4.54545455 93.780246,8.65362486 93.628258,12.7617952 L81.8238561,12.7617952 L81.8238561,12.7617952 Z M91.7537392,11.2456847 C91.6524139,8.55581128 89.9298831,6.01265823 86.890123,6.01265823 C83.8503628,6.01265823 82.1278321,8.55581128 81.8238561,11.2456847 L91.7537392,11.2456847 L91.7537392,11.2456847 Z" id="Shape"></path>
                    <path d="M96.3636364,-2.8643754e-14 L98.1818182,-2.8643754e-14 L98.1818182,2.31738035 L96.3636364,2.31738035 L96.3636364,-2.8643754e-14 L96.3636364,-2.8643754e-14 Z M96.3636364,4.0302267 L98.1818182,4.0302267 L98.1818182,20 L96.3636364,20 L96.3636364,4.0302267 L96.3636364,4.0302267 Z" id="Shape"></path>
                    <path d="M100,4.98284734 L101.777531,4.98284734 L101.777531,7.55860492 L101.825573,7.55860492 C102.450111,5.76043453 104.419808,4.54545455 106.485588,4.54545455 C110.569106,4.54545455 111.818182,6.78101772 111.818182,10.3287593 L111.818182,20 L110.04065,20 L110.04065,10.6203545 C110.04065,8.04459691 109.223947,6.10062893 106.341463,6.10062893 C103.507021,6.10062893 101.825573,8.33619211 101.777531,11.2521441 L101.777531,20 L100,20 L100,4.98284734 L100,4.98284734 L100,4.98284734 Z" id="Shape"></path>
                    <g id="Group" transform="translate(2.727273, 2.727273)">
                        <path d="M8.1322314,12.3471074 L7.78512397,12.3471074 C5.20661157,14.3305785 2.82644628,15.2231405 1.98347107,14.3801653 C1.48760331,13.8842975 1.58677686,12.892562 2.08264463,11.7024793 C1.73553719,11.6033058 1.38842975,11.5041322 1.09090909,11.4049587 C0.148760331,13.338843 -0.0495867769,14.8760331 0.694214876,15.6694215 C1.98347107,16.9586777 5.60330579,15.4710744 9.2231405,12.3471074 C8.87603306,12.3471074 8.52892562,12.3471074 8.1322314,12.3471074 L8.1322314,12.3471074 Z" id="Shape"></path>
                        <g transform="translate(1.487603, 0.000000)" id="Shape">
                            <path d="M9.61983471,10.5619835 C10.0661157,10.1157025 10.4628099,9.66942149 10.8595041,9.2231405 C10.661157,8.97520661 10.5123967,8.72727273 10.3140496,8.47933884 C9.81818182,9.07438017 9.27272727,9.66942149 8.72727273,10.214876 C8.5785124,10.3636364 8.42975207,10.5123967 8.28099174,10.661157 C8.67768595,10.661157 9.17355372,10.661157 9.61983471,10.5619835 L9.61983471,10.5619835 Z"></path>
                            <path d="M12.7438017,2.08264463 C13.5371901,2.87603306 12.8429752,4.85950413 11.2561983,7.19008264 C11.4545455,7.43801653 11.6528926,7.68595041 11.8512397,7.9338843 C14.1818182,4.80991736 15.1239669,1.9338843 14.0330579,0.79338843 C12.5454545,-0.694214876 8.03305785,1.43801653 3.96694215,5.55371901 C3.4214876,6.09917355 2.92561983,6.6446281 2.42975207,7.19008264 C2.62809917,7.43801653 2.7768595,7.68595041 2.97520661,7.9338843 C3.47107438,7.33884298 4.01652893,6.74380165 4.56198347,6.19834711 C7.98347107,2.82644628 11.6528926,0.991735537 12.7438017,2.08264463 L12.7438017,2.08264463 Z"></path>
                            <path d="M1.38842975,8.52892562 C1.04132231,8.97520661 0.743801653,9.47107438 0.446280992,9.91735537 C0.743801653,10.0165289 1.04132231,10.1157025 1.38842975,10.214876 C1.58677686,9.91735537 1.78512397,9.61983471 1.98347107,9.32231405 C1.78512397,9.02479339 1.58677686,8.7768595 1.38842975,8.52892562 L1.38842975,8.52892562 Z"></path>
                        </g>
                    </g>
                    <g id="Group" transform="translate(2.727273, 2.727273)">
                        <path d="M6.54545455,10.7107438 C6.39669421,10.5619835 6.24793388,10.4132231 6.09917355,10.2644628 C2.72727273,6.89256198 0.892561983,3.2231405 1.98347107,2.08264463 C2.7768595,1.2892562 4.76033058,1.98347107 7.09090909,3.57024793 C7.33884298,3.37190083 7.58677686,3.17355372 7.83471074,2.97520661 C4.7107438,0.644628099 1.83471074,-0.297520661 0.694214876,0.842975207 C-0.743801653,2.28099174 1.23966942,6.59504132 5.10743802,10.6115702 C5.60330579,10.661157 6.04958678,10.661157 6.54545455,10.7107438 L6.54545455,10.7107438 Z" id="Shape"></path>
                        <g transform="translate(7.933884, 3.966942)" id="Shape">
                            <path d="M6.29752066,10.4132231 C5.50413223,11.2066116 3.52066116,10.5123967 1.19008264,8.92561983 C0.94214876,9.12396694 0.694214876,9.32231405 0.446280992,9.52066116 C3.57024793,11.8512397 6.44628099,12.7933884 7.58677686,11.7024793 C8.33057851,10.9586777 8.1322314,9.37190083 7.19008264,7.43801653 C6.89256198,7.53719008 6.54545455,7.63636364 6.19834711,7.73553719 C6.74380165,8.92561983 6.79338843,9.91735537 6.29752066,10.4132231 L6.29752066,10.4132231 Z"></path>
                            <path d="M2.87603306,1.58677686 C2.33057851,1.04132231 1.78512397,0.545454545 1.23966942,0.0495867769 C0.991735537,0.247933884 0.743801653,0.396694215 0.495867769,0.595041322 C1.09090909,1.09090909 1.68595041,1.63636364 2.23140496,2.18181818 C3.57024793,3.52066116 4.66115702,4.90909091 5.45454545,6.14876033 C5.80165289,6.04958678 6.09917355,5.95041322 6.39669421,5.85123967 C5.50413223,4.51239669 4.31404959,3.02479339 2.87603306,1.58677686 L2.87603306,1.58677686 Z"></path>
                        </g>
                    </g>
                    <g id="Group" transform="translate(0.000000, 7.272727)">
                        <path d="M10.858351,0.920454545 L11.5179704,0.920454545 C11.3150106,0.715909091 11.0613108,0.5625 10.858351,0.357954545 C10.6553911,0.5625 10.4016913,0.715909091 10.1987315,0.920454545 L10.858351,0.920454545 L10.858351,0.920454545 Z" id="Shape"></path>
                        <path d="M8.72727273,0.0511363636 C7.45877378,0.153409091 6.29175476,0.306818182 5.22621564,0.5625 C5.37843552,0.869318182 5.53065539,1.17613636 5.73361522,1.48295455 C6.34249471,1.32954545 7.00211416,1.22727273 7.71247357,1.125 C7.81395349,1.02272727 7.86469345,0.971590909 7.96617336,0.869318182 C8.16913319,0.613636364 8.42283298,0.357954545 8.72727273,0.0511363636 L8.72727273,0.0511363636 Z" id="Shape"></path>
                        <path d="M16.4904863,0.5625 C15.4249471,0.306818182 14.2579281,0.153409091 12.9386892,0.0511363636 C13.243129,0.306818182 13.4968288,0.5625 13.8012685,0.869318182 C13.9027484,0.971590909 13.9534884,1.02272727 14.0549683,1.125 C14.7653277,1.22727273 15.4249471,1.32954545 16.0338266,1.48295455 C16.1860465,1.22727273 16.3382664,0.971590909 16.4397463,0.715909091 C16.4904863,0.664772727 16.4904863,0.613636364 16.4904863,0.5625 L16.4904863,0.5625 Z" id="Shape"></path>
                        <path d="M18.2156448,1.07386364 C18.0634249,1.38068182 17.8604651,1.6875 17.7082452,1.99431818 C18.9767442,2.50568182 19.7378436,3.17045455 19.7378436,3.88636364 C19.7378436,5.52272727 15.7801268,6.85227273 10.858351,6.85227273 C5.93657505,6.85227273 1.97885835,5.52272727 1.97885835,3.88636364 C1.97885835,3.17045455 2.73995772,2.50568182 4.00845666,1.99431818 C3.80549683,1.6875 3.65327696,1.38068182 3.50105708,1.07386364 C1.42071882,1.78977273 0.152219873,2.76136364 0.152219873,3.88636364 C0.152219873,6.03409091 4.97251586,7.77272727 10.858351,7.77272727 C16.794926,7.77272727 21.564482,6.03409091 21.564482,3.88636364 C21.564482,2.76136364 20.2959831,1.78977273 18.2156448,1.07386364 L18.2156448,1.07386364 Z" id="Shape"></path>
                    </g>
                </g>
            </g>
        </g>
    </g>
</svg>