<?xml version="1.0" encoding="UTF-8" standalone="no"?>
<svg width="20px" height="18px" viewBox="0 0 20 18" version="1.1" xmlns="http://www.w3.org/2000/svg" xmlns:xlink="http://www.w3.org/1999/xlink">
    <!-- Generator: Sketch 3.7.2 (28276) - http://www.bohemiancoding.com/sketch -->
    <title>icon-weather-sleet</title>
    <desc>Created with Sketch.</desc>
    <defs></defs>
    <g id="weather-icons" stroke="none" stroke-width="1" fill="none" fill-rule="evenodd">
        <g id="Hail_Sleet" transform="translate(-2.000000, -1.000000)" fill="#B9B9B9">
            <g transform="translate(1.788945, 0.562500)" id="Shape">
                <path d="M9.60847992,14.1525296 C9.57878918,14.1525296 9.55899534,14.1525296 9.5293046,14.134533 C9.42043853,14.0985398 9.37095395,13.981562 9.42043853,13.891579 L10.53879,11.4350445 C10.5783776,11.3360632 10.7070375,11.2910718 10.8060067,11.3360632 C10.9148728,11.3720564 10.9643574,11.4890343 10.9247697,11.5790172 L9.80641823,14.0355517 C9.76683057,14.1075381 9.69755216,14.1525296 9.60847992,14.1525296 L9.60847992,14.1525296 Z"></path>
                <path d="M10.2319856,15.5292687 C10.2022949,15.5292687 10.182501,15.5292687 10.1528103,15.5112721 C10.0439442,15.4752789 9.99445963,15.3583011 10.0439442,15.2683181 L12.300441,10.4002406 C12.3400286,10.3012593 12.4686885,10.2562678 12.5676577,10.3012593 C12.6765237,10.3372525 12.7260083,10.4542303 12.6864207,10.5442133 L10.420027,15.4032926 C10.3903363,15.4842772 10.3111609,15.5292687 10.2319856,15.5292687 L10.2319856,15.5292687 Z"></path>
                <path d="M9.90538739,16.8700146 C9.90538739,17.3829175 9.45012927,17.796839 8.88600509,17.796839 C8.3218809,17.796839 7.86662278,17.3829175 7.86662278,16.8700146 C7.86662278,16.3571118 8.3218809,15.9431903 8.88600509,15.9431903 C9.45012927,15.9431903 9.90538739,16.3571118 9.90538739,16.8700146 L9.90538739,16.8700146 Z"></path>
                <path d="M14.5767315,15.1333437 C14.5767315,15.4572823 14.289721,15.7092346 13.9433289,15.7092346 C13.58704,15.7092346 13.3099263,15.448284 13.3099263,15.1333437 C13.3099263,14.8094051 13.5969369,14.5574528 13.9433289,14.5574528 C14.289721,14.5574528 14.5767315,14.8184034 14.5767315,15.1333437 L14.5767315,15.1333437 Z"></path>
                <path d="M14.5767315,14.0175551 C14.5470408,14.0175551 14.527247,14.0175551 14.4975562,13.9995586 C14.3886901,13.9635654 14.3392056,13.8465875 14.3886901,13.7566046 L15.2596187,11.8399678 C15.2992064,11.7409865 15.4278663,11.695995 15.5268354,11.7409865 C15.6357015,11.7769797 15.6851861,11.8939575 15.6455984,11.9839405 L14.7746698,13.9005773 C14.7350822,13.9725637 14.6559069,14.0175551 14.5767315,14.0175551 L14.5767315,14.0175551 Z"></path>
                <path d="M6.46126078,14.593446 C6.46126078,14.9173846 6.17425023,15.1693369 5.82785818,15.1693369 C5.47156922,15.1693369 5.19445559,14.9083863 5.19445559,14.593446 C5.19445559,14.2695074 5.48146614,14.0175551 5.82785818,14.0175551 C6.17425023,14.0175551 6.46126078,14.2785057 6.46126078,14.593446 L6.46126078,14.593446 Z"></path>
                <path d="M6.82744665,12.5688297 C6.79775591,12.5688297 6.77796207,12.5688297 6.74827133,12.5508331 C6.63940526,12.5148399 6.58992068,12.397862 6.63940526,12.3078791 L7.51033382,10.3912423 C7.54992149,10.292261 7.67858139,10.2472695 7.77755054,10.292261 C7.88641662,10.3282542 7.93590119,10.445232 7.89631353,10.535215 L7.02538496,12.4518518 C6.9857973,12.5328365 6.90662198,12.5688297 6.82744665,12.5688297 L6.82744665,12.5688297 Z"></path>
                <path d="M20.1091073,5.84710331 C19.6439523,4.27240169 17.8625075,3.32758072 16.1305473,3.74150229 C16.1305473,3.74150229 16.0018874,3.76849717 15.7841552,3.82248694 C15.229928,1.95084159 13.349514,0.565104167 11.1128111,0.565104167 C8.68806678,0.565104167 6.67899292,2.19379556 6.33260087,4.30839487 C6.25342555,4.29039828 6.20394097,4.28139999 6.20394097,4.28139999 C4.73919747,3.93946478 3.23486631,4.73131474 2.8488866,6.06306239 C2.75981436,6.37800271 2.74002053,6.69294304 2.76971128,6.99888507 C2.03733952,7.17885097 1.58208141,7.28683051 1.58208141,7.28683051 C0.889297321,7.45779811 0.483523783,8.09667705 0.671565179,8.7265577 C0.829915828,9.27545369 1.39404001,9.6263872 1.99775186,9.59939231 L16.8728159,9.59939231 C16.8728159,9.59939231 17.4864247,9.57239743 17.803126,9.50041107 C19.5350862,9.05949461 20.5742624,7.43080323 20.1091073,5.84710331 L20.1091073,5.84710331 Z"></path>
            </g>
        </g>
    </g>
</svg>