<?xml version="1.0" encoding="UTF-8" standalone="no"?>
<svg width="20px" height="19px" viewBox="0 0 20 19" version="1.1" xmlns="http://www.w3.org/2000/svg" xmlns:xlink="http://www.w3.org/1999/xlink">
    <!-- Generator: Sketch 3.7.2 (28276) - http://www.bohemiancoding.com/sketch -->
    <title>icon-weather-light-rain</title>
    <desc>Created with Sketch.</desc>
    <defs></defs>
    <g id="weather-icons" stroke="none" stroke-width="1" fill="none" fill-rule="evenodd">
        <g id="Drizzle_Showers_ScatteredShowers" transform="translate(-2.000000, -2.000000)">
            <g transform="translate(1.959799, 2.173913)" id="Shape">
                <path d="M11.84554,11.0050687 C11.7471375,10.9851785 11.6487351,11.0249589 11.5995338,11.1045197 L11.5995338,11.1045197 L8.17512723,16.445038 C8.11608574,16.5345439 8.0668845,16.6240498 8.03736375,16.7334459 C7.87991977,17.2704813 8.23416873,17.8274068 8.8344239,17.9666382 C9.42483883,18.1058696 10.0349343,17.7975715 10.2022185,17.2605362 L10.2022185,17.2605362 L11.0287994,14.4858535 L11.0287994,14.4759084 L11.0287994,14.4759084 L11.9931438,11.2437511 L11.9931438,11.2238609 L11.9931438,11.2238609 C12.0226645,11.1443001 11.9537828,11.034904 11.84554,11.0050687 L11.84554,11.0050687 Z" fill="#2B9CD8"></path>
                <path d="M8.98972902,11.1980638 C9.02251945,11.1210906 8.9733338,11.0355649 8.89135771,11.0099072 C8.81757923,10.9842494 8.73560315,11.0099072 8.70281271,11.0697752 L8.70281271,11.0697752 L7.11247662,13.1908135 C7.07968619,13.2335764 7.05509336,13.2763392 7.03050053,13.3276547 C6.93212923,13.5842319 7.07968619,13.8750194 7.35840488,13.9690977 C7.63712358,14.063176 7.93223749,13.9348874 8.03880641,13.6868628 L8.03880641,13.6868628 L8.98153141,11.2151689 L8.98972902,11.1980638 L8.98972902,11.1980638 L8.98972902,11.1980638 Z" fill="#2B9CD8"></path>
                <path d="M19.8866246,5.84567243 C19.4118453,4.10292511 17.5935415,3.05727672 15.8257462,3.5153703 C15.8257462,3.5153703 15.6944242,3.54524597 15.4721871,3.60499731 C14.9064926,1.53361764 12.9871719,0 10.7041905,0 C8.22927704,0 6.17863445,1.80249865 5.82507538,4.14275934 C5.74426188,4.12284223 5.69375344,4.11288367 5.69375344,4.11288367 C4.19870367,3.73445854 2.66324714,4.61081148 2.26928132,6.08467778 C2.17836614,6.43322724 2.15816276,6.78177671 2.18846782,7.12036761 C1.44094294,7.31953874 0.976265303,7.43904141 0.976265303,7.43904141 C0.269147167,7.62825397 -0.145022027,8.33531146 0.0469100384,9.03241039 C0.208537041,9.63988231 0.784333238,10.028266 1.40053619,9.99839033 L16.5833727,9.99839033 C16.5833727,9.99839033 17.2096774,9.96851466 17.5329314,9.88884621 C19.3007267,9.40087696 20.3614039,7.59837831 19.8866246,5.84567243 L19.8866246,5.84567243 Z" fill="#B9B9B9"></path>
            </g>
        </g>
    </g>
</svg>