<?xml version="1.0" encoding="UTF-8" standalone="no"?>
<svg width="25px" height="26px" viewBox="0 0 25 26" version="1.1" xmlns="http://www.w3.org/2000/svg" xmlns:xlink="http://www.w3.org/1999/xlink">
    <!-- Generator: Sketch 3.7.2 (28276) - http://www.bohemiancoding.com/sketch -->
    <title>ArmedNight</title>
    <desc>Created with Sketch.</desc>
    <defs></defs>
    <g id="customer-header---visuals---most-recent" stroke="none" stroke-width="1" fill="none" fill-rule="evenodd">
        <g id="03-EIN-CustomerHeader_icons" transform="translate(-143.000000, -71.000000)" fill="#FB543F">
            <path d="M167.980041,73.7156701 C163.673137,70.0429604 147.439424,70.1469663 143,73.7156701 C143,74.8727362 143,87.2494431 145.444996,90.714141 C147.499058,93.6458084 155.821321,97 155.821321,97 C155.821321,97 162.80513,94.5753615 165.34289,91.0521603 C168.404105,86.7944171 167.980041,73.7156701 167.980041,73.7156701 L167.980041,73.7156701 Z M155.814695,80.7685729 C156.484372,80.7685729 157.027254,81.3011607 157.027254,81.9581409 C157.027254,82.6151211 156.484372,83.1477088 155.814695,83.1477088 C155.145017,83.1477088 154.602136,82.6151211 154.602136,81.9581409 C154.602136,81.6426479 154.729887,81.3400766 154.957286,81.1169893 C155.184685,80.8939021 155.493104,80.7685729 155.814695,80.7685729 L155.814695,80.7685729 Z M152.667342,76.9333539 L153.270308,75.7242848 L153.879901,76.9333539 L155.238232,77.1218647 L154.257583,78.0644185 L154.489493,79.3644928 L153.270308,78.7144556 L152.057749,79.3644928 L152.28966,78.0644185 L151.309011,77.1218647 L152.667342,76.9333539 Z M150.858442,82.5171728 L151.415027,81.4186101 L151.971611,82.5171728 L153.197422,82.6926828 L152.302912,83.5442315 L152.508318,84.7468002 L151.408401,84.1812679 L150.308484,84.7468002 L150.51389,83.5442315 L149.619379,82.6926828 L150.858442,82.5171728 Z M155.072582,89.9860994 C152.671128,89.9883055 150.412211,88.8681923 148.989909,86.9699271 C152.187621,88.1367317 155.7825,86.9712699 157.641856,84.1649613 C159.501211,81.3586526 159.127461,77.6624933 156.742335,75.2692589 C160.572739,76.0484862 163.169603,79.5592653 162.736853,83.3734282 C162.304103,87.1875911 158.983891,90.0522434 155.072582,89.9860994 L155.072582,89.9860994 Z" id="ArmedNight"></path>
        </g>
    </g>
</svg>