<?xml version="1.0" encoding="UTF-8" standalone="no"?>
<svg width="22px" height="18px" viewBox="0 0 22 18" version="1.1" xmlns="http://www.w3.org/2000/svg" xmlns:xlink="http://www.w3.org/1999/xlink" xmlns:sketch="http://www.bohemiancoding.com/sketch/ns">
    <!-- Generator: Sketch 3.5.1 (25234) - http://www.bohemiancoding.com/sketch -->
    <title>TV icon Copy 21</title>
    <desc>Created with Sketch.</desc>
    <defs></defs>
    <g id="customer-header---visuals---most-recent" stroke="none" stroke-width="1" fill="none" fill-rule="evenodd" sketch:type="MSPage">
        <g id="02-EIN-CustomerHeader_SpacingSpecs" sketch:type="MSArtboardGroup" transform="translate(-1263.000000, -276.000000)" fill="#A2A2A2">
            <path d="M1284.04348,276 L1263.95652,276 C1263.42757,276 1263,276.425877 1263,276.950617 L1263,288.358025 C1263,288.883716 1263.42757,289.308642 1263.95652,289.308642 L1273.52174,289.308642 L1273.52174,292.160494 L1269.69565,292.160494 L1269.69565,293.111111 L1278.30435,293.111111 L1278.30435,292.160494 L1274.47826,292.160494 L1274.47826,289.308642 L1284.04348,289.308642 C1284.57243,289.308642 1285,288.883716 1285,288.358025 L1285,276.950617 C1285,276.426827 1284.57243,276 1284.04348,276 L1284.04348,276 Z M1284.04348,288.358025 L1274.47826,288.358025 L1273.52174,288.358025 L1263.95652,288.358025 L1263.95652,276.950617 L1284.04348,276.950617 L1284.04348,288.358025 L1284.04348,288.358025 Z" id="TV-icon-Copy-21" sketch:type="MSShapeGroup"></path>
        </g>
    </g>
</svg>