<?xml version="1.0" encoding="UTF-8" standalone="no"?>
<svg width="20px" height="19px" viewBox="0 0 20 19" version="1.1" xmlns="http://www.w3.org/2000/svg" xmlns:xlink="http://www.w3.org/1999/xlink">
    <!-- Generator: Sketch 3.7.2 (28276) - http://www.bohemiancoding.com/sketch -->
    <title>icon-weather-mostly-sunny</title>
    <desc>Created with Sketch.</desc>
    <defs></defs>
    <g id="weather-icons" stroke="none" stroke-width="1" fill="none" fill-rule="evenodd">
        <g id="MostlySunny">
            <g id="Shape">
                <path d="M9.94565217,11.5333333 L9.84782609,11.5333333 L9.83695652,11.5333333 L9.83695652,11.5333333 C9.81521739,11.5333333 9.7826087,11.5333333 9.73913043,11.5222222 C9.68478261,11.5111111 9.64130435,11.5 9.61956522,11.5 L9.60869565,11.5 C9.58695652,11.5 9.55434783,11.4888889 9.52173913,11.4777778 C9.47826087,11.4666667 9.43478261,11.4444444 9.40217391,11.4333333 L9.39130435,11.4333333 C9.36956522,11.4222222 9.33695652,11.4111111 9.30434783,11.3888889 C9.26086957,11.3666667 9.22826087,11.3444444 9.20652174,11.3333333 L9.20652174,11.3333333 L9.20652174,11.3333333 C9.18478261,11.3222222 9.16304348,11.3 9.13043478,11.2777778 C9.08695652,11.2444444 9.05434783,11.2222222 9.04347826,11.2 L9.0326087,11.1888889 C9.02173913,11.1777778 8.98913043,11.1555556 8.9673913,11.1222222 C8.93478261,11.0777778 8.90217391,11.0444444 8.88043478,11.0222222 L8.86956522,11.0111111 L8.86956522,11.0111111 C8.85869565,11 8.83695652,10.9666667 8.81521739,10.9333333 C8.7826087,10.8888889 8.76086957,10.8444444 8.73913043,10.8111111 C8.72826087,10.8 8.7173913,10.7666667 8.69565217,10.7333333 C8.66304348,10.6555556 8.63043478,10.5888889 8.61956522,10.5111111 C8.52173913,10.1555556 8.57608696,9.77777778 8.76086957,9.45555556 C8.94565217,9.13333333 9.23913043,8.9 9.58695652,8.81111111 L9.58695652,8.81111111 C9.61956522,8.8 9.68478261,8.78888889 9.77173913,8.75555556 L9.77173913,8.73333333 C9.7826087,8.66666667 9.79347826,8.58888889 9.81521739,8.52222222 C9.83695652,8.45555556 9.84782609,8.38888889 9.88043478,8.32222222 C9.89130435,8.3 9.89130435,8.28888889 9.90217391,8.26666667 L9.90217391,8.25555556 C9.92391304,8.21111111 9.93478261,8.16666667 9.95652174,8.12222222 C9.9673913,8.1 9.97826087,8.07777778 9.98913043,8.05555556 C10.0108696,8.01111111 10.0326087,7.97777778 10.0543478,7.94444444 C10.0652174,7.92222222 10.076087,7.9 10.0978261,7.87777778 C10.1195652,7.84444444 10.1413043,7.81111111 10.173913,7.76666667 L10.1847826,7.75555556 C10.1956522,7.74444444 10.2065217,7.72222222 10.2173913,7.71111111 C10.25,7.67777778 10.2826087,7.63333333 10.3152174,7.58888889 C10.326087,7.57777778 10.3369565,7.56666667 10.3478261,7.55555556 C10.3913043,7.51111111 10.4347826,7.46666667 10.4891304,7.42222222 C10.5,7.41111111 10.5108696,7.4 10.5326087,7.38888889 C10.576087,7.35555556 10.6086957,7.32222222 10.6413043,7.3 C10.6521739,7.28888889 10.673913,7.27777778 10.6847826,7.26666667 L10.6956522,7.26666667 C10.7282609,7.24444444 10.7717391,7.22222222 10.8043478,7.2 C10.826087,7.18888889 10.8478261,7.17777778 10.8695652,7.16666667 C10.9021739,7.14444444 10.9456522,7.12222222 10.9782609,7.11111111 L10.9891304,7.11111111 C11.0108696,7.1 11.0217391,7.08888889 11.0434783,7.08888889 C11.0869565,7.06666667 11.1304348,7.05555556 11.173913,7.03333333 C11.1847826,7.02222222 11.2065217,7.02222222 11.2173913,7.01111111 C11.2826087,6.98888889 11.3369565,6.96666667 11.4021739,6.95555556 C11.4130435,6.95555556 11.4347826,6.94444444 11.4456522,6.94444444 C11.5,6.93333333 11.5434783,6.92222222 11.5978261,6.91111111 C11.6195652,6.91111111 11.6413043,6.91111111 11.6521739,6.9 L11.6630435,6.9 C11.7065217,6.88888889 11.75,6.88888889 11.7934783,6.88888889 L11.8695652,6.88888889 L11.8913043,6.88888889 C11.9021739,6.85555556 11.9130435,6.82222222 11.9347826,6.77777778 C12,6.6 12.0869565,6.43333333 12.1847826,6.27777778 C11.423913,5.58888889 10.423913,5.16666667 9.32608696,5.16666667 C6.94565217,5.16666667 5.02173913,7.13333333 5.02173913,9.56666667 C5.02173913,12 6.94565217,13.9666667 9.32608696,13.9666667 C11,13.9666667 12.4565217,12.9777778 13.1630435,11.5444444 L9.97826087,11.5444444 C9.9673913,11.5333333 9.95652174,11.5333333 9.94565217,11.5333333 L9.94565217,11.5333333 Z" fill="#FECE00"></path>
                <path d="M4.54347826,1.78888889 L6,5.42222222 C6.42391304,5.06666667 6.91304348,4.77777778 7.43478261,4.57777778 L5.10869565,1.45555556 C5.10869565,1.45555556 5.10869565,1.45555556 5.09782609,1.44444444 C4.98913043,1.31111111 4.7826087,1.27777778 4.64130435,1.38888889 C4.5326087,1.47777778 4.48913043,1.62222222 4.5326087,1.76666667 C4.5326087,1.76666667 4.5326087,1.77777778 4.54347826,1.78888889 L4.54347826,1.78888889 Z" fill="#FECE00"></path>
                <path d="M10.1195652,4.28888889 L9.63043478,0.4 L9.63043478,0.388888889 C9.60869565,0.211111111 9.44565217,0.0777777778 9.26086957,0.1 C9.11956522,0.122222222 9.01086957,0.222222222 8.97826087,0.366666667 C8.97826087,0.377777778 8.97826087,0.377777778 8.9673913,0.388888889 L8.45652174,4.27777778 C8.72826087,4.23333333 9,4.21111111 9.27173913,4.21111111 C9.56521739,4.22222222 9.84782609,4.24444444 10.1195652,4.28888889 L10.1195652,4.28888889 Z" fill="#FECE00"></path>
                <path d="M4.06521739,9.55555556 C4.06521739,9.26666667 4.08695652,8.97777778 4.13043478,8.7 L0.326086957,9.2 L0.315217391,9.2 C0.141304348,9.23333333 0.0108695652,9.4 0.0434782609,9.57777778 C0.0652173913,9.72222222 0.163043478,9.83333333 0.304347826,9.86666667 C0.315217391,9.86666667 0.315217391,9.86666667 0.326086957,9.87777778 L4.13043478,10.4 C4.08695652,10.1222222 4.06521739,9.84444444 4.06521739,9.55555556 L4.06521739,9.55555556 Z" fill="#FECE00"></path>
                <path d="M14.0652174,1.81111111 C14.0652174,1.81111111 14.0652174,1.8 14.0652174,1.81111111 C14.0978261,1.72222222 14.0978261,1.63333333 14.0652174,1.55555556 C14.0326087,1.46666667 13.9673913,1.41111111 13.8913043,1.36666667 C13.7608696,1.31111111 13.6086957,1.34444444 13.5217391,1.45555556 C13.5108696,1.45555556 13.5108696,1.46666667 13.5,1.47777778 L11.1521739,4.57777778 C11.673913,4.78888889 12.1630435,5.07777778 12.5869565,5.43333333 L14.0652174,1.81111111 L14.0652174,1.81111111 Z" fill="#FECE00"></path>
                <path d="M1.36956522,5.25555556 L4.41304348,7.65555556 C4.61956522,7.12222222 4.90217391,6.62222222 5.25,6.18888889 L1.70652174,4.66666667 L1.69565217,4.66666667 C1.5326087,4.6 1.33695652,4.68888889 1.27173913,4.85555556 C1.2173913,4.98888889 1.25,5.14444444 1.35869565,5.23333333 C1.35869565,5.24444444 1.36956522,5.24444444 1.36956522,5.25555556 L1.36956522,5.25555556 Z" fill="#FECE00"></path>
                <path d="M14.0217391,17.3222222 L12.5652174,13.6888889 C12.1413043,14.0444444 11.6521739,14.3333333 11.1304348,14.5333333 L13.4565217,17.6555556 C13.4565217,17.6555556 13.4565217,17.6666667 13.4673913,17.6666667 C13.576087,17.8 13.7826087,17.8222222 13.923913,17.7222222 C14.0326087,17.6333333 14.076087,17.4888889 14.0326087,17.3444444 C14.0326087,17.3444444 14.0326087,17.3333333 14.0217391,17.3222222 L14.0217391,17.3222222 Z" fill="#FECE00"></path>
                <path d="M4.40217391,11.4444444 L1.34782609,13.8222222 C1.34782609,13.8222222 1.33695652,13.8222222 1.33695652,13.8333333 C1.27173913,13.8888889 1.22826087,13.9666667 1.2173913,14.0444444 C1.20652174,14.1333333 1.22826087,14.2222222 1.2826087,14.3 C1.36956522,14.4111111 1.52173913,14.4555556 1.65217391,14.4111111 C1.66304348,14.4111111 1.66304348,14.4111111 1.67391304,14.4 L5.22826087,12.9111111 C4.89130435,12.4777778 4.60869565,11.9777778 4.40217391,11.4444444 L4.40217391,11.4444444 Z" fill="#FECE00"></path>
                <path d="M8.44565217,14.8111111 L8.93478261,18.7 L8.93478261,18.7111111 C8.95652174,18.8777778 9.09782609,19 9.26086957,19 L9.30434783,19 C9.44565217,18.9777778 9.55434783,18.8777778 9.58695652,18.7333333 C9.58695652,18.7222222 9.58695652,18.7222222 9.59782609,18.7111111 L10.1086957,14.8222222 C9.83695652,14.8666667 9.56521739,14.8888889 9.29347826,14.8888889 C9,14.8888889 8.7173913,14.8666667 8.44565217,14.8111111 L8.44565217,14.8111111 Z" fill="#FECE00"></path>
                <path d="M4.5,17.3 C4.5,17.3 4.5,17.3111111 4.5,17.3 C4.4673913,17.3888889 4.4673913,17.4777778 4.5,17.5555556 C4.5326087,17.6444444 4.59782609,17.7 4.67391304,17.7444444 C4.80434783,17.8 4.95652174,17.7666667 5.04347826,17.6555556 C5.05434783,17.6555556 5.05434783,17.6444444 5.05434783,17.6444444 L7.40217391,14.5333333 C6.88043478,14.3222222 6.39130435,14.0333333 5.9673913,13.6777778 L4.5,17.3 L4.5,17.3 Z" fill="#FECE00"></path>
                <path d="M19.8913043,8.55555556 C19.8804348,8.5 19.8586957,8.44444444 19.8369565,8.38888889 C19.826087,8.36666667 19.826087,8.35555556 19.8152174,8.33333333 C19.8043478,8.3 19.7826087,8.26666667 19.7717391,8.22222222 C19.7608696,8.2 19.75,8.18888889 19.7391304,8.16666667 C19.7173913,8.13333333 19.7065217,8.1 19.6847826,8.07777778 C19.673913,8.05555556 19.6630435,8.04444444 19.6521739,8.02222222 C19.6304348,7.98888889 19.6086957,7.96666667 19.5869565,7.93333333 C19.576087,7.92222222 19.5652174,7.9 19.5543478,7.88888889 C19.5326087,7.85555556 19.5,7.82222222 19.4673913,7.78888889 C19.4565217,7.77777778 19.4565217,7.77777778 19.4456522,7.76666667 C19.4130435,7.72222222 19.3695652,7.68888889 19.326087,7.65555556 C19.3152174,7.64444444 19.3043478,7.63333333 19.2934783,7.62222222 C19.2608696,7.6 19.2391304,7.57777778 19.2065217,7.54444444 C19.1956522,7.53333333 19.173913,7.52222222 19.1630435,7.51111111 C19.1304348,7.48888889 19.1086957,7.47777778 19.076087,7.45555556 C19.0543478,7.44444444 19.0434783,7.43333333 19.0217391,7.42222222 C18.9891304,7.4 18.9565217,7.38888889 18.9347826,7.37777778 C18.9130435,7.36666667 18.9021739,7.35555556 18.8804348,7.35555556 C18.8478261,7.34444444 18.8043478,7.32222222 18.7717391,7.31111111 C18.7608696,7.31111111 18.75,7.3 18.7282609,7.3 C18.673913,7.27777778 18.6304348,7.26666667 18.576087,7.25555556 C18.5652174,7.25555556 18.5543478,7.25555556 18.5434783,7.24444444 C18.5,7.23333333 18.4565217,7.22222222 18.4130435,7.22222222 C18.3913043,7.22222222 18.3804348,7.22222222 18.3586957,7.21111111 C18.326087,7.21111111 18.2934783,7.2 18.25,7.2 L18.1847826,7.2 L18.0543478,7.2 L18.0326087,7.2 C17.9782609,7.2 17.923913,7.21111111 17.8804348,7.21111111 C17.8695652,7.21111111 17.8586957,7.21111111 17.8478261,7.22222222 C17.7934783,7.23333333 17.7391304,7.24444444 17.6847826,7.25555556 C17.6847826,7.25555556 17.6195652,7.27777778 17.4891304,7.31111111 C17.326087,6.71111111 16.9673913,6.18888889 16.4891304,5.82222222 L16.4891304,5.82222222 C16.2826087,5.66666667 16.0543478,5.54444444 15.8043478,5.45555556 C15.6630435,5.4 15.5,5.36666667 15.3478261,5.34444444 C15.2173913,5.32222222 15.076087,5.31111111 14.9347826,5.31111111 C13.9130435,5.31111111 13.0217391,5.91111111 12.5869565,6.77777778 C12.5434783,6.85555556 12.5108696,6.94444444 12.4782609,7.02222222 C12.4021739,7.21111111 12.3478261,7.41111111 12.3152174,7.62222222 C12.2717391,7.61111111 12.25,7.6 12.25,7.6 C12.2065217,7.58888889 12.1630435,7.57777778 12.1195652,7.56666667 L12.0869565,7.56666667 C12.0434783,7.55555556 12,7.55555556 11.9565217,7.55555556 L11.9347826,7.55555556 L11.826087,7.55555556 L11.7717391,7.55555556 C11.7391304,7.55555556 11.7065217,7.55555556 11.6847826,7.56666667 C11.673913,7.56666667 11.6521739,7.56666667 11.6413043,7.57777778 C11.6086957,7.58888889 11.5652174,7.58888889 11.5326087,7.6 L11.5108696,7.6 C11.4673913,7.61111111 11.423913,7.62222222 11.3804348,7.64444444 C11.3695652,7.64444444 11.3586957,7.65555556 11.3478261,7.65555556 C11.3152174,7.66666667 11.2826087,7.67777778 11.2608696,7.68888889 C11.25,7.7 11.2282609,7.7 11.2173913,7.71111111 C11.1956522,7.72222222 11.1630435,7.73333333 11.1413043,7.75555556 C11.1304348,7.76666667 11.1086957,7.77777778 11.0978261,7.77777778 C11.076087,7.78888889 11.0434783,7.81111111 11.0217391,7.82222222 C11.0108696,7.83333333 11,7.84444444 10.9782609,7.84444444 C10.9565217,7.86666667 10.923913,7.88888889 10.9021739,7.91111111 C10.8913043,7.92222222 10.8804348,7.92222222 10.8695652,7.93333333 C10.8369565,7.96666667 10.8043478,8 10.7717391,8.03333333 C10.7608696,8.04444444 10.7608696,8.04444444 10.75,8.05555556 C10.7282609,8.07777778 10.6956522,8.11111111 10.673913,8.14444444 C10.6630435,8.15555556 10.6521739,8.16666667 10.6413043,8.17777778 C10.6195652,8.2 10.6086957,8.23333333 10.5869565,8.25555556 C10.576087,8.26666667 10.5652174,8.28888889 10.5543478,8.3 C10.5434783,8.32222222 10.5217391,8.35555556 10.5108696,8.37777778 C10.5,8.38888889 10.5,8.41111111 10.4891304,8.42222222 C10.4782609,8.45555556 10.4673913,8.47777778 10.4456522,8.51111111 C10.4347826,8.52222222 10.4347826,8.54444444 10.423913,8.55555556 C10.4021739,8.6 10.3913043,8.64444444 10.3804348,8.7 C10.3695652,8.74444444 10.3586957,8.8 10.3478261,8.84444444 C10.3369565,8.94444444 10.326087,9.03333333 10.326087,9.13333333 C10.326087,9.17777778 10.326087,9.23333333 10.3369565,9.27777778 C9.93478261,9.38888889 9.68478261,9.45555556 9.68478261,9.45555556 C9.30434783,9.55555556 9.08695652,9.95555556 9.18478261,10.3444444 C9.19565217,10.3888889 9.20652174,10.4222222 9.22826087,10.4666667 C9.23913043,10.4777778 9.23913043,10.4888889 9.25,10.5 C9.26086957,10.5222222 9.27173913,10.5444444 9.29347826,10.5666667 C9.30434783,10.5777778 9.31521739,10.5888889 9.32608696,10.6 C9.33695652,10.6222222 9.35869565,10.6333333 9.36956522,10.6555556 C9.38043478,10.6666667 9.39130435,10.6777778 9.40217391,10.6888889 C9.42391304,10.7 9.43478261,10.7222222 9.45652174,10.7333333 C9.4673913,10.7444444 9.48913043,10.7555556 9.5,10.7666667 C9.52173913,10.7777778 9.5326087,10.7888889 9.55434783,10.8 C9.56521739,10.8111111 9.58695652,10.8111111 9.59782609,10.8222222 C9.61956522,10.8333333 9.64130435,10.8444444 9.66304348,10.8444444 C9.68478261,10.8444444 9.69565217,10.8555556 9.7173913,10.8555556 C9.73913043,10.8555556 9.76086957,10.8666667 9.7826087,10.8666667 L9.83695652,10.8666667 L9.92391304,10.8666667 L13.1304348,10.8666667 L13.3478261,10.8666667 L18.076087,10.8666667 C18.076087,10.8666667 18.4130435,10.8555556 18.5869565,10.8 C19.5869565,10.5444444 20.1521739,9.53333333 19.8913043,8.55555556 L19.8913043,8.55555556 Z" fill="#B9B9B9"></path>
                <path d="M17.2065217,13.8777778 C17.2065217,13.8666667 17.1956522,13.8666667 17.1847826,13.8555556 L14.2391304,11.5333333 L14.1521739,11.4666667 C14.1521739,11.4777778 14.1304348,11.5111111 14.1195652,11.5333333 C13.923913,12.0444444 13.6521739,12.5111111 13.3152174,12.9333333 L16.8586957,14.4444444 L16.8695652,14.4444444 C17.0326087,14.5111111 17.2282609,14.4222222 17.2934783,14.2555556 C17.3478261,14.1222222 17.3152174,13.9777778 17.2065217,13.8777778 L17.2065217,13.8777778 Z" fill="#FECE00"></path>
            </g>
        </g>
    </g>
</svg>