<?xml version="1.0" encoding="UTF-8" standalone="no"?>
<svg width="26px" height="21px" viewBox="0 0 26 21" version="1.1" xmlns="http://www.w3.org/2000/svg" xmlns:xlink="http://www.w3.org/1999/xlink">
    <!-- Generator: Sketch 3.7.2 (28276) - http://www.bohemiancoding.com/sketch -->
    <title>broadbandoffline</title>
    <desc>Created with Sketch.</desc>
    <defs></defs>
    <g id="customer-header---visuals---most-recent" stroke="none" stroke-width="1" fill="none" fill-rule="evenodd">
        <g id="03-EIN-CustomerHeader_icons" transform="translate(-148.000000, -122.000000)" fill="#FB543F">
            <g id="broadbandoffline" transform="translate(148.000000, 122.000000)">
                <path d="M13.01,17.23 C12.2147005,17.2294682 11.5178622,17.7623446 11.31,18.53 L13.01,20.23 L14.7,18.53 C14.4931168,17.7659213 13.8015814,17.2339711 13.01,17.23 L13.01,17.23 Z" id="Shape"></path>
                <path d="M13.01,1.37 C8.04767769,1.37014109 3.3201107,3.48299988 0.01,7.18 L1.56,8.72 C5.24991597,4.51628719 10.9472108,2.67349641 16.4,3.92 L18,2.12 C16.3821035,1.6281627 14.7009947,1.37549103 13.01,1.37 L13.01,1.37 Z" id="Shape"></path>
                <path d="M19.47,4.97 C21.3751727,5.86558894 23.0767863,7.14179914 24.47,8.72 L26.01,7.18 C24.5757461,5.59392555 22.864457,4.28250201 20.96,3.31 L19.47,4.97 Z" id="Shape"></path>
                <path d="M20.71,12.5 L22.23,10.97 C20.8841315,9.40383219 19.164184,8.20330883 17.23,7.48 L15.65,9.25 C17.630179,9.78849266 19.396751,10.9231486 20.71,12.5 L20.71,12.5 Z" id="Shape"></path>
                <path d="M13.01,6.7 C9.45669358,6.70395971 6.08350182,8.26447204 3.78,10.97 L5.31,12.5 C6.96802401,10.4938771 9.34284463,9.21319587 11.93,8.93 L13.88,6.75 C13.59,6.73 13.3,6.7 13.01,6.7 L13.01,6.7 Z" id="Shape"></path>
                <path d="M13.01,14.26 C14.5654291,14.2656689 16.0131225,15.0553199 16.86,16.36 L18.4,14.8 C17.1526584,13.1261253 15.1973252,12.1281291 13.11,12.1 L10.52,15 C11.260458,14.5166132 12.125726,14.2594653 13.01,14.26 L13.01,14.26 Z" id="Shape"></path>
                <polygon id="Shape" points="6.89 18.32 5.44 16.95 20.56 0 22.02 1.37"></polygon>
            </g>
        </g>
    </g>
</svg>