<?xml version="1.0" encoding="UTF-8" standalone="no"?>
<svg width="19px" height="13px" viewBox="0 0 19 13" version="1.1" xmlns="http://www.w3.org/2000/svg" xmlns:xlink="http://www.w3.org/1999/xlink">
    <!-- Generator: Sketch 3.6.1 (26313) - http://www.bohemiancoding.com/sketch -->
    <title>Shape Copy 2</title>
    <desc>Created with Sketch.</desc>
    <defs></defs>
    <g id="Page-1" stroke="none" stroke-width="1" fill="none" fill-rule="evenodd">
        <g id="Artboard-1" transform="translate(-64.000000, -109.000000)" fill="#464646">
            <path d="M76.8350862,114.590266 C78.143786,112.705502 78.7039442,111.111401 78.0337019,110.465651 C77.0924171,109.558763 73.926277,111.083984 70.9740653,113.887093 C70.5034229,114.340537 70.0327804,114.835204 69.6049236,115.32987 C69.4337809,115.123759 69.3054239,114.917648 69.1342812,114.711537 C69.562138,114.258093 69.9899947,113.804649 70.4606372,113.351205 C73.9690627,109.929762 77.8625592,108.157208 79.1461295,109.393874 C80.0721372,110.326596 79.3004124,112.655643 77.3605236,115.203589 C77.7877864,115.719543 78.1702246,116.225685 78.5043444,116.70855 C78.2476303,116.790995 77.9909163,116.873439 77.6914165,116.955884 C77.0068457,115.925329 76.0655608,114.771107 74.9103476,113.658108 C74.4397051,113.204664 73.926277,112.75122 73.4128489,112.338998 C73.6267773,112.174109 73.8407056,112.050442 74.054634,111.885554 C74.5252765,112.297776 74.9959189,112.709998 75.4665613,113.163442 C75.9570466,113.636003 76.4141025,114.115007 76.8350862,114.590266 Z M72.9483827,118.852104 L72.6488829,118.852104 C70.4240277,120.500992 68.3703153,121.242992 67.6429588,120.542214 C67.215102,120.129993 67.3006733,119.305549 67.7285301,118.316216 C67.4290304,118.233772 67.1295306,118.151327 66.8728166,118.068883 C66.0598887,119.676548 65.888746,120.954436 66.5305312,121.613992 C67.6429588,122.685769 70.7663132,121.449103 73.8896675,118.852104 C73.5901678,118.852104 73.2906681,118.852104 72.9483827,118.852104 Z M75.4237757,117.326883 C75.8088468,116.955884 76.1511322,116.584884 76.4934176,116.213884 C76.3222749,116.007773 76.1939179,115.801662 76.0227751,115.595551 C75.5949184,116.090217 75.1242759,116.584884 74.6536335,117.038328 C74.5252765,117.161995 74.3969194,117.285661 74.2685624,117.409328 C74.6108478,117.409328 75.0387046,117.409328 75.4237757,117.326883 Z M68.235782,115.595551 C67.9362823,115.966551 67.6795682,116.378773 67.4228541,116.749773 C67.6795682,116.832217 67.9362823,116.914661 68.235782,116.997106 C68.4069247,116.749773 68.5780674,116.502439 68.7492101,116.255106 C68.5780674,116.007773 68.4069247,115.801662 68.235782,115.595551 Z M71.5923836,117.620478 C71.4640266,117.496811 71.3356695,117.373145 71.2073125,117.249478 C68.2978865,114.446369 66.7148165,111.395927 67.6561014,110.447816 C68.3406722,109.788261 70.0520992,110.365372 72.0630261,111.684482 C72.2769544,111.519593 72.4908828,111.354704 72.7048112,111.189816 C70.0093136,109.252372 67.5277443,108.469151 66.5436738,109.376039 C65.3028891,110.571483 67.0143162,114.157814 70.351599,117.496811 C70.7794558,117.579256 71.1645268,117.579256 71.5923836,117.620478 Z M78.0337019,120.542214 C77.3491311,121.20177 75.6377041,120.624659 73.6267773,119.305549 C73.4128489,119.470437 73.1989205,119.635326 72.9849921,119.800215 C75.6804897,121.737658 78.162059,122.52088 79.1461295,121.613992 C79.7879147,120.995659 79.616772,119.676548 78.8038441,118.068883 C78.5471301,118.151327 78.2476303,118.233772 77.9481306,118.316216 C78.418773,119.305549 78.4615587,120.129993 78.0337019,120.542214 Z M73.1133491,113.163442 L73.6695629,113.163442 C73.4984202,112.998553 73.2844918,112.874886 73.1133491,112.709998 C72.9422064,112.874886 72.728278,112.998553 72.5571353,113.163442 L73.1133491,113.163442 Z M71.2307794,112.297776 C70.1611374,112.38022 69.1770669,112.503887 68.2785677,112.709998 C68.4069247,112.957331 68.5352817,113.204664 68.7064244,113.451997 C69.2198526,113.32833 69.7760664,113.245886 70.3750658,113.163442 L70.5889942,112.957331 C70.7601369,112.75122 70.9740653,112.545109 71.2307794,112.297776 Z M77.6914165,112.709998 C76.7929173,112.503887 75.8088468,112.38022 74.6964192,112.297776 C74.9531332,112.503887 75.1670616,112.709998 75.4237757,112.957331 C75.509347,113.039775 75.5521327,113.080997 75.6377041,113.163442 C76.2367035,113.245886 76.7929173,113.32833 77.3063454,113.451997 C77.4347025,113.245886 77.5630595,113.039775 77.6486309,112.833664 C77.6914165,112.792442 77.6914165,112.75122 77.6914165,112.709998 Z M79.2317009,113.122219 C79.1033439,113.369553 78.9322012,113.616886 78.8038441,113.864219 C79.873486,114.276441 80.5152712,114.812329 80.5152712,115.38944 C80.5152712,116.70855 77.1779884,117.780327 73.0277778,117.780327 C68.8775671,117.780327 65.5402844,116.70855 65.5402844,115.38944 C65.5402844,114.812329 66.1820695,114.276441 67.2517114,113.864219 C67.0805687,113.616886 66.9522117,113.369553 66.8238547,113.122219 C65.0696419,113.69933 64,114.482552 64,115.38944 C64,117.120772 68.0646393,118.522327 73.0277778,118.522327 C78.0337019,118.522327 82.0555556,117.120772 82.0555556,115.38944 C82.0555556,114.482552 80.9859136,113.69933 79.2317009,113.122219 Z" id="Shape-Copy-2"></path>
        </g>
    </g>
</svg>