<?xml version="1.0" encoding="UTF-8" standalone="no"?>
<svg width="18px" height="20px" viewBox="0 0 18 20" version="1.1" xmlns="http://www.w3.org/2000/svg" xmlns:xlink="http://www.w3.org/1999/xlink">
    <!-- Generator: Sketch 3.7.2 (28276) - http://www.bohemiancoding.com/sketch -->
    <title>icon-weather-scattered-showers-night</title>
    <desc>Created with Sketch.</desc>
    <defs></defs>
    <g id="weather-icons" stroke="none" stroke-width="1" fill="none" fill-rule="evenodd">
        <g id="ScatteredShowers_Night">
            <g id="Shape">
                <path d="M17.7954545,7.58549223 C17.3761364,5.98963731 15.7602273,5.03626943 14.1852273,5.4507772 C14.1852273,5.4507772 14.0727273,5.48186528 13.8681818,5.53367876 C13.3670455,3.6373057 11.6590909,2.23834197 9.62386364,2.23834197 C8.02840909,2.23834197 6.62727273,3.0984456 5.86022727,4.39378238 C5.97272727,4.77720207 6.12613636,5.15025907 6.33068182,5.51295337 C7.15909091,6.96373057 8.59090909,7.89637306 9.97159091,7.89637306 C10.2170455,7.89637306 10.4522727,7.86528497 10.6875,7.80310881 C10.7386364,7.79274611 10.7897727,7.78238342 10.8409091,7.78238342 C11.0659091,7.78238342 11.2704545,7.90673575 11.3829545,8.10362694 C11.5159091,8.35233161 11.4647727,8.66321244 11.2602273,8.86010363 C10.9534091,9.15025907 10.6159091,9.39896373 10.2579545,9.61658031 C9.42954545,10.1036269 8.47840909,10.3626943 7.52727273,10.3626943 C5.57386364,10.3626943 3.75340909,9.29533679 2.78181818,7.58549223 C2.66931818,7.38860104 2.57727273,7.19170984 2.48522727,6.98445596 C2.32159091,7.22279793 2.18863636,7.49222798 2.10681818,7.79274611 C2.025,8.11398964 2.00454545,8.43523316 2.03522727,8.7357513 C1.37045455,8.92227979 0.961363636,9.02590674 0.961363636,9.02590674 C0.3375,9.19170984 -0.0409090909,9.84455959 0.132954545,10.4766839 C0.276136364,11.0362694 0.797727273,11.388601 1.33977273,11.357513 L14.85,11.357513 C14.85,11.357513 15.4125,11.3264249 15.6886364,11.253886 C17.2840909,10.8393782 18.225,9.19170984 17.7954545,7.58549223 L17.7954545,7.58549223 Z" fill="#B9B9B9"></path>
                <path d="M11.5261364,12.6528497 C11.4238636,12.6321244 11.3215909,12.6735751 11.2704545,12.7564767 L11.2704545,12.7564767 L7.71136364,18.3212435 C7.65,18.4145078 7.59886364,18.507772 7.56818182,18.6217617 C7.40454545,19.1813472 7.77272727,19.761658 8.39659091,19.9067358 C9.01022727,20.0518135 9.64431818,19.7305699 9.81818182,19.1709845 L9.81818182,19.1709845 L10.6772727,16.2797927 L10.6772727,16.2694301 L10.6772727,16.2694301 L11.6795455,12.9015544 L11.6795455,12.880829 C11.7102273,12.7979275 11.6386364,12.6839378 11.5261364,12.6528497 L11.5261364,12.6528497 Z" fill="#2B9CD8"></path>
                <path d="M7.60909091,15.8963731 L8.78522727,12.9015544 L8.79545455,12.8911917 C8.83636364,12.7979275 8.775,12.6943005 8.67272727,12.6632124 C8.58068182,12.6321244 8.47840909,12.6632124 8.4375,12.7357513 L8.4375,12.7357513 L6.45340909,15.3056995 C6.4125,15.357513 6.38181818,15.4093264 6.35113636,15.4715026 C6.22840909,15.7823834 6.4125,16.134715 6.76022727,16.2487047 C7.10795455,16.3523316 7.47613636,16.1968912 7.60909091,15.8963731 L7.60909091,15.8963731 L7.60909091,15.8963731 Z" fill="#2B9CD8"></path>
                <path d="M10.8409091,8.41450777 C10.7795455,8.43523316 10.7079545,8.44559585 10.6465909,8.45595855 C10.6261364,8.45595855 10.6056818,8.46632124 10.5852273,8.46632124 C10.5443182,8.47668394 10.4931818,8.47668394 10.4420455,8.48704663 C10.4215909,8.48704663 10.4011364,8.49740933 10.3704545,8.49740933 C10.3193182,8.50777202 10.2784091,8.50777202 10.2272727,8.50777202 L10.1761364,8.50777202 C10.1147727,8.50777202 10.0431818,8.51813472 9.98181818,8.51813472 L9.98181818,8.51813472 L9.97159091,8.51813472 C9.88977273,8.51813472 9.80795455,8.51813472 9.71590909,8.50777202 L9.675,8.50777202 C9.59318182,8.49740933 9.50113636,8.48704663 9.41931818,8.47668394 C9.39886364,8.47668394 9.38863636,8.46632124 9.36818182,8.46632124 C9.28636364,8.45595855 9.19431818,8.43523316 9.1125,8.41450777 C9.10227273,8.41450777 9.09204545,8.41450777 9.08181818,8.40414508 C9,8.38341969 8.91818182,8.3626943 8.83636364,8.34196891 C8.82613636,8.34196891 8.80568182,8.33160622 8.79545455,8.33160622 C8.71363636,8.30051813 8.63181818,8.27979275 8.53977273,8.24870466 C8.51931818,8.23834197 8.50909091,8.23834197 8.48863636,8.22797927 C8.40681818,8.19689119 8.325,8.15544041 8.24318182,8.12435233 C8.23295455,8.11398964 8.22272727,8.11398964 8.2125,8.10362694 C8.13068182,8.06217617 8.05909091,8.03108808 7.97727273,7.97927461 C7.96704545,7.96891192 7.95681818,7.96891192 7.94659091,7.95854922 C7.86477273,7.91709845 7.78295455,7.86528497 7.70113636,7.8134715 C7.68068182,7.80310881 7.67045455,7.79274611 7.65,7.78238342 C7.56818182,7.73056995 7.49659091,7.67875648 7.41477273,7.62694301 C7.40454545,7.61658031 7.39431818,7.60621762 7.37386364,7.59585492 C7.30227273,7.54404145 7.23068182,7.48186528 7.14886364,7.41968912 C7.13863636,7.40932642 7.13863636,7.40932642 7.12840909,7.39896373 C7.05681818,7.33678756 6.975,7.2746114 6.90340909,7.20207254 C6.89318182,7.19170984 6.87272727,7.17098446 6.8625,7.16062176 C6.79090909,7.0984456 6.71931818,7.02590674 6.65795455,6.95336788 C6.64772727,6.94300518 6.6375,6.93264249 6.62727273,6.9119171 C6.55568182,6.83937824 6.49431818,6.76683938 6.42272727,6.68393782 L6.4125,6.67357513 C6.34090909,6.59067358 6.27954545,6.50777202 6.21818182,6.42487047 C6.20795455,6.40414508 6.19772727,6.39378238 6.17727273,6.37305699 C6.11590909,6.29015544 6.05454545,6.20725389 6.00340909,6.11398964 C5.99318182,6.09326425 5.98295455,6.08290155 5.97272727,6.06217617 C5.91136364,5.96891192 5.86022727,5.87564767 5.79886364,5.78238342 C5.67613636,5.57512953 5.57386364,5.35751295 5.48181818,5.15025907 C4.69431818,3.28497409 4.95,1.2642487 6.09545455,0.0725388601 C5.74772727,0.176165803 5.41022727,0.331606218 5.08295455,0.518134715 C3.01704545,1.76165803 2.16818182,4.29015544 2.95568182,6.48704663 C3.04772727,6.75647668 3.17045455,7.01554404 3.31363636,7.2746114 C3.36477273,7.36787565 3.41590909,7.4507772 3.47727273,7.53367876 C3.49772727,7.55440415 3.50795455,7.58549223 3.52840909,7.60621762 C3.56931818,7.66839378 3.61022727,7.73056995 3.66136364,7.79274611 C3.68181818,7.8134715 3.69204545,7.83419689 3.7125,7.86528497 C3.77386364,7.94818653 3.83522727,8.02072539 3.89659091,8.09326425 L3.90681818,8.10362694 C3.96818182,8.1761658 4.02954545,8.23834197 4.10113636,8.31088083 C4.12159091,8.33160622 4.14204545,8.35233161 4.1625,8.37305699 C4.21363636,8.42487047 4.26477273,8.47668394 4.32613636,8.51813472 C4.34659091,8.5388601 4.36704545,8.5492228 4.3875,8.56994819 C4.45909091,8.63212435 4.53068182,8.69430052 4.6125,8.75647668 C4.62272727,8.75647668 4.62272727,8.76683938 4.63295455,8.76683938 C4.70454545,8.81865285 4.77613636,8.87046632 4.84772727,8.92227979 C4.86818182,8.93264249 4.89886364,8.95336788 4.91931818,8.96373057 C4.98068182,9.00518135 5.04204545,9.03626943 5.10340909,9.07772021 C5.12386364,9.0880829 5.14431818,9.0984456 5.16477273,9.11917098 C5.24659091,9.17098446 5.32840909,9.21243523 5.42045455,9.25388601 C5.43068182,9.2642487 5.44090909,9.2642487 5.45113636,9.2642487 C5.52272727,9.29533679 5.60454545,9.33678756 5.67613636,9.36787565 C5.70681818,9.37823834 5.72727273,9.38860104 5.75795455,9.39896373 C5.82954545,9.43005181 5.89090909,9.4507772 5.9625,9.47150259 C5.98295455,9.48186528 6.00340909,9.49222798 6.03409091,9.49222798 C6.12613636,9.52331606 6.21818182,9.54404145 6.3,9.57512953 C6.31022727,9.57512953 6.33068182,9.58549223 6.34090909,9.58549223 C6.42272727,9.60621762 6.49431818,9.62694301 6.57613636,9.6373057 C6.60681818,9.64766839 6.62727273,9.64766839 6.65795455,9.65803109 C6.72954545,9.66839378 6.80113636,9.67875648 6.87272727,9.68911917 C6.89318182,9.68911917 6.92386364,9.69948187 6.94431818,9.69948187 C7.03636364,9.70984456 7.12840909,9.72020725 7.22045455,9.73056995 L7.27159091,9.73056995 C7.34318182,9.73056995 7.425,9.74093264 7.50681818,9.74093264 L7.59886364,9.74093264 C7.67045455,9.74093264 7.74204545,9.74093264 7.80340909,9.73056995 L7.875,9.73056995 C7.96704545,9.72020725 8.05909091,9.72020725 8.15113636,9.69948187 C8.17159091,9.69948187 8.18181818,9.68911917 8.20227273,9.68911917 C8.27386364,9.67875648 8.35568182,9.66839378 8.42727273,9.64766839 C8.45795455,9.6373057 8.48863636,9.6373057 8.51931818,9.62694301 C8.59090909,9.61658031 8.65227273,9.59585492 8.72386364,9.57512953 C8.75454545,9.56476684 8.775,9.56476684 8.80568182,9.55440415 C8.89772727,9.53367876 8.98977273,9.50259067 9.08181818,9.47150259 C9.09204545,9.47150259 9.10227273,9.4611399 9.1125,9.4611399 C9.19431818,9.43005181 9.27613636,9.39896373 9.34772727,9.36787565 C9.37840909,9.35751295 9.39886364,9.34715026 9.42954545,9.33678756 C9.49090909,9.30569948 9.5625,9.2746114 9.62386364,9.24352332 C9.65454545,9.23316062 9.675,9.22279793 9.70568182,9.20207254 C9.79772727,9.16062176 9.87954545,9.10880829 9.97159091,9.05699482 C10.1352273,8.96373057 10.2886364,8.86010363 10.4420455,8.74611399 C10.5647727,8.65284974 10.7079545,8.5388601 10.8409091,8.41450777 L10.8409091,8.41450777 L10.8409091,8.41450777 Z" fill="#D1D1D1"></path>
            </g>
        </g>
    </g>
</svg>