<?xml version="1.0" encoding="UTF-8" standalone="no"?>
<svg width="20px" height="19px" viewBox="0 0 20 19" version="1.1" xmlns="http://www.w3.org/2000/svg" xmlns:xlink="http://www.w3.org/1999/xlink">
    <!-- Generator: Sketch 3.7.2 (28276) - http://www.bohemiancoding.com/sketch -->
    <title>icon-weather-freezing-rain</title>
    <desc>Created with Sketch.</desc>
    <defs></defs>
    <g id="weather-icons" stroke="none" stroke-width="1" fill="none" fill-rule="evenodd">
        <g id="RainSleet_FreezingRain_MixedRainHail" transform="translate(-1.000000, 0.000000)">
            <g transform="translate(1.000000, 0.000000)" id="Shape">
                <path d="M6.21336272,15 C6.18279896,15 6.16242312,15 6.13185937,14.9802928 C6.01979226,14.9408784 5.96885267,14.8127815 6.01979226,14.7142454 L7.58873173,11.1275325 C7.62948341,11.0191428 7.76192635,10.9698748 7.86380553,11.0191428 C7.97587264,11.0585572 8.02681223,11.1866541 7.98606056,11.2851902 L6.40693317,14.8719031 C6.37636942,14.950732 6.29486607,15 6.21336272,15 L6.21336272,15 Z" fill="#B9B9B9"></path>
                <path d="M6.17701421,13 C6.1516573,13 6.13475269,13 6.10939578,12.9822177 C6.01642045,12.9466531 5.97415894,12.8310681 6.01642045,12.7421566 L6.65879547,11.1150757 C6.69260468,11.017273 6.80248462,10.9728172 6.88700765,11.017273 C6.97998298,11.0528376 7.0222445,11.1684226 6.98843528,11.2573341 L6.34606026,12.884415 C6.31225105,12.9555442 6.24463263,13 6.17701421,13 L6.17701421,13 Z" fill="#B9B9B9"></path>
                <path d="M6,16 C6,16.5533981 5.55339806,17 5,17 C4.44660194,17 4,16.5533981 4,16 C4,15.4466019 4.44660194,15 5,15 C5.55339806,15 6,15.4466019 6,16 L6,16 Z" fill="#B9B9B9"></path>
                <path d="M10.84554,12.0050687 C10.7471375,11.9851785 10.6487351,12.0249589 10.5995338,12.1045197 L10.5995338,12.1045197 L7.17512723,17.445038 C7.11608574,17.5345439 7.0668845,17.6240498 7.03736375,17.7334459 C6.87991977,18.2704813 7.23416873,18.8274068 7.8344239,18.9666382 C8.42483883,19.1058696 9.03493425,18.7975715 9.20221848,18.2605362 L9.20221848,18.2605362 L10.0287994,15.4858535 L10.0287994,15.4759084 L10.0287994,15.4759084 L10.9931438,12.2437511 L10.9931438,12.2238609 L10.9931438,12.2238609 C11.0226645,12.134355 10.9537828,12.034904 10.84554,12.0050687 L10.84554,12.0050687 Z" fill="#2B9CD8"></path>
                <path d="M13.989729,12.1980638 C14.0225195,12.1210906 13.9733338,12.0355649 13.8913577,12.0099072 C13.8175792,11.9842494 13.7356031,12.0099072 13.7028127,12.0697752 L13.7028127,12.0697752 L12.1124766,14.1908135 C12.0796862,14.2335764 12.0550934,14.2763392 12.0305005,14.3276547 C11.9321292,14.5842319 12.0796862,14.8750194 12.3584049,14.9690977 C12.6371236,15.063176 12.9322375,14.9348874 13.0388064,14.6868628 L13.0388064,14.6868628 L13.9815314,12.2151689 L13.989729,12.1980638 L13.989729,12.1980638 L13.989729,12.1980638 Z" fill="#2B9CD8"></path>
                <path d="M19.8866246,5.84567243 C19.4118453,4.10292511 17.5935415,3.05727672 15.8257462,3.5153703 C15.8257462,3.5153703 15.6944242,3.54524597 15.4721871,3.60499731 C14.9064926,1.53361764 12.9871719,0 10.7041905,0 C8.22927704,0 6.17863445,1.80249865 5.82507538,4.14275934 C5.74426188,4.12284223 5.69375344,4.11288367 5.69375344,4.11288367 C4.19870367,3.73445854 2.66324714,4.61081148 2.26928132,6.08467778 C2.17836614,6.43322724 2.15816276,6.78177671 2.18846782,7.12036761 C1.44094294,7.31953874 0.976265303,7.43904141 0.976265303,7.43904141 C0.269147167,7.62825397 -0.145022027,8.33531146 0.0469100384,9.03241039 C0.208537041,9.63988231 0.784333238,10.028266 1.40053619,9.99839033 L16.5833727,9.99839033 C16.5833727,9.99839033 17.2096774,9.96851466 17.5329314,9.88884621 C19.3007267,9.40087696 20.3614039,7.59837831 19.8866246,5.84567243 L19.8866246,5.84567243 Z" fill="#B9B9B9"></path>
            </g>
        </g>
    </g>
</svg>