<?xml version="1.0" encoding="UTF-8" standalone="no"?>
<svg width="25px" height="26px" viewBox="0 0 25 26" version="1.1" xmlns="http://www.w3.org/2000/svg" xmlns:xlink="http://www.w3.org/1999/xlink">
    <!-- Generator: Sketch 3.7.2 (28276) - http://www.bohemiancoding.com/sketch -->
    <title>ArmedStay</title>
    <desc>Created with Sketch.</desc>
    <defs></defs>
    <g id="customer-header---visuals---most-recent" stroke="none" stroke-width="1" fill="none" fill-rule="evenodd">
        <g id="03-EIN-CustomerHeader_icons" transform="translate(-169.000000, -71.000000)" fill="#FB543F">
            <path d="M186.256217,85.055304 C186.195775,85.2862472 186.036482,85.4802624 185.819356,85.5873914 C185.602229,85.6945204 185.348487,85.7042942 185.123467,85.6141962 C184.80498,85.3329051 184.720546,84.875983 184.918115,84.5029105 C185.534172,83.0731863 185.083722,81.799432 184.109955,80.6881463 L183.798614,80.6881463 L183.798614,86.9724342 L183.798614,91.8919853 C183.798614,92.38589 183.712498,92.7888123 183.215678,92.7888123 C182.991178,92.7693796 182.785892,92.6566057 182.651684,92.4789817 C182.517475,92.3013577 182.467181,92.0758721 182.513506,91.8594915 L182.513506,86.9204442 L182.513506,85.5232137 L180.844191,85.5232137 L180.811069,86.9204442 L180.811069,91.8399953 C180.811069,92.3339 180.592468,92.9122885 180.095648,92.9122885 C179.598828,92.9122885 179.433222,92.3014063 179.433222,91.8140003 L179.433222,86.9204442 L179.472967,80.6751488 C177.790403,80.9350987 177.830149,83.05369 178.446206,84.4769155 C178.637735,84.8529959 178.554165,85.3078843 178.240853,85.5946999 C178.014918,85.6846609 177.760312,85.6740275 177.542988,85.5655541 C177.325664,85.4570807 177.167002,85.2614395 177.108104,85.029309 C176.181714,82.8808889 176.679959,80.3957065 178.366714,78.7515199 C178.581533,78.5075584 178.864968,78.3312247 179.181499,78.2446176 C180.841896,78.0370873 182.522425,78.0370873 184.182821,78.2446176 C184.498168,78.3379127 184.781968,78.5130495 185.004231,78.7515199 C186.69665,80.4037061 187.192559,82.9006214 186.256217,85.055304 L186.256217,85.055304 Z M181.652351,73.5330264 C182.773772,73.5366159 183.680585,74.4301241 183.679365,75.5303008 C183.678145,76.6304775 182.769354,77.5220485 181.647928,77.523245 C180.526502,77.5244415 179.615736,76.6348119 179.612077,75.5346404 C179.612077,74.4291795 180.525539,73.5330264 181.652351,73.5330264 L181.652351,73.5330264 Z M193.973489,73.7149913 C189.674339,70.0431996 173.438259,70.1471795 169,73.7149913 C169,73.7149913 169,87.2388828 171.444355,90.7092134 C173.497878,93.6401481 181.201901,97 181.201901,97 C181.201901,97 188.799936,94.5759676 191.337031,91.053647 C194.404066,86.7904693 193.980113,73.7149913 193.980113,73.7149913 L193.973489,73.7149913 Z" id="ArmedStay"></path>
        </g>
    </g>
</svg>