<?xml version="1.0" encoding="UTF-8" standalone="no"?>
<svg width="20px" height="18px" viewBox="0 0 20 18" version="1.1" xmlns="http://www.w3.org/2000/svg" xmlns:xlink="http://www.w3.org/1999/xlink">
    <!-- Generator: Sketch 3.7.2 (28276) - http://www.bohemiancoding.com/sketch -->
    <title>icon-weather-flurries</title>
    <desc>Created with Sketch.</desc>
    <defs></defs>
    <g id="weather-icons" stroke="none" stroke-width="1" fill="none" fill-rule="evenodd">
        <g id="Flurries" fill="#B9B9B9">
            <g stroke-width="1" transform="translate(7.000000, 11.000000)" id="Shape">
                <path d="M5.54068495,3.41215482 C5.53039826,3.41215482 5.52011156,3.41215482 5.49953818,3.42237086 L4.36800197,3.7186358 L3.37019277,3.14653798 L4.36800197,2.57444017 L5.50982487,2.88092114 C5.58183172,2.9013532 5.65383857,2.85027304 5.67441196,2.78897685 C5.69498534,2.72768065 5.66412526,2.66638446 5.6126918,2.63573636 C5.6126918,2.63573636 5.6126918,2.63573636 5.60240511,2.63573636 L4.90291,2.2373111 L5.54068495,1.75715757 L5.54068495,1.75715757 C5.59211841,1.71629344 5.60240511,1.65499725 5.58183172,1.60391709 C5.56125833,1.55283693 5.50982487,1.52218883 5.45839141,1.52218883 C5.43781802,1.52218883 5.42753133,1.53240486 5.40695794,1.53240486 L4.66631606,1.83888583 L4.66631606,1.04203531 C4.67660275,0.980739111 4.62516929,0.919442917 4.57373583,0.899010852 C4.50172898,0.878578787 4.42972213,0.919442917 4.40914874,0.990955143 L4.11083465,2.11471871 L3.11302545,2.68681652 L3.11302545,1.54262089 L3.94624757,0.715122268 C3.97710764,0.684474171 3.98739434,0.653826074 3.98739434,0.623177977 C3.98739434,0.582313847 3.96682095,0.55166575 3.94624757,0.531233685 C3.90510079,0.490369555 3.83309394,0.480153523 3.78166048,0.51080162 C3.78166048,0.51080162 3.78166048,0.51080162 3.77137379,0.51080162 L3.07187868,0.909226884 L2.96901175,0.112376356 C2.95872506,0.051080162 2.90729159,-3.55271368e-15 2.83528474,-3.55271368e-15 L2.81471136,-3.55271368e-15 C2.7529912,0.0102160324 2.71184443,0.051080162 2.70155774,0.112376356 C2.70155774,0.112376356 2.70155774,0.112376356 2.70155774,0.122592389 L2.59869081,0.909226884 L1.8991957,0.51080162 C1.8991957,0.51080162 1.8991957,0.51080162 1.88890901,0.51080162 C1.83747554,0.480153523 1.76546869,0.490369555 1.72432192,0.531233685 C1.67288846,0.582313847 1.67288846,0.664042106 1.73460861,0.715122268 L2.56783073,1.54262089 L2.56783073,2.68681652 L1.57002153,2.11471871 L1.26142075,0.980739111 C1.24084736,0.909226884 1.16884051,0.868362755 1.09683366,0.888794819 C1.0351135,0.909226884 1.00425343,0.960307046 1.00425343,1.02160324 L1.00425343,1.03181927 L1.00425343,1.8286698 L0.263611544,1.52218883 C0.201891387,1.49154073 0.119597845,1.53240486 0.0887377666,1.59370106 C0.068164381,1.64478122 0.0784510738,1.71629344 0.129884538,1.74694154 L0.140171231,1.74694154 L0.777946184,2.22709506 L0.0784510738,2.62552033 C0.0784510738,2.62552033 0.0784510738,2.62552033 0.068164381,2.62552033 C0.0167309171,2.65616843 -0.0141291613,2.71746462 0.00644422426,2.77876081 C0.0270176099,2.84005701 0.0784510738,2.87070511 0.140171231,2.87070511 C0.150457923,2.87070511 0.160744616,2.87070511 0.181318002,2.86048907 L1.31285421,2.56422413 L2.31066341,3.13632195 L1.3334276,3.70841976 L0.191604695,3.40193879 C0.119597845,3.38150673 0.0475909955,3.43258689 0.0270176099,3.49388308 C0.00644422426,3.55517928 0.0373043027,3.61647547 0.0887377666,3.64712357 L0.0990244594,3.64712357 L0.79851957,4.04554883 L0.160744616,4.52570236 C0.160744616,4.52570236 0.160744616,4.52570236 0.150457923,4.52570236 C0.0990244594,4.56656649 0.0887377666,4.62786268 0.109311152,4.67894284 C0.129884538,4.730023 0.181318002,4.7606711 0.232751466,4.7606711 C0.253324851,4.7606711 0.263611544,4.75045507 0.28418493,4.75045507 L1.02482681,4.4439741 L1.02482681,5.24082462 L1.02482681,5.24082462 C1.02482681,5.30212082 1.06597358,5.35320098 1.11740705,5.37363305 C1.1894139,5.39406511 1.26142075,5.35320098 1.28199413,5.28168875 L1.58030822,4.15792519 L2.57811742,3.58582737 L2.57811742,4.730023 L1.74489531,5.55752163 C1.71403523,5.58816973 1.70374854,5.61881782 1.70374854,5.64946592 C1.70374854,5.68011402 1.72432192,5.72097815 1.74489531,5.74141021 C1.78604208,5.78227434 1.85804893,5.79249037 1.90948239,5.76184228 L1.90948239,5.76184228 L2.6089775,5.36341701 L2.71184443,6.16026754 C2.72213112,6.22156374 2.77356459,6.2726439 2.84557144,6.2726439 L2.86614482,6.2726439 C2.92786498,6.26242786 2.96901175,6.22156374 2.97929844,6.16026754 C2.97929844,6.16026754 2.97929844,6.16026754 2.97929844,6.15005151 L3.08216537,5.36341701 L3.78166048,5.76184228 L3.79194717,5.76184228 C3.84338064,5.79249037 3.91538749,5.78227434 3.95653426,5.74141021 C4.00796772,5.69033005 4.00796772,5.60860179 3.94624757,5.5473056 L3.11302545,4.71980697 L3.11302545,3.57561134 L4.11083465,4.14770916 L4.41943543,5.28168875 C4.44000882,5.35320098 4.51201567,5.39406511 4.58402252,5.37363305 C4.64574268,5.35320098 4.67660275,5.30212082 4.67660275,5.24082462 L4.67660275,5.24082462 L4.67660275,4.4439741 L5.42753133,4.75045507 C5.44810471,4.7606711 5.45839141,4.7606711 5.47896479,4.7606711 C5.53039826,4.7606711 5.58183172,4.730023 5.60240511,4.67894284 C5.62297849,4.62786268 5.6126918,4.55635045 5.56125833,4.52570236 C5.56125833,4.52570236 5.56125833,4.52570236 5.55097164,4.52570236 L4.91319669,4.04554883 L5.6126918,3.64712357 L5.6126918,3.64712357 C5.66412526,3.61647547 5.69498534,3.55517928 5.67441196,3.49388308 C5.65383857,3.45301895 5.60240511,3.41215482 5.54068495,3.41215482 L5.54068495,3.41215482 Z"></path>
            </g>
            <path d="M19.7889447,5.82797927 C19.3165829,4.10518135 17.5075377,3.07150259 15.7487437,3.52435233 C15.7487437,3.52435233 15.6180905,3.55388601 15.3969849,3.61295337 C14.8341709,1.56528497 12.9246231,0.0492227979 10.6532663,0.0492227979 C8.19095477,0.0492227979 6.15075377,1.83108808 5.79899497,4.14455959 C5.71859296,4.12487047 5.66834171,4.11502591 5.66834171,4.11502591 C4.18090452,3.74093264 2.65326633,4.60725389 2.26130653,6.0642487 C2.17085427,6.40880829 2.15075377,6.75336788 2.18090452,7.0880829 C1.43718593,7.28497409 0.974874372,7.40310881 0.974874372,7.40310881 C0.271356784,7.59015544 -0.140703518,8.28911917 0.0502512563,8.97823834 C0.211055276,9.57875648 0.783919598,9.9626943 1.39698492,9.93316062 L16.5025126,9.93316062 C16.5025126,9.93316062 17.1256281,9.90362694 17.4472362,9.82487047 C19.2060302,9.34248705 20.2613065,7.56062176 19.7889447,5.82797927 L19.7889447,5.82797927 Z" id="Shape"></path>
        </g>
    </g>
</svg>