<?xml version="1.0" encoding="UTF-8" standalone="no"?>
<svg width="23px" height="23px" viewBox="0 0 23 23" version="1.1" xmlns="http://www.w3.org/2000/svg" xmlns:xlink="http://www.w3.org/1999/xlink">
    <!-- Generator: Sketch 3.8.3 (29802) - http://www.bohemiancoding.com/sketch -->
    <title>lifesaver-01 copy</title>
    <desc>Created with Sketch.</desc>
    <defs></defs>
    <g id="Page-1" stroke="none" stroke-width="1" fill="none" fill-rule="evenodd">
        <g id="EIN-360-RaiseYourHand-01-v5-Copy-12" transform="translate(-971.000000, -174.000000)" fill="#FFFFFF">
            <g id="dropdown" transform="translate(950.000000, 46.000000)">
                <g id="lifesaver-01-copy" transform="translate(21.000000, 128.000000)">
                    <g id="Layer_1">
                        <path d="M11.5,22.9361111 C5.20694444,22.9361111 0.0638888889,17.825 0.0638888889,11.5 C0.0638888889,5.175 5.20694444,0.0638888889 11.5,0.0638888889 C17.7930556,0.0638888889 22.9361111,5.175 22.9361111,11.5 C22.9361111,17.825 17.7930556,22.9361111 11.5,22.9361111 L11.5,22.9361111 Z M11.5,1.02222222 C5.71805556,1.02222222 1.02222222,5.71805556 1.02222222,11.5 C1.02222222,17.2819444 5.71805556,21.9777778 11.5,21.9777778 C17.2819444,21.9777778 21.9777778,17.2819444 21.9777778,11.5 C21.9777778,5.71805556 17.2819444,1.02222222 11.5,1.02222222 L11.5,1.02222222 Z" id="Shape"></path>
                        <path d="M11.5,17.8569444 C7.98611111,17.8569444 5.14305556,15.0138889 5.14305556,11.5 C5.14305556,7.98611111 7.98611111,5.14305556 11.5,5.14305556 C15.0138889,5.14305556 17.8569444,7.98611111 17.8569444,11.5 C17.8569444,15.0138889 15.0138889,17.8569444 11.5,17.8569444 L11.5,17.8569444 Z M11.5,6.10138889 C8.52916667,6.10138889 6.10138889,8.52916667 6.10138889,11.5 C6.10138889,14.4708333 8.52916667,16.8986111 11.5,16.8986111 C14.4708333,16.8986111 16.8986111,14.4708333 16.8986111,11.5 C16.8986111,8.52916667 14.4708333,6.10138889 11.5,6.10138889 L11.5,6.10138889 Z" id="Shape"></path>
                        <path d="M6.06944447,8.59417708 C5.94166669,8.59417708 4.20899251,7.243111 4.11315918,7.14727766 L2.61022949,5.45098884 C2.41856283,5.25932217 5.20694444,2.45972222 5.39861111,2.26805556 C5.59027778,2.07638889 5.87777778,2.07638889 6.06944444,2.26805556 L9.51944444,5.71805556 C9.71111111,5.90972222 9.71111111,6.19722222 9.51944444,6.38888889 C9.42361111,6.48472222 9.32777778,6.51666667 9.2,6.51666667 L6.06944447,8.59417708 Z" id="Shape"></path>
                        <path d="M6.0375,9.67916667 C5.90972222,9.67916667 5.78194444,9.64722222 5.68611111,9.55138889 L2.26805556,6.06944444 C2.07638889,5.87777778 2.07638889,5.59027778 2.26805556,5.39861111 C2.45972222,5.20694444 2.74722222,5.20694444 2.93888889,5.39861111 L6.38888889,8.84861111 C6.58055556,9.04027778 6.58055556,9.32777778 6.38888889,9.51944444 C6.29305556,9.61527778 6.16527778,9.67916667 6.0375,9.67916667 L6.0375,9.67916667 Z" id="Shape"></path>
                        <path d="M17.5299682,20.1398318 L15.8096924,18.9461672 C15.6180257,18.7545005 13.9868612,17.3620768 14.1785278,17.1704101 C14.3701945,16.9787434 17.0902778,13.2888889 17.2819444,13.4805556 L20.7319444,16.9305556 C20.9236111,17.1222222 20.9236111,17.4097222 20.7319444,17.6013889 C20.6680556,17.6972222 20.5402778,17.7291667 20.4125,17.7291667 C20.2847222,17.7291667 17.6258016,20.2356651 17.5299682,20.1398318 Z" id="Shape"></path>
                        <path d="M17.25,20.8916667 C17.1222222,20.8916667 16.9944444,20.8597222 16.8986111,20.7638889 L13.4805556,17.3138889 C13.2888889,17.1222222 13.2888889,16.8347222 13.4805556,16.6430556 C13.6722222,16.4513889 13.9597222,16.4513889 14.1513889,16.6430556 L17.6013889,20.0930556 C17.7930556,20.2847222 17.7930556,20.5722222 17.6013889,20.7638889 C17.5055556,20.8277778 17.3777778,20.8916667 17.25,20.8916667 L17.25,20.8916667 Z" id="Shape"></path>
                        <path d="M16.6111111,9.55138889 C16.4194444,9.35972222 14.3935994,5.94435224 14.5852661,5.75268557 L15.8144531,4.21722412 C16.0061198,4.02555745 17.4648496,2.50297445 17.6565163,2.69464111 C17.8481829,2.88630778 20.9236111,5.90972222 20.7319444,6.10138889 L17.3138889,9.51944444 C17.2180556,9.61527778 17.0902778,9.67916667 16.9625,9.67916667 C16.8347222,9.67916667 16.7069444,9.64722222 16.6111111,9.55138889 Z" id="Shape"></path>
                        <path d="M13.8,6.51666667 C13.6722222,6.51666667 13.5444444,6.48472222 13.4486111,6.38888889 C13.2569444,6.19722222 13.2569444,5.90972222 13.4486111,5.71805556 L16.9305556,2.26805556 C17.1222222,2.07638889 17.4097222,2.07638889 17.6013889,2.26805556 C17.7930556,2.45972222 17.7930556,2.74722222 17.6013889,2.93888889 L14.1513889,6.38888889 C14.0555556,6.48472222 13.9277778,6.51666667 13.8,6.51666667 L13.8,6.51666667 Z" id="Shape"></path>
                        <path d="M5.75,20.8916667 C5.62222222,20.8916667 5.49444444,20.8597222 5.39861111,20.7638889 C5.20694444,20.5722222 5.20694444,20.2847222 5.39861111,20.0930556 L8.84861111,16.6111111 C9.04027778,16.4194444 9.32777778,16.4194444 9.51944444,16.6111111 C9.71111111,16.8027778 9.71111111,17.0902778 9.51944444,17.2819444 L6.06944444,20.7319444 C5.97361111,20.8277778 5.87777778,20.8916667 5.75,20.8916667 L5.75,20.8916667 Z" id="Shape"></path>
                        <path d="M2.23611111,17.6013889 C2.04444444,17.4097222 2.04444444,17.1222222 2.23611111,16.9305556 L5.68611111,13.4805556 C5.87777778,13.2888889 8.81016453,16.9376668 9.00183119,17.1293335 C9.19349786,17.3210002 8.25709649,17.9756309 8.06542983,18.1672976 L5.50091543,20.3843386 C5.40508209,20.4801719 2.71527778,17.7291667 2.5875,17.7291667 C2.45972222,17.7291667 2.33194444,17.6972222 2.23611111,17.6013889 Z" id="Shape"></path>
                    </g>
                </g>
            </g>
        </g>
    </g>
</svg>