<?xml version="1.0" encoding="UTF-8" standalone="no"?>
<svg width="21px" height="16px" viewBox="0 0 21 16" version="1.1" xmlns="http://www.w3.org/2000/svg" xmlns:xlink="http://www.w3.org/1999/xlink">
    <!-- Generator: Sketch 3.7.2 (28276) - http://www.bohemiancoding.com/sketch -->
    <title>icon-weather-mostly-cloudy-night</title>
    <desc>Created with Sketch.</desc>
    <defs></defs>
    <g id="weather-icons" stroke="none" stroke-width="1" fill="none" fill-rule="evenodd">
        <g id="MostlyCloudyNight">
            <g id="Shape">
                <path d="M13.05933,14.5919803 C13.5825239,14.285587 14.064683,13.9383413 14.4852898,13.54003 C12.7618276,13.9791938 10.84345,13.5502432 9.18153993,12.4472273 L2.87243707,12.4472273 C5.18064544,15.6132913 9.57137068,16.5937498 13.05933,14.5919803 L13.05933,14.5919803 Z" fill="#D1D1D1"></path>
                <path d="M1.1691294,8.29304499 C1.17938811,8.1909139 1.18964681,8.09899591 1.19990552,7.99686481 C1.22042292,7.89473372 1.24094033,7.80281573 1.26145774,7.70068464 C1.28197515,7.62919287 1.30249255,7.5577011 1.33326867,7.46578312 L1.33326867,7.45557001 C1.33326867,7.4453569 1.34352737,7.43514379 1.34352737,7.42493068 C1.37430348,7.35343891 1.39482089,7.28194714 1.425597,7.21045538 C1.425597,7.20024227 1.4358557,7.19002916 1.44611441,7.17981605 L1.44611441,7.16960294 C1.47689052,7.09811117 1.51792533,7.0266194 1.54870145,6.96534075 C1.54870145,6.95512764 1.55896015,6.95512764 1.55896015,6.94491453 C1.58973626,6.88363587 1.63077108,6.82235721 1.67180589,6.76107855 L1.67180589,6.75086544 C1.6820646,6.74065233 1.6820646,6.73043922 1.6923233,6.72022612 C1.73335811,6.65894746 1.77439293,6.5976688 1.82568645,6.54660325 C1.83594515,6.53639014 1.84620386,6.52617703 1.85646256,6.51596392 C1.90775608,6.45468527 1.9590496,6.40361972 2.00008441,6.35255417 C2.01034312,6.34234106 2.01034312,6.34234106 2.02060182,6.33212795 C2.07189534,6.2810624 2.11293016,6.24020996 2.17448238,6.18914442 C2.18474108,6.17893131 2.18474108,6.17893131 2.19499979,6.1687182 C2.24629331,6.11765265 2.30784553,6.07680021 2.35913905,6.03594777 C2.36939775,6.02573466 2.37965646,6.01552155 2.40017386,6.00530844 C2.46172609,5.9542429 2.52327831,5.92360357 2.57457183,5.88275113 C2.58483053,5.87253802 2.59508924,5.87253802 2.60534794,5.86232491 C2.66690016,5.82147247 2.72845239,5.79083314 2.79000461,5.76019381 C2.80026331,5.76019381 2.81052202,5.7499807 2.82078072,5.7499807 C2.88233294,5.71934137 2.94388517,5.68870205 3.01569609,5.65806272 C3.0259548,5.64784961 3.04647221,5.64784961 3.05673091,5.6376365 C3.12854184,5.60699717 3.19009406,5.58657095 3.26190499,5.55593162 C3.27216369,5.55593162 3.28242239,5.54571851 3.2926811,5.54571851 C3.36449202,5.52529229 3.42604425,5.50486607 3.48759647,5.48443985 C3.49785517,5.48443985 3.50811388,5.48443985 3.51837258,5.47422674 C3.59018351,5.45380053 3.66199444,5.44358742 3.74406407,5.43337431 L3.75432277,5.43337431 C3.76458147,5.43337431 3.77484018,5.43337431 3.79535759,5.4231612 C3.86716851,5.41294809 3.93897944,5.40273498 4.01079037,5.39252187 L4.04156648,5.39252187 L4.05182518,5.39252187 C4.12363611,5.38230876 4.19544704,5.38230876 4.26725796,5.38230876 L4.28777537,5.38230876 C4.34932759,5.38230876 4.40062111,5.38230876 4.46217334,5.39252187 L4.50320815,5.39252187 L4.51346685,5.39252187 L4.55450167,5.39252187 C4.61605389,5.18825968 4.68786482,4.99421059 4.76993445,4.80016151 C4.71864093,2.94137556 5.31364575,1.20514693 6.48313799,-3.55271368e-15 C5.92916798,0.173622863 5.37519798,0.398311274 4.85200408,0.704704562 C2.06163664,2.30816277 0.645935508,5.36188254 1.01524885,8.35432365 C1.05628366,8.34411054 1.10757718,8.33389743 1.1588707,8.31347121 C1.1691294,8.31347121 1.1691294,8.3032581 1.1691294,8.29304499 L1.1691294,8.29304499 Z" fill="#D1D1D1"></path>
                <path d="M17.7489868,8.16282785 C17.7284694,8.09133608 17.707952,8.01984431 17.6771759,7.93813943 C17.6771759,7.92792632 17.6669172,7.90750011 17.6669172,7.897287 C17.6463998,7.82579523 17.6156237,7.76451657 17.5848476,7.6930248 C17.5745889,7.68281169 17.5745889,7.67259859 17.5643301,7.65217237 C17.533554,7.5806806 17.5027779,7.51940194 17.4617431,7.45812328 C17.4207083,7.38663152 17.3796735,7.32535286 17.3386387,7.2640742 C17.32838,7.25386109 17.32838,7.24364798 17.3181213,7.23343487 C17.2770864,7.17215621 17.2360516,7.12109067 17.1950168,7.05981201 C17.1847581,7.0495989 17.1744994,7.03938579 17.1642407,7.02917268 C17.1232059,6.97810713 17.0719124,6.91682847 17.0206188,6.86576293 C16.9590666,6.80448427 16.9180318,6.76363183 16.8667383,6.71256628 C16.7949274,6.64107452 16.7436338,6.60022208 16.6820816,6.55936964 C16.600012,6.49809098 16.5384598,6.45723854 16.4769075,6.4163861 C16.3948379,6.36532056 16.3435444,6.33468123 16.2819922,6.3040419 C16.1999225,6.26318946 16.1383703,6.23255013 16.0768181,6.2019108 C16.0665594,6.19169769 16.0563007,6.19169769 16.0357833,6.18148458 C15.9742311,6.15084526 15.9024201,6.13041904 15.8408679,6.10999282 C15.7485396,6.07935349 15.6767286,6.05892727 15.6151764,6.03850105 C15.5228481,6.00786172 15.4612959,5.99764861 15.3894849,5.9874355 C15.2766392,5.96700928 15.2048283,5.95679617 15.143276,5.94658306 C15.040689,5.93636995 14.9688781,5.93636995 14.8970672,5.93636995 C14.8252562,5.93636995 14.763704,5.93636995 14.7124105,5.94658306 C14.6200821,5.94658306 14.5790473,5.95679617 14.5380125,5.95679617 C14.5174951,5.95679617 14.4969777,5.95679617 14.4764603,5.96700928 C14.4354255,5.97722239 14.3943907,5.97722239 14.3533558,5.9874355 C14.3328384,5.9874355 14.3225797,5.99764861 14.3020623,5.99764861 C14.2405101,6.00786172 14.1892166,6.01807483 14.1276644,6.03850105 C14.1276644,6.03850105 14.0148186,6.06914038 13.8096445,6.12020593 C13.3069681,4.25120687 11.5937645,2.87243707 9.55228245,2.87243707 C9.28555615,2.87243707 9.01882985,2.89286329 8.77262096,2.94392884 C8.62899911,2.97456817 8.48537725,3.0052075 8.3417554,3.04605994 C8.15709873,3.09712549 7.98270077,3.15840414 7.8185615,3.22989591 C6.44389519,3.82225627 5.42828351,5.08868186 5.20259203,6.61043519 C5.18207462,6.61043519 5.17181591,6.60022208 5.15129851,6.60022208 C5.10000499,6.59000897 5.08974628,6.59000897 5.08974628,6.57979586 C5.01793536,6.56958275 4.97690054,6.55936964 4.92560702,6.54915653 C4.85379609,6.52873031 4.81276128,6.52873031 4.78198517,6.5185172 C4.76146776,6.5185172 4.75120906,6.5185172 4.73069165,6.50830409 C4.69991554,6.50830409 4.65888072,6.49809098 4.62810461,6.49809098 L4.44344794,6.49809098 C4.37163701,6.49809098 4.31008479,6.49809098 4.24853257,6.50830409 C4.15620423,6.5185172 4.09465201,6.5185172 4.04335849,6.52873031 C3.95103016,6.54915653 3.89973664,6.55936964 3.83818442,6.57979586 C3.76637349,6.59000897 3.70482127,6.61043519 3.65352775,6.63086141 C3.57145812,6.66150073 3.50990589,6.68192695 3.45861237,6.70235317 C3.37654274,6.7329925 3.32524922,6.76363183 3.2739557,6.78405805 C3.20214478,6.82491049 3.16110996,6.84533671 3.10981644,6.87597604 C3.03800552,6.91682847 2.9969707,6.9474678 2.94567718,6.98832024 C2.86360755,7.03938579 2.82257274,7.08023823 2.78153792,7.12109067 C2.7199857,7.18236932 2.67895088,7.22322176 2.63791607,7.2640742 C2.58662255,7.31513975 2.54558773,7.3662053 2.50455292,7.40705774 C2.49429421,7.41727085 2.48403551,7.42748395 2.48403551,7.43769706 C2.44300069,7.4785495 2.41222458,7.52961505 2.38144847,7.5806806 C2.37118977,7.59089371 2.37118977,7.60110682 2.36093106,7.61131993 C2.33015495,7.66238548 2.29937884,7.71345102 2.26860273,7.76451657 C2.22756791,7.82579523 2.1967918,7.88707389 2.17627439,7.93813943 C2.17627439,7.94835254 2.16601569,7.95856565 2.16601569,7.96877876 C2.14549828,8.01984431 2.11472217,8.08112297 2.09420476,8.14240163 C2.09420476,8.15261474 2.08394606,8.16282785 2.08394606,8.17304096 C2.06342865,8.23431961 2.04291124,8.29559827 2.02239384,8.35687693 C2.00187643,8.4385818 1.98135902,8.51007357 1.97110032,8.59177845 C1.96084161,8.67348333 1.95058291,8.74497509 1.94032421,8.82667997 C1.9300655,8.97987661 1.9300655,9.13307326 1.95058291,9.2862699 C1.68385661,9.35776167 1.45816512,9.41904033 1.28376716,9.45989276 C1.01704086,9.53138453 0.873419006,9.57223697 0.873419006,9.57223697 C0.247638072,9.73564672 -0.13193397,10.3790726 0.0424639955,11.0020723 C0.0527226993,11.0327116 0.0629814032,11.063351 0.073240107,11.1042034 C0.073240107,11.1144165 0.0834988109,11.1246296 0.0834988109,11.1348427 C0.0937575147,11.155269 0.104016219,11.1756952 0.114274922,11.1961214 C0.124533626,11.2063345 0.124533626,11.2165476 0.13479233,11.2369738 C0.145051034,11.2574001 0.155309738,11.2676132 0.165568442,11.2880394 C0.175827145,11.2982525 0.175827145,11.3084656 0.186085849,11.3288918 C0.196344553,11.349318 0.206603257,11.3595311 0.216861961,11.3799574 C0.227120665,11.3901705 0.237379368,11.4003836 0.247638072,11.4105967 C0.257896776,11.4208098 0.26815548,11.441236 0.278414184,11.4514491 C0.288672888,11.4616622 0.298931591,11.4718754 0.309190295,11.4820885 C0.319448999,11.4923016 0.329707703,11.5127278 0.350225111,11.5229409 C0.360483814,11.533154 0.370742518,11.5433671 0.381001222,11.5535802 C0.391259926,11.5637933 0.40151863,11.5740065 0.422036037,11.5842196 C0.432294741,11.5944327 0.442553445,11.6046458 0.452812149,11.6148589 C0.463070853,11.625072 0.48358826,11.6352851 0.493846964,11.6454982 C0.504105668,11.6557113 0.514364372,11.6659244 0.53488178,11.6761375 C0.545140484,11.6863507 0.565657891,11.6965638 0.575916595,11.7067769 C0.586175299,11.71699 0.606692707,11.71699 0.61695141,11.7272031 C0.627210114,11.7374162 0.647727522,11.7476293 0.657986226,11.7476293 C0.66824493,11.7578424 0.688762337,11.7578424 0.699021041,11.7680555 C0.719538449,11.7782686 0.729797153,11.7782686 0.75031456,11.7884818 C0.760573264,11.7986949 0.781090672,11.7986949 0.791349376,11.808908 C0.811866783,11.8191211 0.822125487,11.8191211 0.842642895,11.8293342 C0.904195118,11.8395473 0.914453822,11.8497604 0.934971229,11.8497604 C0.996523452,11.8599735 1.00678216,11.8701866 1.02729956,11.8701866 C1.08885179,11.8803997 1.09911049,11.8803997 1.1196279,11.8803997 L1.25299105,11.8803997 L2.22756791,11.8803997 L8.13658132,11.8803997 L14.8047388,11.8803997 C14.8047388,11.8803997 14.9791368,11.8701866 15.1843109,11.8497604 C15.2561218,11.8395473 15.3279327,11.8395473 15.3894849,11.8293342 C15.4305198,11.8191211 15.4818133,11.8191211 15.5228481,11.808908 C15.5638829,11.7986949 15.6049177,11.7884818 15.6356938,11.7782686 C16.6820816,11.5025147 17.4412257,10.7058921 17.7284694,9.74585983 C17.7592455,9.65394185 17.7797629,9.56202386 17.8002803,9.47010587 C17.810539,9.41904033 17.8207977,9.37818789 17.8207977,9.32712234 C17.8413152,9.18413881 17.8515739,9.04115527 17.8515739,8.88795863 C17.8515739,8.80625375 17.8413152,8.70412265 17.8310564,8.61220467 C17.810539,8.45900802 17.7900216,8.31602449 17.7489868,8.16282785 Z" fill="#B9B9B9"></path>
                <path d="M19.9805355,5.86487819 C19.7343266,4.96612454 18.821302,4.43504284 17.918536,4.66994436 C17.918536,4.66994436 17.8569838,4.69037058 17.7338794,4.72100991 C17.4466357,3.65884651 16.4720588,2.87243707 15.3128253,2.87243707 C14.5434225,2.87243707 13.866348,3.2196828 13.4047063,3.76097761 C13.7329849,4.13886266 13.9997112,4.56781327 14.2151439,5.0274032 C14.3792832,5.00697698 14.5536812,4.99676387 14.7280791,4.99676387 C16.4618001,4.99676387 17.990347,6.16105836 18.4417299,7.83600834 C18.4519886,7.88707389 18.4622473,7.93813943 18.472506,7.98920498 C18.5750931,7.97899187 18.6981975,7.96877876 18.7802672,7.94835254 C19.6932918,7.6930248 20.2267444,6.76363183 19.9805355,5.86487819 L19.9805355,5.86487819 Z" fill="#B9B9B9"></path>
            </g>
        </g>
    </g>
</svg>