<?xml version="1.0" encoding="UTF-8" standalone="no"?>
<svg width="38px" height="25px" viewBox="0 0 38 25" version="1.1" xmlns="http://www.w3.org/2000/svg" xmlns:xlink="http://www.w3.org/1999/xlink">
    <!-- Generator: Sketch 39.1 (31720) - http://www.bohemiancoding.com/sketch -->
    <title>Icon set one</title>
    <desc>Created with Sketch.</desc>
    <defs></defs>
    <g id="Page-1" stroke="none" stroke-width="1" fill="none" fill-rule="evenodd">
        <g id="Icon-set-one" transform="translate(-84.000000, -812.000000)" stroke="#191919">
            <g id="icon-LOB-hsi-inactive" transform="translate(96.000000, 820.000000)">
                <g id="Internet-Copy-20">
                    <g id="customer-header---visuals---most-recent">
                        <g id="02-EIN-CustomerHeader_SpacingSpecs">
                            <g id="Internet-Copy-20">
                                <path d="M3,0.769995823 C3,0.344738872 3.34599979,-3.07729842e-10 3.76835477,-3.07729842e-10 L21.2316452,-3.07729842e-10 C21.6559959,-3.07729842e-10 22,0.340999434 22,0.769995823 L22,12.4860042 C22,12.9112611 21.6540002,13.256 21.2316452,13.256 L3.76835477,13.256 C3.34400415,13.256 3,12.9150006 3,12.4860042 L3,0.769995823 Z" id="Rectangle-76"></path>
                                <rect id="Rectangle-2064" x="0" y="12.256" width="25" height="4"></rect>
                            </g>
                        </g>
                    </g>
                </g>
            </g>
            <g id="icon-LOB-tv" transform="translate(85.000000, 813.000000)">
                <g id="TV-icon-Copy-21">
                    <g id="customer-header---visuals---most-recent">
                        <g id="02-EIN-CustomerHeader_SpacingSpecs">
                            <path d="M0.95652,0 C0.42757,0 0,0.425877 0,0.950617 L0,12.358025 C0,12.883716 0.42757,13.308642 0.95652,13.308642 L10.52174,13.308642 L10.52174,16.160494 L6.69565,16.160494 L6.69565,17.111111 L13.30435,17.111111 L13.30435,16.160494 L11.47826,16.160494 L11.47826,15 L11.47826,13.308642 L14,13.308642 L14,9 C14,7 15,7 16,7 L22,7 L22,0.950617 C22,0.426827 21.57243,0 21.04348,0 L0.95652,0 Z" id="TV-icon-Copy-21"></path>
                        </g>
                    </g>
                </g>
            </g>
        </g>
    </g>
</svg>