<?xml version="1.0" encoding="UTF-8" standalone="no"?>
<svg width="26px" height="19px" viewBox="0 0 26 19" version="1.1" xmlns="http://www.w3.org/2000/svg" xmlns:xlink="http://www.w3.org/1999/xlink">
    <!-- Generator: Sketch 3.7.2 (28276) - http://www.bohemiancoding.com/sketch -->
    <title>Broadband-Online</title>
    <desc>Created with Sketch.</desc>
    <defs></defs>
    <g id="customer-header---visuals---most-recent" stroke="none" stroke-width="1" fill="none" fill-rule="evenodd">
        <g id="03-EIN-CustomerHeader_icons" transform="translate(-114.000000, -122.000000)" fill="#5BC942">
            <g id="Broadband-Online" transform="translate(114.000000, 122.000000)">
                <path d="M13,1.98063783e-13 C8.03767769,0.000141092244 3.3101107,2.11299988 0,5.81 L1.55,7.35 C4.44360776,4.05248448 8.6179082,2.1618941 13.005,2.1618941 C17.3920918,2.1618941 21.5663922,4.05248448 24.46,7.35 L26,5.81 C22.6921925,2.10984504 17.9631365,-0.00367924008 13,2.54907202e-13 L13,1.98063783e-13 L13,1.98063783e-13 Z" id="Shape"></path>
                <path d="M13,5.33 C9.44669358,5.33395971 6.07350182,6.89447204 3.77,9.6 L5.3,11.13 C7.19974993,8.83369396 10.0247196,7.50439997 13.005,7.50439997 C15.9852804,7.50439997 18.8102501,8.83369396 20.71,11.13 L22.23,9.6 C19.9281736,6.89226626 16.5539028,5.33125477 13,5.33 L13,5.33 L13,5.33 Z" id="Shape"></path>
                <path d="M13,10.73 C10.868982,10.7244336 8.86163131,11.7299642 7.59,13.44 L9.14,15 C9.98230034,13.6869544 11.4350133,12.8929284 12.995,12.8929284 C14.5549867,12.8929284 16.0076997,13.6869544 16.85,15 L18.39,13.44 C17.1225664,11.735624 15.1239786,10.7307681 13,10.73 L13,10.73 L13,10.73 Z" id="Shape"></path>
                <path d="M13,15.86 C12.2047005,15.8594682 11.5078622,16.3923446 11.3,17.16 L13,18.86 L14.69,17.16 C14.4831168,16.3959213 13.7915814,15.8639711 13,15.86 L13,15.86 L13,15.86 Z" id="Shape"></path>
            </g>
        </g>
    </g>
</svg>