<?xml version="1.0" encoding="UTF-8" standalone="no"?>
<svg width="16px" height="16px" viewBox="0 0 16 16" version="1.1" xmlns="http://www.w3.org/2000/svg" xmlns:xlink="http://www.w3.org/1999/xlink">
    <!-- Generator: Sketch 3.7.2 (28276) - http://www.bohemiancoding.com/sketch -->
    <title>icon-weather-not-available</title>
    <desc>Created with Sketch.</desc>
    <defs></defs>
    <g id="weather-icons" stroke="none" stroke-width="1" fill="none" fill-rule="evenodd">
        <path d="M8,0 C3.57979798,0 0,3.57979798 0,8 C0,12.420202 3.57979798,16 8,16 C12.420202,16 16,12.420202 16,8 C16,3.57979798 12.420202,0 8,0 L8,0 Z M6.78654478,9.26315789 L3.31019792,9.26315789 C2.87565457,9.26315789 2.52631579,8.88787185 2.52631579,8.42105263 C2.52631579,7.95423341 2.87565457,7.57894737 3.31019792,7.57894737 L6.79506523,7.57894737 C7.22960859,7.57894737 7.57894737,7.95423341 7.57894737,8.42105263 C7.57894737,8.88787185 7.22108813,9.26315789 6.78654478,9.26315789 L6.78654478,9.26315789 Z M12.6898021,9.26315789 L9.20493477,9.26315789 C8.77039141,9.26315789 8.42105263,8.88787185 8.42105263,8.42105263 C8.42105263,7.95423341 8.77039141,7.57894737 9.20493477,7.57894737 L12.6898021,7.57894737 C13.1243454,7.57894737 13.4736842,7.95423341 13.4736842,8.42105263 C13.4736842,8.88787185 13.1243454,9.26315789 12.6898021,9.26315789 L12.6898021,9.26315789 Z" id="icon-weather-not-available" fill="#B9B9B9"></path>
    </g>
</svg>