<?xml version="1.0" encoding="UTF-8" standalone="no"?>
<svg width="16px" height="17px" viewBox="0 0 16 17" version="1.1" xmlns="http://www.w3.org/2000/svg" xmlns:xlink="http://www.w3.org/1999/xlink">
    <!-- Generator: Sketch 3.7.1 (28215) - http://www.bohemiancoding.com/sketch -->
    <title>Imported Layers Copy 31</title>
    <desc>Created with Sketch.</desc>
    <defs></defs>
    <g id="Page-1" stroke="none" stroke-width="1" fill="none" fill-rule="evenodd">
        <g id="Notes_Panel_Specs" transform="translate(-3700.000000, -283.000000)" fill="#8C8C8C">
            <path d="M3715.14533,286.111523 L3712.71467,283.48677 C3712.12267,282.8482 3711.164,282.836694 3710.58667,283.459444 C3710.58667,283.459444 3710.58667,283.460882 3710.58533,283.46232 L3710.584,283.460882 L3701.71467,293.029365 L3701.53733,293.220648 L3700,299.832149 L3706.12533,298.175318 L3706.696,297.546816 L3715.16933,288.405485 C3715.74933,287.779859 3715.73733,286.748655 3715.14533,286.111523 L3715.14533,286.111523 Z M3702.16533,293.885106 L3705.51333,297.497916 L3702.36933,298.346467 L3701.388,297.230407 L3702.16533,293.885106 L3702.16533,293.885106 Z M3706.128,295.262921 L3704.22933,293.214895 L3710.584,286.360335 L3712.484,288.406923 L3706.128,295.262921 L3706.128,295.262921 Z" id="Imported-Layers-Copy-31"></path>
        </g>
    </g>
</svg>