<?xml version="1.0" encoding="UTF-8" standalone="no"?>
<svg width="16px" height="16px" viewBox="0 0 16 16" version="1.1" xmlns="http://www.w3.org/2000/svg" xmlns:xlink="http://www.w3.org/1999/xlink" xmlns:sketch="http://www.bohemiancoding.com/sketch/ns">
    <!-- Generator: Sketch 3.5.1 (25234) - http://www.bohemiancoding.com/sketch -->
    <title>Shape Copy 3</title>
    <desc>Created with Sketch.</desc>
    <defs></defs>
    <g id="customer-header---visuals---most-recent" stroke="none" stroke-width="1" fill="none" fill-rule="evenodd" sketch:type="MSPage">
        <g id="02-EIN-CustomerHeader_SpacingSpecs" sketch:type="MSArtboardGroup" transform="translate(-1296.000000, -92.000000)" fill="#FFF">
            <path d="M1310.01435,102.785248 C1309.54391,104.009927 1308.76466,105.08164 1307.7651,105.883982 C1306.53368,106.871998 1305.04444,107.394386 1303.49556,107.394386 C1303.1954,107.394386 1302.89332,107.374184 1302.59124,107.33474 C1300.60366,107.074027 1298.82389,106.002313 1297.57997,104.311045 C1295.09405,100.934282 1295.59624,96.1163807 1298.70171,93.5727445 C1300.17652,92.3548007 1302.03133,91.8179819 1303.92174,92.0546439 C1305.93722,92.3115089 1307.73623,93.3995772 1308.98881,95.1235545 C1309.38132,95.6642215 1309.70265,96.2462562 1309.95085,96.8629245 L1312,95.1928214 L1311.38814,100.605264 L1306.31338,99.8250485 L1308.52126,98.0231458 C1308.31346,97.3564515 1308.00272,96.7378592 1307.59674,96.1798754 C1306.63855,94.8628414 1305.2686,94.030676 1303.73895,93.8344197 C1302.30936,93.6497078 1300.91152,94.054727 1299.79362,94.97059 C1297.41065,96.9273812 1297.03449,100.646631 1298.95184,103.260497 C1299.90811,104.559252 1301.26843,105.381797 1302.78269,105.579015 C1304.19208,105.760841 1305.57934,105.370252 1306.6905,104.477478 C1307.43223,103.881975 1307.92287,103.300902 1308.27979,102.403318" id="Shape-Copy-3" sketch:type="MSShapeGroup"></path>
        </g>
    </g>
</svg>