<?xml version="1.0" encoding="UTF-8" standalone="no"?>
<svg width="20px" height="20px" viewBox="0 0 20 20" version="1.1" xmlns="http://www.w3.org/2000/svg" xmlns:xlink="http://www.w3.org/1999/xlink">
    <!-- Generator: Sketch 3.7.2 (28276) - http://www.bohemiancoding.com/sketch -->
    <title>icon-weather-sunny</title>
    <desc>Created with Sketch.</desc>
    <defs></defs>
    <g id="weather-icons" stroke="none" stroke-width="1" fill="none" fill-rule="evenodd">
        <g id="Sunny_Hot" fill="#FECE00">
            <g>
                <circle id="Oval" cx="10" cy="10" r="4.61"></circle>
                <path d="M4.92,1.86 L6.48,5.67 C6.94,5.3 7.46,5 8.02,4.78 L5.53,1.51 C5.53,1.51 5.53,1.5 5.52,1.5 C5.4,1.36 5.18,1.33 5.03,1.44 C4.91,1.53 4.86,1.69 4.91,1.83 C4.91,1.84 4.91,1.85 4.92,1.86 L4.92,1.86 Z" id="Shape"></path>
                <path d="M10,4.41 C10.31,4.41 10.61,4.44 10.9,4.48 L10.37,0.41 L10.37,0.4 C10.34,0.21 10.17,0.08 9.97,0.1 C9.82,0.12 9.7,0.23 9.67,0.38 C9.67,0.39 9.66,0.4 9.66,0.4 L9.11,4.47 C9.41,4.43 9.7,4.41 10,4.41 L10,4.41 Z" id="Shape"></path>
                <path d="M4.41,10 C4.41,9.69 4.44,9.39 4.48,9.1 L0.41,9.63 L0.4,9.63 C0.21,9.66 0.08,9.83 0.1,10.03 C0.12,10.18 0.23,10.3 0.38,10.33 C0.39,10.33 0.4,10.34 0.4,10.34 L4.48,10.89 C4.44,10.59 4.41,10.3 4.41,10 L4.41,10 Z" id="Shape"></path>
                <path d="M15.23,8.02 L18.5,5.53 L18.51,5.52 C18.66,5.4 18.68,5.18 18.57,5.03 C18.48,4.91 18.32,4.86 18.18,4.91 C18.17,4.91 18.16,4.91 18.16,4.92 L14.36,6.48 C14.71,6.94 15.01,7.46 15.23,8.02 L15.23,8.02 Z" id="Shape"></path>
                <path d="M13.54,5.67 L15.12,1.88 L15.12,1.87 C15.15,1.79 15.15,1.69 15.12,1.61 C15.08,1.52 15.02,1.45 14.93,1.42 C14.79,1.36 14.63,1.4 14.53,1.51 C14.52,1.52 14.52,1.52 14.51,1.53 L12,4.78 C12.56,5 13.08,5.3 13.54,5.67 L13.54,5.67 Z" id="Shape"></path>
                <path d="M1.53,5.49 L4.78,8 C5,7.44 5.3,6.92 5.67,6.46 L1.88,4.88 L1.87,4.88 C1.7,4.81 1.49,4.9 1.42,5.07 C1.36,5.21 1.4,5.37 1.51,5.47 C1.51,5.48 1.52,5.48 1.53,5.49 L1.53,5.49 Z" id="Shape"></path>
                <path d="M15.22,12 C15,12.56 14.7,13.08 14.33,13.54 L18.12,15.12 C18.3,15.19 18.51,15.1 18.58,14.93 C18.64,14.79 18.6,14.63 18.49,14.53 C18.49,14.52 18.48,14.52 18.47,14.51 L15.22,12 Z" id="Shape"></path>
                <path d="M19.9,9.98 C19.88,9.83 19.77,9.71 19.62,9.68 C19.61,9.68 19.6,9.67 19.6,9.67 L15.53,9.12 C15.58,9.41 15.6,9.7 15.6,10 C15.6,10.31 15.57,10.61 15.53,10.9 L19.6,10.37 L19.61,10.37 C19.79,10.34 19.92,10.17 19.9,9.98 L19.9,9.98 Z" id="Shape"></path>
                <path d="M15.08,18.14 L13.52,14.33 C13.06,14.7 12.54,15 11.98,15.22 L14.47,18.49 L14.48,18.5 C14.6,18.64 14.82,18.67 14.97,18.56 C15.09,18.47 15.14,18.31 15.09,18.17 C15.09,18.16 15.09,18.15 15.08,18.14 L15.08,18.14 Z" id="Shape"></path>
                <path d="M4.78,11.98 L1.51,14.47 C1.51,14.47 1.5,14.47 1.5,14.48 C1.43,14.54 1.39,14.62 1.37,14.71 C1.36,14.8 1.38,14.9 1.44,14.97 C1.53,15.09 1.69,15.14 1.83,15.09 C1.84,15.09 1.85,15.09 1.85,15.08 L5.66,13.52 C5.29,13.06 4.99,12.54 4.78,11.98 L4.78,11.98 Z" id="Shape"></path>
                <path d="M10,15.59 C9.69,15.59 9.39,15.56 9.1,15.52 L9.63,19.6 L9.63,19.61 C9.66,19.78 9.81,19.91 9.98,19.91 L10.03,19.91 C10.18,19.89 10.3,19.78 10.33,19.63 C10.33,19.62 10.34,19.61 10.34,19.61 L10.89,15.53 C10.59,15.56 10.3,15.59 10,15.59 L10,15.59 Z" id="Shape"></path>
                <path d="M6.46,14.32 L4.88,18.12 L4.88,18.13 C4.85,18.21 4.85,18.31 4.88,18.39 C4.92,18.48 4.98,18.55 5.07,18.58 C5.21,18.64 5.37,18.6 5.47,18.49 C5.48,18.48 5.48,18.48 5.49,18.47 L8,15.22 C7.44,15 6.92,14.7 6.46,14.32 L6.46,14.32 Z" id="Shape"></path>
            </g>
        </g>
    </g>
</svg>