<?xml version="1.0" encoding="UTF-8" standalone="no"?>
<svg width="18px" height="20px" viewBox="0 0 18 20" version="1.1" xmlns="http://www.w3.org/2000/svg" xmlns:xlink="http://www.w3.org/1999/xlink">
    <!-- Generator: Sketch 3.7.2 (28276) - http://www.bohemiancoding.com/sketch -->
    <title>icon-weather-scattered-snow-showers</title>
    <desc>Created with Sketch.</desc>
    <defs></defs>
    <g id="weather-icons" stroke="none" stroke-width="1" fill="none" fill-rule="evenodd">
        <g id="ScatteredSnow">
            <g id="Shape">
                <path d="M4.95505618,7.09452736 C5.21797753,6.18905473 5.74382022,5.37313433 6.47191011,4.74626866 C6.83595506,4.4278607 7.2505618,4.17910448 7.68539326,3.9800995 C7.21011236,3.39303483 6.48202247,3.02487562 5.66292135,3.02487562 C4.23707865,3.02487562 3.0741573,4.16915423 3.0741573,5.5721393 C3.0741573,6.20895522 3.31685393,6.7960199 3.71123596,7.24378109 C4.0247191,7.14427861 4.34831461,7.08457711 4.69213483,7.08457711 C4.77303371,7.08457711 4.86404494,7.08457711 4.95505618,7.09452736 L4.95505618,7.09452736 Z" fill="#FECE00"></path>
                <path d="M2.8011236,1.07462687 L3.68089888,3.17412935 C3.93370787,2.96517413 4.22696629,2.80597015 4.5505618,2.68656716 L3.14494382,0.875621891 L3.14494382,0.875621891 C3.08426966,0.7960199 2.95280899,0.776119403 2.87191011,0.845771144 C2.8011236,0.895522388 2.78089888,0.985074627 2.8011236,1.06467662 C2.8011236,1.06467662 2.8011236,1.06467662 2.8011236,1.07462687 L2.8011236,1.07462687 Z" fill="#FECE00"></path>
                <path d="M6.16853933,2.52736318 L5.8752809,0.268656716 C5.8752809,0.268656716 5.8752809,0.268656716 5.8752809,0.258706468 C5.85505618,0.15920398 5.76404494,0.07960199 5.65280899,0.0895522388 C5.57191011,0.0995024876 5.5011236,0.15920398 5.48089888,0.23880597 L5.48089888,0.248756219 L5.17752809,2.49751244 C5.33932584,2.46766169 5.5011236,2.45771144 5.67303371,2.45771144 C5.83483146,2.47761194 5.99662921,2.49751244 6.16853933,2.52736318 L6.16853933,2.52736318 Z" fill="#FECE00"></path>
                <path d="M0.252808989,5.75124378 L0.262921348,5.75124378 L2.54831461,6.04975124 C2.51797753,5.89054726 2.50786517,5.73134328 2.50786517,5.56218905 C2.50786517,5.39303483 2.51797753,5.2238806 2.54831461,5.06467662 L0.262921348,5.35323383 C0.262921348,5.35323383 0.262921348,5.35323383 0.252808989,5.35323383 C0.151685393,5.37313433 0.0707865169,5.46268657 0.091011236,5.5721393 C0.111235955,5.67164179 0.171910112,5.73134328 0.252808989,5.75124378 L0.252808989,5.75124378 Z" fill="#FECE00"></path>
                <path d="M8.53483146,1.08457711 L8.53483146,1.08457711 C8.55505618,1.03482587 8.55505618,0.985074627 8.53483146,0.935323383 C8.51460674,0.885572139 8.4741573,0.845771144 8.42359551,0.825870647 C8.34269663,0.7960199 8.25168539,0.815920398 8.2011236,0.875621891 L8.19101124,0.885572139 L6.78539326,2.68656716 C7.0988764,2.80597015 7.39213483,2.97512438 7.64494382,3.1840796 L8.53483146,1.08457711 L8.53483146,1.08457711 Z" fill="#FECE00"></path>
                <path d="M0.9,3.07462687 L2.73033708,4.46766169 C2.85168539,4.15920398 3.02359551,3.87064677 3.23595506,3.62189055 L1.10224719,2.74626866 C1.10224719,2.74626866 1.10224719,2.74626866 1.09213483,2.74626866 C0.991011236,2.70646766 0.879775281,2.75621891 0.839325843,2.85572139 C0.808988764,2.93532338 0.829213483,3.02487562 0.88988764,3.07462687 L0.9,3.07462687 L0.9,3.07462687 Z" fill="#FECE00"></path>
                <path d="M17.7977528,9.28358209 C17.7775281,9.21393035 17.7573034,9.14427861 17.7269663,9.06467662 C17.7269663,9.05472637 17.7168539,9.03482587 17.7168539,9.02487562 C17.6966292,8.95522388 17.6662921,8.89552239 17.6359551,8.82587065 C17.6258427,8.8159204 17.6258427,8.80597015 17.6157303,8.78606965 C17.5853933,8.71641791 17.5550562,8.65671642 17.5146067,8.59701493 C17.5146067,8.59701493 17.5146067,8.58706468 17.5044944,8.58706468 C17.4741573,8.52736318 17.4337079,8.46766169 17.3932584,8.4079602 C17.3831461,8.39800995 17.3831461,8.3880597 17.3730337,8.37810945 C17.3325843,8.31840796 17.2921348,8.26865672 17.2516854,8.20895522 C17.241573,8.19900498 17.2314607,8.18905473 17.2213483,8.17910448 C17.1808989,8.12935323 17.1303371,8.06965174 17.0797753,8.0199005 L17.0696629,8.00995025 C17.0191011,7.960199 16.9786517,7.92039801 16.9280899,7.87064677 C16.9179775,7.86069652 16.9078652,7.86069652 16.9078652,7.85074627 C16.8573034,7.80099502 16.8067416,7.76119403 16.7460674,7.72139303 C16.7359551,7.71144279 16.7258427,7.70149254 16.7157303,7.70149254 C16.6651685,7.66169154 16.6044944,7.62189055 16.5438202,7.58208955 C16.5337079,7.58208955 16.5337079,7.5721393 16.5235955,7.5721393 C16.4629213,7.53233831 16.4123596,7.50248756 16.3516854,7.47263682 C16.341573,7.47263682 16.3314607,7.46268657 16.3314607,7.46268657 C16.2707865,7.43283582 16.2101124,7.40298507 16.1494382,7.37313433 C16.1393258,7.36318408 16.1292135,7.36318408 16.1089888,7.35323383 C16.0483146,7.32338308 15.9775281,7.30348259 15.9168539,7.28358209 C15.9067416,7.28358209 15.8966292,7.27363184 15.8865169,7.27363184 C15.8258427,7.25373134 15.7550562,7.23383085 15.694382,7.21393035 C15.6842697,7.21393035 15.6842697,7.21393035 15.6741573,7.2039801 C15.6033708,7.1840796 15.5426966,7.17412935 15.4719101,7.1641791 C15.4617978,7.1641791 15.441573,7.1641791 15.4314607,7.15422886 C15.3606742,7.14427861 15.2898876,7.13432836 15.2292135,7.12437811 L15.1988764,7.12437811 C15.1280899,7.11442786 15.0573034,7.11442786 14.9865169,7.11442786 L14.9764045,7.11442786 C14.9258427,7.11442786 14.8651685,7.11442786 14.8146067,7.12437811 L14.7640449,7.12437811 C14.7235955,7.12437811 14.6831461,7.13432836 14.6426966,7.13432836 C14.6224719,7.13432836 14.6022472,7.13432836 14.5820225,7.14427861 C14.541573,7.15422886 14.5011236,7.15422886 14.4606742,7.1641791 C14.4404494,7.1641791 14.4303371,7.17412935 14.4101124,7.17412935 C14.3494382,7.1840796 14.2988764,7.19402985 14.2382022,7.21393035 C14.2382022,7.21393035 14.1269663,7.24378109 13.9247191,7.29353234 C13.4292135,5.47263682 11.7404494,4.12935323 9.72808989,4.12935323 C9.46516854,4.12935323 9.20224719,4.14925373 8.95955056,4.19900498 C8.81797753,4.22885572 8.67640449,4.25870647 8.53483146,4.29850746 C8.35280899,4.34825871 8.18089888,4.4079602 8.01910112,4.47761194 C6.66404494,5.05472637 5.66292135,6.28855721 5.44044944,7.77114428 C5.4,7.76119403 5.37977528,7.75124378 5.35955056,7.75124378 C5.31910112,7.76119403 5.30898876,7.76119403 5.30898876,7.76119403 C5.25842697,7.75124378 5.21797753,7.74129353 5.16741573,7.73134328 C5.15730337,7.73134328 5.13707865,7.72139303 5.12696629,7.72139303 C5.09662921,7.71144279 5.05617978,7.71144279 5.0258427,7.70149254 C5.00561798,7.70149254 4.99550562,7.70149254 4.9752809,7.69154229 C4.94494382,7.69154229 4.90449438,7.68159204 4.8741573,7.68159204 L4.83370787,7.68159204 L4.69213483,7.68159204 L4.68202247,7.68159204 C4.62134831,7.68159204 4.56067416,7.68159204 4.5,7.69154229 L4.46966292,7.69154229 C4.40898876,7.70149254 4.34831461,7.70149254 4.29775281,7.71144279 C4.28764045,7.71144279 4.27752809,7.71144279 4.26741573,7.72139303 L4.26741573,7.72139303 C4.20674157,7.73134328 4.15617978,7.74129353 4.09550562,7.76119403 L4.0752809,7.76119403 C4.0247191,7.77114428 3.96404494,7.79104478 3.91348315,7.81094527 C3.90337079,7.81094527 3.89325843,7.82089552 3.88314607,7.82089552 C3.83258427,7.84079602 3.77191011,7.86069652 3.72134831,7.88059701 C3.71123596,7.88059701 3.7011236,7.89054726 3.69101124,7.89054726 C3.64044944,7.91044776 3.58988764,7.94029851 3.53932584,7.960199 C3.52921348,7.960199 3.52921348,7.97014925 3.51910112,7.97014925 C3.46853933,8 3.42808989,8.0199005 3.37752809,8.04975124 C3.36741573,8.04975124 3.36741573,8.05970149 3.35730337,8.05970149 C3.30674157,8.08955224 3.26629213,8.11940299 3.21573034,8.15920398 C3.20561798,8.16915423 3.19550562,8.16915423 3.18539326,8.17910448 C3.13483146,8.20895522 3.09438202,8.24875622 3.05393258,8.28855721 C3.04382022,8.29850746 3.04382022,8.29850746 3.03370787,8.30845771 C2.99325843,8.34825871 2.95280899,8.3880597 2.91235955,8.4278607 L2.90224719,8.43781095 C2.86179775,8.47761194 2.82134831,8.52736318 2.78089888,8.56716418 C2.77078652,8.57711443 2.76067416,8.58706468 2.76067416,8.59701493 C2.72022472,8.63681592 2.68988764,8.68656716 2.65955056,8.73631841 C2.63932584,8.74626866 2.62921348,8.75621891 2.62921348,8.76616915 C2.5988764,8.8159204 2.56853933,8.86567164 2.53820225,8.91542289 C2.53820225,8.91542289 2.53820225,8.92537313 2.52808989,8.92537313 C2.49775281,8.97512438 2.46741573,9.03482587 2.44719101,9.08457711 C2.44719101,9.09452736 2.43707865,9.10447761 2.43707865,9.11442786 C2.41685393,9.1641791 2.38651685,9.2238806 2.36629213,9.28358209 C2.36629213,9.29353234 2.35617978,9.30348259 2.35617978,9.31343284 C2.33595506,9.37313433 2.31573034,9.43283582 2.29550562,9.49253731 C2.2752809,9.5721393 2.25505618,9.64179104 2.24494382,9.72139303 C2.23483146,9.80099502 2.2247191,9.87064677 2.21460674,9.95024876 C2.20449438,10.0995025 2.20449438,10.2487562 2.2247191,10.39801 C1.56741573,10.5771144 1.16292135,10.6766169 1.16292135,10.6766169 C0.546067416,10.8358209 0.171910112,11.4626866 0.343820225,12.0696517 C0.353932584,12.0995025 0.364044944,12.1293532 0.374157303,12.1691542 C0.374157303,12.1791045 0.384269663,12.1890547 0.384269663,12.199005 C0.394382022,12.2189055 0.404494382,12.238806 0.414606742,12.2587065 C0.424719101,12.2686567 0.424719101,12.278607 0.434831461,12.2985075 C0.44494382,12.318408 0.45505618,12.3283582 0.465168539,12.3482587 C0.475280899,12.358209 0.475280899,12.3681592 0.485393258,12.3880597 C0.495505618,12.4079602 0.505617978,12.4179104 0.515730337,12.4378109 C0.525842697,12.4477612 0.535955056,12.4577114 0.546067416,12.4676617 C0.556179775,12.4776119 0.566292135,12.4975124 0.576404494,12.5074627 C0.586516854,12.5174129 0.596629213,12.5273632 0.606741573,12.5373134 C0.616853933,12.5472637 0.626966292,12.5671642 0.647191011,12.5771144 C0.657303371,12.5870647 0.66741573,12.5970149 0.67752809,12.6069652 C0.687640449,12.6169154 0.697752809,12.6268657 0.717977528,12.6368159 C0.728089888,12.6467662 0.738202247,12.6567164 0.748314607,12.6666667 C0.758426966,12.6766169 0.778651685,12.6865672 0.788764045,12.6965174 C0.798876404,12.7064677 0.808988764,12.7164179 0.829213483,12.7263682 C0.839325843,12.7363184 0.859550562,12.7462687 0.869662921,12.7562189 C0.879775281,12.7661692 0.9,12.7661692 0.91011236,12.7761194 C0.920224719,12.7860697 0.940449438,12.7960199 0.950561798,12.7960199 C0.960674157,12.8059701 0.980898876,12.8059701 0.991011236,12.8159204 C1.01123596,12.8258706 1.02134831,12.8258706 1.04157303,12.8358209 C1.05168539,12.8457711 1.07191011,12.8457711 1.08202247,12.8557214 C1.10224719,12.8656716 1.11235955,12.8656716 1.13258427,12.8756219 C1.14269663,12.8756219 1.16292135,12.8855721 1.17303371,12.8855721 C1.19325843,12.8855721 1.20337079,12.8955224 1.22359551,12.8955224 C1.23370787,12.8955224 1.25393258,12.9054726 1.26404494,12.9054726 C1.28426966,12.9054726 1.29438202,12.9154229 1.31460674,12.9154229 C1.3247191,12.9154229 1.34494382,12.9154229 1.35505618,12.9253731 L1.40561798,12.9253731 L1.44606742,12.9253731 L1.53707865,12.9253731 L14.8955056,12.9253731 C14.8955056,12.9253731 15.4516854,12.8955224 15.7247191,12.8258706 C17.2921348,12.4079602 18.2224719,10.8258706 17.7977528,9.28358209 L17.7977528,9.28358209 Z" fill="#B9B9B9"></path>
                <path d="M3.18539326,7.47263682 C2.99325843,7.23383085 2.83146067,6.96517413 2.72022472,6.66666667 L0.88988764,8.039801 C0.88988764,8.039801 0.88988764,8.039801 0.879775281,8.039801 C0.839325843,8.06965174 0.819101124,8.11940299 0.808988764,8.16915423 C0.798876404,8.21890547 0.819101124,8.26865672 0.849438202,8.31840796 C0.9,8.3880597 0.991011236,8.4079602 1.07191011,8.3880597 L1.08202247,8.3880597 L2.90224719,7.65174129 L3.2258427,7.52238806 C3.20561798,7.50248756 3.19550562,7.48258706 3.18539326,7.47263682 L3.18539326,7.47263682 Z" fill="#FECE00"></path>
                <path d="M6.68426966,15.4029851 L6.66404494,15.4029851 L6.05730337,15.5621891 L5.52134831,15.2537313 L6.05730337,14.9552239 L6.66404494,15.1144279 C6.70449438,15.1243781 6.74494382,15.1044776 6.75505618,15.0646766 C6.76516854,15.0348259 6.74494382,15.0049751 6.7247191,14.9850746 L6.7247191,14.9850746 L6.3505618,14.7761194 L6.69438202,14.5174129 L6.69438202,14.5174129 C6.7247191,14.4975124 6.7247191,14.4676617 6.71460674,14.4378109 C6.70449438,14.4079602 6.6741573,14.39801 6.64382022,14.39801 C6.63370787,14.39801 6.62359551,14.39801 6.61348315,14.4079602 L6.21910112,14.5671642 L6.21910112,14.1492537 C6.21910112,14.119403 6.1988764,14.079602 6.16853933,14.079602 C6.12808989,14.0696517 6.08764045,14.0895522 6.07752809,14.1293532 L5.91573034,14.7263682 L5.37977528,15.0348259 L5.37977528,14.4278607 L5.8247191,13.9900498 C5.83483146,13.9800995 5.84494382,13.960199 5.84494382,13.9402985 C5.84494382,13.920398 5.83483146,13.9004975 5.8247191,13.8905473 C5.80449438,13.8706468 5.76404494,13.8606965 5.73370787,13.880597 L5.73370787,13.880597 L5.35955056,14.0895522 L5.2988764,13.6616915 C5.28876404,13.6318408 5.26853933,13.60199 5.22808989,13.60199 L5.21797753,13.60199 C5.18764045,13.60199 5.15730337,13.6318408 5.15730337,13.6616915 L5.15730337,13.6616915 L5.10674157,14.079602 L4.73258427,13.8706468 L4.73258427,13.8706468 C4.70224719,13.8606965 4.67191011,13.8606965 4.64157303,13.880597 C4.61123596,13.9104478 4.61123596,13.9502488 4.64157303,13.9800995 L5.08651685,14.4179104 L5.08651685,15.0248756 L4.5505618,14.7164179 L4.38876404,14.119403 C4.37865169,14.079602 4.33820225,14.0597015 4.29775281,14.0696517 C4.26741573,14.079602 4.24719101,14.1094527 4.24719101,14.1393035 L4.24719101,14.1393035 L4.24719101,14.5671642 L3.85280899,14.4079602 C3.82247191,14.39801 3.77191011,14.4079602 3.76179775,14.4477612 C3.75168539,14.4776119 3.76179775,14.5074627 3.78202247,14.5273632 L3.78202247,14.5273632 L4.1258427,14.7860697 L3.75168539,14.9950249 L3.75168539,14.9950249 C3.72134831,15.0149254 3.71123596,15.0447761 3.72134831,15.0746269 C3.73146067,15.1044776 3.76179775,15.1243781 3.79213483,15.1243781 L3.81235955,15.1243781 L4.41910112,14.9651741 L4.95505618,15.2636816 L4.42921348,15.5721393 L3.82247191,15.4129353 C3.78202247,15.4029851 3.74157303,15.4228856 3.73146067,15.4626866 C3.72134831,15.4925373 3.74157303,15.5223881 3.76179775,15.5422886 L3.76179775,15.5422886 L4.13595506,15.7512438 L3.79213483,16.0099502 L3.79213483,16.0099502 C3.76179775,16.0298507 3.76179775,16.0597015 3.77191011,16.0895522 C3.78202247,16.119403 3.81235955,16.1293532 3.84269663,16.1293532 C3.85280899,16.1293532 3.86292135,16.1293532 3.87303371,16.119403 L4.26741573,15.960199 L4.26741573,16.3880597 L4.26741573,16.3880597 C4.26741573,16.4179104 4.28764045,16.4477612 4.31797753,16.4577114 C4.35842697,16.4676617 4.3988764,16.4477612 4.40898876,16.4079602 L4.57078652,15.8109453 L5.10674157,15.5124378 L5.10674157,16.119403 L4.66179775,16.5572139 C4.65168539,16.5671642 4.64157303,16.5870647 4.64157303,16.6069652 C4.64157303,16.6268657 4.65168539,16.6467662 4.66179775,16.6567164 C4.68202247,16.6766169 4.72247191,16.6865672 4.75280899,16.6666667 L4.75280899,16.6666667 L5.12696629,16.4577114 L5.18764045,16.8855721 C5.19775281,16.9154229 5.21797753,16.9452736 5.25842697,16.9452736 L5.26853933,16.9452736 C5.2988764,16.9353234 5.32921348,16.9154229 5.32921348,16.8855721 L5.32921348,16.8855721 L5.37977528,16.4676617 L5.75393258,16.6766169 L5.75393258,16.6766169 C5.78426966,16.6865672 5.81460674,16.6865672 5.84494382,16.6666667 C5.8752809,16.6368159 5.8752809,16.5970149 5.84494382,16.5671642 L5.4,16.1293532 L5.4,15.5223881 L5.93595506,15.8208955 L6.09775281,16.4179104 C6.10786517,16.4577114 6.14831461,16.4776119 6.18876404,16.4676617 C6.21910112,16.4577114 6.23932584,16.4278607 6.23932584,16.39801 L6.23932584,16.39801 L6.23932584,15.9701493 L6.64382022,16.1293532 C6.65393258,16.1293532 6.66404494,16.1393035 6.6741573,16.1393035 C6.70449438,16.1393035 6.7247191,16.119403 6.74494382,16.0995025 C6.75505618,16.0696517 6.74494382,16.039801 6.7247191,16.0199005 L6.7247191,16.0199005 L6.38089888,15.761194 L6.75505618,15.5522388 L6.75505618,15.5522388 C6.78539326,15.5422886 6.79550562,15.5024876 6.78539326,15.4726368 C6.74494382,15.4228856 6.71460674,15.4029851 6.68426966,15.4029851 L6.68426966,15.4029851 Z" fill="#B9B9B9"></path>
                <path d="M14.1067416,17.2139303 L12.994382,17.5024876 L12.0134831,16.9452736 L12.994382,16.3880597 L14.1168539,16.6865672 C14.1876404,16.7064677 14.258427,16.6567164 14.2786517,16.5970149 C14.2988764,16.5373134 14.2685393,16.4776119 14.2179775,16.4477612 L13.5202247,16.0597015 L14.147191,15.5920398 C14.1977528,15.5522388 14.2078652,15.4925373 14.1876404,15.4427861 C14.1674157,15.3930348 14.1168539,15.3631841 14.0662921,15.3631841 C14.0460674,15.3631841 14.0359551,15.3731343 14.0157303,15.3731343 L13.2876404,15.6716418 L13.2876404,14.8955224 C13.2977528,14.8358209 13.247191,14.7761194 13.1966292,14.7562189 C13.1258427,14.7363184 13.0550562,14.7761194 13.0348315,14.8457711 L12.741573,15.9402985 L11.7606742,16.4975124 L11.7606742,15.3830846 L12.5797753,14.5771144 C12.6101124,14.5472637 12.6202247,14.5174129 12.6202247,14.4875622 C12.6202247,14.4477612 12.6,14.4179104 12.5797753,14.39801 C12.5393258,14.358209 12.4685393,14.3482587 12.4179775,14.3781095 L11.7202247,14.7661692 L11.6191011,13.9900498 C11.6089888,13.9303483 11.558427,13.880597 11.4876404,13.880597 L11.4674157,13.880597 C11.4067416,13.8905473 11.3662921,13.9303483 11.3561798,13.9900498 L11.2550562,14.7661692 L10.5674157,14.3781095 C10.5067416,14.3482587 10.4359551,14.358209 10.3955056,14.39801 C10.3449438,14.4477612 10.3449438,14.5273632 10.405618,14.5771144 L11.2247191,15.3830846 L11.2247191,16.4975124 L10.2438202,15.9402985 L9.94044944,14.8358209 C9.92022472,14.7661692 9.8494382,14.7263682 9.77865169,14.7462687 C9.71797753,14.7661692 9.68764045,14.8159204 9.68764045,14.8756219 L9.68764045,15.6616915 L8.95955056,15.3631841 C8.8988764,15.3333333 8.81797753,15.3731343 8.78764045,15.4328358 C8.76741573,15.4825871 8.77752809,15.5522388 8.82808989,15.5820896 L9.46516854,16.0497512 L8.77752809,16.4378109 C8.71685393,16.4676617 8.68651685,16.5273632 8.70674157,16.5870647 C8.72696629,16.6467662 8.77752809,16.6766169 8.83820225,16.6766169 C8.84831461,16.6766169 8.85842697,16.6766169 8.87865169,16.6666667 L9.99101124,16.3781095 L10.9719101,16.9353234 L10.011236,17.4925373 L8.88876404,17.1940299 C8.81797753,17.1741294 8.74719101,17.2238806 8.72696629,17.2835821 C8.70674157,17.3432836 8.73707865,17.4029851 8.78764045,17.4328358 L9.48539326,17.8208955 L8.85842697,18.2885572 C8.79775281,18.3283582 8.78764045,18.3880597 8.80786517,18.4378109 C8.82808989,18.4875622 8.87865169,18.5174129 8.92921348,18.5174129 C8.9494382,18.5174129 8.95955056,18.5074627 8.97977528,18.5074627 L9.70786517,18.2089552 L9.70786517,18.9850746 C9.70786517,19.0447761 9.74831461,19.0945274 9.7988764,19.1144279 C9.86966292,19.1343284 9.94044944,19.0945274 9.96067416,19.0248756 L10.2539326,17.9303483 L11.2348315,17.3731343 L11.2348315,18.4875622 L10.4157303,19.2935323 C10.3853933,19.3233831 10.3752809,19.3532338 10.3752809,19.3830846 C10.3752809,19.4129353 10.3955056,19.4527363 10.4157303,19.4726368 C10.4561798,19.5124378 10.5269663,19.5223881 10.5775281,19.4925373 L11.2651685,19.1044776 L11.3662921,19.880597 C11.3764045,19.9402985 11.4269663,19.9900498 11.4977528,19.9900498 L11.5179775,19.9900498 C11.5786517,19.9800995 11.6191011,19.9402985 11.6292135,19.880597 L11.7303371,19.1044776 L12.4179775,19.4925373 C12.4786517,19.5223881 12.5494382,19.5124378 12.5898876,19.4726368 C12.6404494,19.4228856 12.6404494,19.3432836 12.5797753,19.2835821 L11.7606742,18.4776119 L11.7606742,17.3631841 L12.741573,17.920398 L13.0449438,19.0248756 C13.0651685,19.0945274 13.1359551,19.1343284 13.2067416,19.1144279 C13.2674157,19.0945274 13.2977528,19.0447761 13.2977528,18.9850746 L13.2977528,18.2089552 L14.0359551,18.5074627 C14.0561798,18.5174129 14.0662921,18.5174129 14.0865169,18.5174129 C14.1370787,18.5174129 14.1876404,18.4875622 14.2078652,18.4378109 C14.2280899,18.3880597 14.2179775,18.318408 14.1674157,18.2885572 L13.5303371,17.8208955 L14.2179775,17.4328358 C14.2685393,17.4029851 14.2988764,17.3432836 14.2786517,17.2835821 C14.258427,17.2437811 14.2078652,17.2039801 14.147191,17.2039801 C14.1370787,17.2039801 14.1269663,17.2039801 14.1067416,17.2139303 Z" fill="#B9B9B9"></path>
            </g>
        </g>
    </g>
</svg>