<?xml version="1.0" encoding="UTF-8" standalone="no"?>
<svg width="21px" height="19px" viewBox="0 0 21 19" version="1.1" xmlns="http://www.w3.org/2000/svg" xmlns:xlink="http://www.w3.org/1999/xlink">
    <!-- Generator: Sketch 3.7.2 (28276) - http://www.bohemiancoding.com/sketch -->
    <title>icon-weather-rain</title>
    <desc>Created with Sketch.</desc>
    <defs></defs>
    <g id="weather-icons" stroke="none" stroke-width="1" fill="none" fill-rule="evenodd">
        <g id="Rain" transform="translate(0.000000, -1.000000)">
            <g transform="translate(0.909548, 1.565217)" id="Shape">
                <path d="M9.84554003,11.0050687 C9.74713754,10.9851785 9.64873505,11.0249589 9.59953381,11.1045197 L9.59953381,11.1045197 L6.17512723,16.445038 C6.11608574,16.5345439 6.0668845,16.6240498 6.03736375,16.7334459 C5.87991977,17.2704813 6.23416873,17.8274068 6.8344239,17.9666382 C7.42483883,18.1058696 8.03493425,17.7975715 8.20221848,17.2605362 L8.20221848,17.2605362 L9.02879938,14.4858535 L9.02879938,14.4759084 L9.02879938,14.4759084 L9.99314376,11.2437511 L9.99314376,11.2238609 L9.99314376,11.2238609 C10.0226645,11.1443001 9.95378277,11.034904 9.84554003,11.0050687 L9.84554003,11.0050687 Z" fill="#2B9CD8"></path>
                <path d="M6.98972902,11.1980638 C7.02251945,11.1210906 6.9733338,11.0355649 6.89135771,11.0099072 C6.81757923,10.9842494 6.73560315,11.0099072 6.70281271,11.0697752 L6.70281271,11.0697752 L5.11247662,13.1908135 C5.07968619,13.2335764 5.05509336,13.2763392 5.03050053,13.3276547 C4.93212923,13.5842319 5.07968619,13.8750194 5.35840488,13.9690977 C5.63712358,14.063176 5.93223749,13.9348874 6.03880641,13.6868628 L6.03880641,13.6868628 L6.98153141,11.2151689 L6.98972902,11.1980638 L6.98972902,11.1980638 L6.98972902,11.1980638 Z" fill="#2B9CD8"></path>
                <path d="M12.989729,11.1980638 C13.0225195,11.1210906 12.9733338,11.0355649 12.8913577,11.0099072 C12.8175792,10.9842494 12.7356031,11.0099072 12.7028127,11.0697752 L12.7028127,11.0697752 L11.1124766,13.1908135 C11.0796862,13.2335764 11.0550934,13.2763392 11.0305005,13.3276547 C10.9321292,13.5842319 11.0796862,13.8750194 11.3584049,13.9690977 C11.6371236,14.063176 11.9322375,13.9348874 12.0388064,13.6868628 L12.0388064,13.6868628 L12.9815314,11.2151689 L12.989729,11.1980638 L12.989729,11.1980638 L12.989729,11.1980638 Z" fill="#2B9CD8"></path>
                <path d="M19.8866246,5.84567243 C19.4118453,4.10292511 17.5935415,3.05727672 15.8257462,3.5153703 C15.8257462,3.5153703 15.6944242,3.54524597 15.4721871,3.60499731 C14.9064926,1.53361764 12.9871719,0 10.7041905,0 C8.22927704,0 6.17863445,1.80249865 5.82507538,4.14275934 C5.74426188,4.12284223 5.69375344,4.11288367 5.69375344,4.11288367 C4.19870367,3.73445854 2.66324714,4.61081148 2.26928132,6.08467778 C2.17836614,6.43322724 2.15816276,6.78177671 2.18846782,7.12036761 C1.44094294,7.31953874 0.976265303,7.43904141 0.976265303,7.43904141 C0.269147167,7.62825397 -0.145022027,8.33531146 0.0469100384,9.03241039 C0.208537041,9.63988231 0.784333238,10.028266 1.40053619,9.99839033 L16.5833727,9.99839033 C16.5833727,9.99839033 17.2096774,9.96851466 17.5329314,9.88884621 C19.3007267,9.40087696 20.3614039,7.59837831 19.8866246,5.84567243 L19.8866246,5.84567243 Z" fill="#B9B9B9"></path>
            </g>
        </g>
    </g>
</svg>