<?xml version="1.0" encoding="UTF-8" standalone="no"?>
<svg width="20px" height="18px" viewBox="0 0 20 18" version="1.1" xmlns="http://www.w3.org/2000/svg" xmlns:xlink="http://www.w3.org/1999/xlink">
    <!-- Generator: Sketch 3.7.2 (28276) - http://www.bohemiancoding.com/sketch -->
    <title>icon-weather-freezing-drizzle</title>
    <desc>Created with Sketch.</desc>
    <defs></defs>
    <g id="weather-icons" stroke="none" stroke-width="1" fill="none" fill-rule="evenodd">
        <g id="freezing-drizzle" transform="translate(-1.000000, -1.000000)">
            <g transform="translate(1.000000, 1.000000)" id="Shape">
                <path d="M8.21336272,15 C8.18279896,15 8.16242312,15 8.13185937,14.9802928 C8.01979226,14.9408784 7.96885267,14.8127815 8.01979226,14.7142454 L9.58873173,11.1275325 C9.62948341,11.0191428 9.76192635,10.9698748 9.86380553,11.0191428 C9.97587264,11.0585572 10.0268122,11.1866541 9.98606056,11.2851902 L8.40693317,14.8719031 C8.37636942,14.950732 8.29486607,15 8.21336272,15 L8.21336272,15 Z" fill="#B9B9B9"></path>
                <path d="M7.17701421,14 C7.1516573,14 7.13475269,14 7.10939578,13.9822177 C7.01642045,13.9466531 6.97415894,13.8310681 7.01642045,13.7421566 L7.65879547,12.1150757 C7.69260468,12.017273 7.80248462,11.9728172 7.88700765,12.017273 C7.97998298,12.0528376 8.0222445,12.1684226 7.98843528,12.2573341 L7.33760796,13.884415 C7.31225105,13.9555442 7.24463263,14 7.17701421,14 L7.17701421,14 Z" fill="#B9B9B9"></path>
                <path d="M8,17 C8,17.5533981 7.55339806,18 7,18 C6.44660194,18 6,17.5533981 6,17 C6,16.4466019 6.44660194,16 7,16 C7.55339806,16 8,16.4466019 8,17 L8,17 Z" fill="#B9B9B9"></path>
                <path d="M19.8866246,5.84567243 C19.4118453,4.10292511 17.5935415,3.05727672 15.8257462,3.5153703 C15.8257462,3.5153703 15.6944242,3.54524597 15.4721871,3.60499731 C14.9064926,1.53361764 12.9871719,0 10.7041905,0 C8.22927704,0 6.17863445,1.80249865 5.82507538,4.14275934 C5.74426188,4.12284223 5.69375344,4.11288367 5.69375344,4.11288367 C4.19870367,3.73445854 2.66324714,4.61081148 2.26928132,6.08467778 C2.17836614,6.43322724 2.15816276,6.78177671 2.18846782,7.12036761 C1.44094294,7.31953874 0.976265303,7.43904141 0.976265303,7.43904141 C0.269147167,7.62825397 -0.145022027,8.33531146 0.0469100384,9.03241039 C0.208537041,9.63988231 0.784333238,10.028266 1.40053619,9.99839033 L16.5833727,9.99839033 C16.5833727,9.99839033 17.2096774,9.96851466 17.5329314,9.88884621 C19.3007267,9.40087696 20.3614039,7.59837831 19.8866246,5.84567243 L19.8866246,5.84567243 Z" fill="#B9B9B9"></path>
                <path d="M12.84554,11.0050687 C12.7471375,10.9851785 12.6487351,11.0249589 12.5995338,11.1045197 L12.5995338,11.1045197 L9.17512723,16.445038 C9.11608574,16.5345439 9.0668845,16.6240498 9.03736375,16.7334459 C8.87991977,17.2704813 9.23416873,17.8274068 9.8344239,17.9666382 C10.4248388,18.1058696 11.0349343,17.7975715 11.2022185,17.2605362 L11.2022185,17.2605362 L12.0287994,14.4858535 L12.0287994,14.4759084 L12.0287994,14.4759084 L12.9931438,11.2437511 L12.9931438,11.2238609 L12.9931438,11.2238609 C13.0226645,11.134355 12.9537828,11.034904 12.84554,11.0050687 L12.84554,11.0050687 Z" fill="#2B9CD8"></path>
            </g>
        </g>
    </g>
</svg>