<?xml version="1.0" encoding="UTF-8" standalone="no"?>
<svg width="40px" height="70px" viewBox="0 0 40 70" version="1.1" xmlns="http://www.w3.org/2000/svg" xmlns:xlink="http://www.w3.org/1999/xlink">
    <!-- Generator: Sketch 39.1 (31720) - http://www.bohemiancoding.com/sketch -->
    <title>Group 2</title>
    <desc>Created with Sketch.</desc>
    <defs>
        <rect id="path-1" x="12.1569468" y="10.88" width="11.7066895" height="5.89333333" rx="1"></rect>
        <mask id="mask-2" maskContentUnits="userSpaceOnUse" maskUnits="objectBoundingBox" x="0" y="0" width="11.7066895" height="5.89333333" fill="white">
            <use xlink:href="#path-1"></use>
        </mask>
        <rect id="path-3" x="0" y="0" width="15.3087479" height="8.16" rx="1"></rect>
        <mask id="mask-4" maskContentUnits="userSpaceOnUse" maskUnits="objectBoundingBox" x="0" y="0" width="15.3087479" height="8.16" fill="white">
            <use xlink:href="#path-3"></use>
        </mask>
    </defs>
    <g id="specs" stroke="none" stroke-width="1" fill="none" fill-rule="evenodd">
        <g id="EIN_main-6" transform="translate(-8.000000, -689.000000)">
            <g id="Group-2" transform="translate(0.000000, 689.000000)">
                <circle id="Oval-184-Copy" fill="#2EA0DD" cx="28" cy="20" r="20"></circle>
                <g id="Group-11" transform="translate(15.000000, 12.000000)">
                    <use id="Rectangle-19" stroke="#FFFFFF" mask="url(#mask-2)" stroke-width="2" xlink:href="#path-1"></use>
                    <use id="Rectangle-19" stroke="#FFFFFF" mask="url(#mask-4)" stroke-width="2" xlink:href="#path-3"></use>
                    <path d="M6.95102602,14.5224713 C6.73579308,14.2825911 6.59525973,14.1325909 6.4617059,13.975777 C6.25854561,13.7376002 6.23732413,13.4483212 6.48302169,13.2829903 C6.6372311,13.1791825 6.9764918,13.1555351 7.0965582,13.264854 C7.58436925,13.7085421 8.04614861,14.194114 8.45652484,14.718163 C8.5672538,14.859546 8.55546409,15.2723723 8.4403022,15.4202684 C8.05133608,15.9198684 7.59644191,16.3628551 7.15484653,16.8144591 C6.93395452,17.0402109 6.67392068,17.076684 6.44331395,16.8304912 C6.20629362,16.5771841 6.27382508,16.3195685 6.48670008,16.0825941 C6.6030881,15.953135 6.71787272,15.8221728 6.91688302,15.5978238 C6.16894381,15.5978238 5.51975522,15.6095472 4.87113253,15.5955192 C3.20265276,15.5593468 1.77760692,14.4472207 1.45353137,12.7881999 C1.28998451,11.9513247 1.33016385,11.0631469 1.34355696,10.1993178 C1.34619785,10.0333857 1.65688029,9.74250341 1.81986124,9.74671183 C1.97916381,9.75092026 2.2362738,10.0412013 2.26551228,10.2370934 C2.33360965,10.693507 2.28814853,11.1685579 2.29305305,11.6360937 C2.31153931,13.4375997 3.34177134,14.5195655 5.0400555,14.5223711 C5.63652051,14.5232729 6.23317416,14.5224713 6.95102602,14.5224713" id="Fill-7" fill="#FFFFFF"></path>
                    <path d="M22.5170638,5.00247129 C22.3018308,4.76259113 22.1612975,4.61259088 22.0277436,4.45577699 C21.8245833,4.21760024 21.8033619,3.9283212 22.0490594,3.76299027 C22.2032688,3.65918248 22.5425295,3.63553514 22.6625959,3.74485396 C23.150407,4.18854208 23.6121863,4.67411403 24.0225626,5.198163 C24.1332915,5.339546 24.1215018,5.75237233 24.0063399,5.90026837 C23.6173738,6.3998684 23.1624796,6.84285511 22.7208843,7.29445907 C22.4999923,7.52021095 22.2399584,7.55668396 22.0093517,7.31049116 C21.7723314,7.05718413 21.8398628,6.79956847 22.0527378,6.56259412 C22.1691258,6.43313499 22.2839105,6.30217285 22.4829208,6.07782378 C21.7349816,6.07782378 21.085793,6.08954724 20.4371703,6.07551917 C18.7686905,6.03934676 17.3436447,4.92722066 17.0195691,3.26819986 C16.8560222,2.43132472 16.8962016,1.54314689 16.9095947,0.679317798 C16.9122356,0.513385658 17.222918,0.22250341 17.385899,0.226711834 C17.5452015,0.230920258 17.8023115,0.521201302 17.83155,0.717093412 C17.8996474,1.173507 17.8541863,1.64855789 17.8590908,2.11609374 C17.877577,3.91759974 18.9078091,4.99956547 20.6060932,5.00237109 C21.2025582,5.00327289 21.7992119,5.00247129 22.5170638,5.00247129" id="Fill-7" fill="#FFFFFF" transform="translate(20.497427, 3.853333) rotate(-180.000000) translate(-20.497427, -3.853333) "></path>
                </g>
                <text id="Toggle-" font-family="XFINITYSans-Bold, XFINITY Sans" font-size="10" font-weight="bold" fill="#FFFFFF">
                    <tspan x="11.7236328" y="57">Toggle </tspan>
                    <tspan x="8.12011719" y="69">Window</tspan>
                </text>
            </g>
        </g>
    </g>
</svg>