<?xml version="1.0" encoding="UTF-8" standalone="no"?>
<svg width="21px" height="19px" viewBox="0 0 21 19" version="1.1" xmlns="http://www.w3.org/2000/svg" xmlns:xlink="http://www.w3.org/1999/xlink" xmlns:sketch="http://www.bohemiancoding.com/sketch/ns">
    <!-- Generator: Sketch 3.5.1 (25234) - http://www.bohemiancoding.com/sketch -->
    <title>refresh copy 13</title>
    <desc>Created with Sketch.</desc>
    <defs></defs>
    <g id="customer-header---visuals---most-recent" stroke="none" stroke-width="1" fill="none" fill-rule="evenodd" sketch:type="MSPage">
        <g id="02-EIN-CustomerHeader_SpacingSpecs" sketch:type="MSArtboardGroup" transform="translate(-1482.000000, -284.000000)" stroke="#2B9CD8" stroke-width="0.5" fill="#2B9CD8">
            <g id="Group-3" sketch:type="MSLayerGroup" transform="translate(157.000000, -307.000000)">
                <g id="refresh-copy-13" transform="translate(1335.588235, 600.000000) rotate(-180.000000) translate(-1335.588235, -600.000000) translate(1325.000000, 591.000000)" sketch:type="MSShapeGroup">
                    <path d="M20.7339159,8.44486205 C20.5632741,3.63093603 16.6429049,-0.136484335 11.9967166,0.0728167964 C9.61921981,0.14258384 7.36708563,1.25885654 5.81779303,3.14256672 C4.50401993,4.74755756 3.80861226,6.73591831 3.80252997,8.86346431 L1.9325659,6.14254961 C1.82545014,5.968132 1.61425977,5.93359731 1.46186479,6.03789904 C1.30913191,6.14254961 1.27263821,6.38673426 1.38009188,6.52626835 L3.9363402,10.2940375 C3.99783884,10.3634558 4.09718279,10.4332228 4.20396064,10.4332228 L4.21274616,10.4332228 C4.31614497,10.4332228 4.41413731,10.3634558 4.47833918,10.2940375 L7.32856451,6.56115187 C7.44378998,6.38673426 7.41810923,6.17743313 7.27145863,6.07278256 C7.12447013,5.93359731 6.91226604,5.968132 6.79704057,6.10801492 L4.48036661,9.17741601 C4.42190911,7.0844047 5.06494157,5.13092747 6.33174593,3.59640134 C7.75871707,1.88675993 9.83243762,0.840254278 12.0213836,0.770487234 C16.2904704,0.596069625 19.9016569,4.04953829 20.0584446,8.47974557 C20.1348111,10.6076404 19.4005444,12.6308847 17.9901305,14.2006432 C16.5797167,15.7704016 14.6627839,16.6777221 12.5924424,16.7471403 C9.45736351,16.8866743 6.58483648,15.0727312 5.26565691,12.1076318 C5.18726304,11.9332142 4.9862098,11.863796 4.81691959,11.9684466 C4.64762939,12.0378648 4.57430409,12.2471659 4.65269796,12.4215835 C6.04216168,15.5265658 9.02112866,17.4796942 12.3025203,17.4796942 C12.4069328,17.4796942 12.5120211,17.4451595 12.6171094,17.4451595 C14.8682299,17.3750437 16.9524255,16.3986539 18.4851608,14.6893613 C20.018234,12.9797199 20.8167025,10.7471745 20.7339159,8.44486205" id="Fill-1220"></path>
                </g>
            </g>
        </g>
    </g>
</svg>